{
.appVersion = "926";
classes = (
{
automatic = 1;
code = "A Aacute Abreve Abreveacute Abrevedotbelow Abrevegrave Abrevehookabove Abrevetilde Acircumflex Acircumflexacute Acircumflexdotbelow Acircumflexgrave Acircumflexhookabove Acircumflextilde Adblgrave Adieresis Adotbelow Agrave Ahookabove Ainvertedbreve Amacron Aogonek Aring Aringacute Atilde AE AEacute B C Cacute Ccaron Ccedilla Ccircumflex Cdotaccent D Eth Dcaron Dcroat E Eacute Ebreve Ecaron Ecircumflex Ecircumflexacute Ecircumflexdotbelow Ecircumflexgrave Ecircumflexhookabove Ecircumflextilde Edblgrave Edieresis Edotaccent Edotbelow Egrave Ehookabove Einvertedbreve Emacron Eogonek Etilde F G Gbreve Gcaron Gcircumflex Gcommaaccent Gdotaccent H Hbar Hcircumflex I Iacute Ibreve Icircumflex Idblgrave Idieresis Idotaccent Idotbelow Igrave Ihookabove Iinvertedbreve Imacron Iogonek Itilde J Jcircumflex K Kcommaaccent L Lacute Lcaron Lcommaaccent Ldot Lslash M N Nacute Ncaron Ncommaaccent Eng Ntilde O Oacute Obreve Ocircumflex Ocircumflexacute Ocircumflexdotbelow Ocircumflexgrave Ocircumflexhookabove Ocircumflextilde Odblgrave Odieresis Odieresismacron Odotaccentmacron Odotbelow Ograve Ohookabove Ohorn Ohornacute Ohorndotbelow Ohorngrave Ohornhookabove Ohorntilde Ohungarumlaut Oinvertedbreve Omacron Oogonek Oslash Oslashacute Otilde Otildemacron OE P Thorn Q R Racute Rcaron Rcommaaccent Rdblgrave Rinvertedbreve S Sacute Scaron Scedilla Scircumflex Scommaaccent Germandbls Schwa T Tbar Tcaron Tcedilla Tcommaaccent U Uacute Ubreve Ucircumflex Udblgrave Udieresis Udotbelow Ugrave Uhookabove Uhorn Uhornacute Uhorndotbelow Uhorngrave Uhornhookabove Uhorntilde Uhungarumlaut Uinvertedbreve Umacron Uogonek Uring Utilde V W Wacute Wcircumflex Wdieresis Wgrave X Y Yacute Ycircumflex Ydieresis Ydotbelow Ygrave Yhookabove Ymacron Ytilde Z Zacute Zcaron Zdotaccent";
name = Uppercase;
}
);
copyright = "Copyright (c) 2010, 2011, 2013 by Daniel Johnson and Didact Gothic Project Authors";
customParameters = (
{
name = license;

glyphs = (
{
color = 5;
glyphname = A;
lastChange = "2016-10-12 22:01:31 +0000";
layers = (
{
anchors = (
{
name = bottom;
position = "{293, 0}";
},
{
name = ogonek;
position = "{526, 10}";
},
{
name = top;
position = "{293, 682}";
}
);
background = {
components = (
{
name = V;
transform = "{1, 0, 0, -1, 12, 682}";
}
);
};
layerId = "63224BA1-30A4-42F4-A6D1-9160F56B91B0";
paths = (
{
closed = 1;
nodes = (
"420 253 LINE",
"157 253 LINE",
"134 191 LINE",
"442 191 LINE"
);
},
{
closed = 1;
nodes = (
"503 0 LINE",
"573 0 LINE",
"324 682 LINE",
"254 682 LINE",
"12 0 LINE",
"87 0 LINE",
"155 206 LINE",
"168 238 LINE",
"303 626 LINE",
"273 626 LINE"
);
}
);
width = 585;
}
);
unicode = 0041;
},
{
color = 5;
glyphname = AE;
lastChange = "2016-10-12 22:01:31 +0000";
layers = (
{
anchors = (
{
name = bottom;
position = "{575, 0}";
},
{
name = top;
position = "{557, 682}";
}
);
background = {
components = (
{
name = A;
transform = "{1, 0, 0, 1, 42, 0}";
}
);
};
layerId = "63224BA1-30A4-42F4-A6D1-9160F56B91B0";
paths = (
{
closed = 1;
nodes = (
"398 562 LINE",
"398 253 LINE",
"191 253 LINE",
"157 198 LINE",
"398 198 LINE",
"398 0 LINE",
"783 0 LINE",
"783 62 LINE",
"472 62 LINE",
"472 340 LINE",
"712 340 LINE",
"712 401 LINE",
"472 401 LINE",
"472 619 LINE",
"780 619 LINE",
"780 682 LINE",
"398 682 LINE",
"398 680 LINE",
"0 0 LINE",
"70 0 LINE"
);
}
);
width = 822;
}
);
rightMetricsKey = E;
unicode = 00C6;
},
{
color = 5;
glyphname = B;
lastChange = "2016-10-12 22:01:31 +0000";
layers = (
{
anchors = (
{
name = bottom;
position = "{287, 0}";
},
{
name = top;
position = "{287, 682}";
}
);
background = {
paths = (
{
closed = 1;
nodes = (
"79 0 LINE",
"327 0 LINE SMOOTH",
"456 0 OFFCURVE",
"533 75 OFFCURVE",
"533 201 CURVE SMOOTH",
"533 327 OFFCURVE",
"454 401 OFFCURVE",
"319 401 CURVE SMOOTH",
"154 401 LINE",
"154 682 LINE",
"79 682 LINE"
);
},
{
closed = 1;
nodes = (
"154 339 LINE",
"317 339 LINE SMOOTH",
"403 339 OFFCURVE",
"454 288 OFFCURVE",
"454 201 CURVE SMOOTH",
"454 114 OFFCURVE",
"403 62 OFFCURVE",
"317 62 CURVE",
"154 62 LINE"
);
},
{
closed = 1;
nodes = (
"90 359 LINE",
"321 359 LINE SMOOTH",
"437 359 OFFCURVE",
"509 416 OFFCURVE",
"509 511 CURVE SMOOTH",
"509 618 OFFCURVE",
"436 682 OFFCURVE",
"314 682 CURVE SMOOTH",
"90 682 LINE"
);
},
{
closed = 1;
nodes = (
"154 619 LINE",
"313 619 LINE SMOOTH",
"386 619 OFFCURVE",
"430 579 OFFCURVE",
"430 511 CURVE SMOOTH",
"430 443 OFFCURVE",
"386 401 OFFCURVE",
"313 401 CURVE",
"154 401 LINE"
);
}
);
};
layerId = "63224BA1-30A4-42F4-A6D1-9160F56B91B0";
paths = (
{
closed = 1;
nodes = (
"459 380 OFFCURVE",
"499 431 OFFCURVE",
"499 508 CURVE SMOOTH",
"499 612 OFFCURVE",
"426 682 OFFCURVE",
"304 682 CURVE SMOOTH",
"79 682 LINE",
"79 0 LINE",
"327 0 LINE SMOOTH",
"456 0 OFFCURVE",
"533 75 OFFCURVE",
"533 196 CURVE SMOOTH",
"533 299 OFFCURVE",
"478 357 OFFCURVE",
"389 371 CURVE",
"390 360 LINE"
);
},
{
closed = 1;
nodes = (
"303 619 LINE SMOOTH",
"376 619 OFFCURVE",
"420 579 OFFCURVE",
"420 508 CURVE SMOOTH",
"420 433 OFFCURVE",
"386 391 OFFCURVE",
"313 391 CURVE SMOOTH",
"154 391 LINE",
"154 619 LINE"
);
},
{
closed = 1;
nodes = (
"154 62 LINE",
"154 329 LINE",
"317 329 LINE SMOOTH",
"403 329 OFFCURVE",
"454 278 OFFCURVE",
"454 196 CURVE SMOOTH",
"454 114 OFFCURVE",
"403 62 OFFCURVE",
"317 62 CURVE SMOOTH"
);
}
);
width = 574;
}
);
unicode = 0042;
},
{
color = 5;
glyphname = C;
lastChange = "2016-10-12 22:01:31 +0000";
layers = (
{
anchors = (
{
name = bottom;
position = "{333, 0}";
},
{
name = top;
position = "{327, 682}";
}
);
background = {
components = (
{
name = O;
transform = "{1, 0, 0, 1, -1, 0}";
}
);
};
layerId = "63224BA1-30A4-42F4-A6D1-9160F56B91B0";
paths = (
{
closed = 1;
nodes = (
"507 182 LINE",
"467 103 OFFCURVE",
"425 52 OFFCURVE",
"323 52 CURVE SMOOTH",
"208 52 OFFCURVE",
"134 160 OFFCURVE",
"134 340 CURVE SMOOTH",
"134 522 OFFCURVE",
"205 629 OFFCURVE",
"324 629 CURVE SMOOTH",
"405 629 OFFCURVE",
"460 599 OFFCURVE",
"504 519 CURVE",
"564 554 LINE",
"520 643 OFFCURVE",
"439 697 OFFCURVE",
"324 697 CURVE SMOOTH",
"157 697 OFFCURVE",
"55 564 OFFCURVE",
"55 339 CURVE SMOOTH",
"55 116 OFFCURVE",
"160 -16 OFFCURVE",
"333 -16 CURVE SMOOTH",
"445 -16 OFFCURVE",
"523 43 OFFCURVE",
"570 144 CURVE"
);
}
);
width = 605;
}
);
leftMetricsKey = O;
unicode = 0043;
},
{
color = 5;
glyphname = D;
lastChange = "2016-10-12 22:01:31 +0000";
layers = (
{
anchors = (
{
name = bottom;
position = "{301, 0}";
},
{
name = center;
position = "{141, 341}";
},
{
name = top;
position = "{241, 682}";
}
);
layerId = "63224BA1-30A4-42F4-A6D1-9160F56B91B0";
paths = (
{
closed = 1;
nodes = (
"249 0 LINE",
"461 0 OFFCURVE",
"586 126 OFFCURVE",
"586 340 CURVE SMOOTH",
"586 555 OFFCURVE",
"461 682 OFFCURVE",
"249 682 CURVE SMOOTH",
"80 682 LINE",
"80 0 LINE"
);
},
{
closed = 1;
nodes = (
"247 613 LINE SMOOTH",
"403 613 OFFCURVE",
"507 532 OFFCURVE",
"507 340 CURVE SMOOTH",
"507 149 OFFCURVE",
"403 68 OFFCURVE",
"247 68 CURVE SMOOTH",
"155 68 LINE",
"155 613 LINE"
);
}
);
width = 641;
}
);
leftMetricsKey = H;
rightMetricsKey = O;
unicode = 0044;
},
{
color = 5;
glyphname = E;
lastChange = "2016-10-12 22:01:31 +0000";
layers = (
{
anchors = (
{
name = bottom;
position = "{272, 0}";
},
{
name = ogonek;
position = "{434, 0}";
},
{
name = top;
position = "{282, 682}";
},
{
name = topleft;
position = "{20, 682}";
}
);
layerId = "63224BA1-30A4-42F4-A6D1-9160F56B91B0";
paths = (
{
closed = 1;
nodes = (
"464 0 LINE",
"464 62 LINE",
"154 62 LINE",
"154 320 LINE",
"394 320 LINE",
"394 381 LINE",
"154 381 LINE",
"154 619 LINE",
"461 619 LINE",
"461 682 LINE",
"79 682 LINE",
"79 0 LINE"
);
}
);
width = 503;
}
);
unicode = 0045;
},
{
color = 5;
glyphname = F;
lastChange = "2016-10-12 22:01:31 +0000";
layers = (
{
anchors = (
{
name = bottom;
position = "{120, 0}";
},
{
name = top;
position = "{276, 682}";
}
);
background = {
paths = (
{
closed = 1;
nodes = (
"464 0 LINE",
"464 62 LINE",
"154 62 LINE",
"154 320 LINE",
"394 320 LINE",
"394 381 LINE",
"154 381 LINE",
"154 619 LINE",
"461 619 LINE",
"461 682 LINE",
"79 682 LINE",
"79 0 LINE"
);
}
);
};
layerId = "63224BA1-30A4-42F4-A6D1-9160F56B91B0";
paths = (
{
closed = 1;
nodes = (
"154 0 LINE",
"154 320 LINE",
"374 320 LINE",
"374 381 LINE",
"154 381 LINE",
"154 619 LINE",
"451 619 LINE",
"451 682 LINE",
"79 682 LINE",
"79 0 LINE"
);
}
);
width = 451;
}
);
unicode = 0046;
},
{
color = 5;
glyphname = G;
lastChange = "2016-10-12 22:01:31 +0000";
layers = (
{
anchors = (
{
name = bottom;
position = "{303, 0}";
},
{
name = top;
position = "{303, 682}";
}
);
background = {
components = (
{
name = C;
transform = "{1, 0, 0, 1, -26, 0}";
}
);
paths = (
{
closed = 1;
nodes = (
"473 -16 OFFCURVE",
"564 76 OFFCURVE",
"564 291 CURVE SMOOTH",
"564 353 LINE",
"329 353 LINE",
"329 291 LINE",
"490 291 LINE",
"490 190 OFFCURVE",
"473 125 OFFCURVE",
"436 93 CURVE SMOOTH",
"400 61 OFFCURVE",
"365 52 OFFCURVE",
"305 52 CURVE",
"305 -16 LINE"
);
}
);
};
layerId = "63224BA1-30A4-42F4-A6D1-9160F56B91B0";
paths = (
{
closed = 1;
nodes = (
"329 271 LINE",
"490 271 LINE",
"490 125 OFFCURVE",
"408 52 OFFCURVE",
"307 52 CURVE SMOOTH",
"183 52 OFFCURVE",
"108 160 OFFCURVE",
"108 340 CURVE SMOOTH",
"108 522 OFFCURVE",
"182 629 OFFCURVE",
"307 629 CURVE SMOOTH",
"378 629 OFFCURVE",
"439 595 OFFCURVE",
"483 515 CURVE",
"542 557 LINE",
"489 645 OFFCURVE",
"416 697 OFFCURVE",
"307 697 CURVE SMOOTH",
"134 697 OFFCURVE",
"29 564 OFFCURVE",
"29 339 CURVE SMOOTH",
"29 116 OFFCURVE",
"134 -16 OFFCURVE",
"307 -16 CURVE SMOOTH",
"453 -16 OFFCURVE",
"564 80 OFFCURVE",
"564 271 CURVE SMOOTH",
"564 333 LINE",
"329 333 LINE"
);
}
);
width = 606;
}
);
unicode = 0047;
},
{
color = 5;
glyphname = H;
lastChange = "2016-10-12 22:01:31 +0000";
layers = (
{
anchors = (
{
name = bottom;
position = "{335, 0}";
},
{
name = center;
position = "{335, 341}";
},
{
name = top;
position = "{335, 682}";
},
{
name = topleft;
position = "{20, 682}";
}
);
background = {
paths = (
{
closed = 1;
nodes = (
"102 509 OFFCURVE",
"191 629 OFFCURVE",
"316 629 CURVE SMOOTH",
"441 629 OFFCURVE",
"530 509 OFFCURVE",
"530 340 CURVE SMOOTH",
"530 172 OFFCURVE",
"441 53 OFFCURVE",
"316 53 CURVE SMOOTH",
"191 53 OFFCURVE",
"102 172 OFFCURVE",
"102 340 CURVE SMOOTH"
);
},
{
closed = 1;
nodes = (
"23 131 OFFCURVE",
"144 -16 OFFCURVE",
"316 -16 CURVE SMOOTH",
"488 -16 OFFCURVE",
"609 131 OFFCURVE",
"609 339 CURVE SMOOTH",
"609 549 OFFCURVE",
"488 697 OFFCURVE",
"316 697 CURVE SMOOTH",
"144 697 OFFCURVE",
"23 549 OFFCURVE",
"23 340 CURVE SMOOTH"
);
}
);
};
layerId = "63224BA1-30A4-42F4-A6D1-9160F56B91B0";
paths = (
{
closed = 1;
nodes = (
"155 0 LINE",
"155 325 LINE",
"515 325 LINE",
"515 0 LINE",
"590 0 LINE",
"590 682 LINE",
"515 682 LINE",
"515 387 LINE",
"155 387 LINE",
"155 682 LINE",
"80 682 LINE",
"80 0 LINE"
);
}
);
width = 670;
}
);
unicode = 0048;
},
{
color = 5;
glyphname = Hbar;
lastChange = "2016-10-12 22:01:31 +0000";
layers = (
{
background = {
components = (
{
name = H;
transform = "{1, 0, 0, 1, 40, 0}";
}
);
paths = (
{
closed = 1;
nodes = (
"80 524 LINE",
"670 524 LINE",
"670 572 LINE",
"80 572 LINE"
);
}
);
};
components = (
{
name = H;
transform = "{1, 0, 0, 1, 40, 0}";
}
);
layerId = "63224BA1-30A4-42F4-A6D1-9160F56B91B0";
paths = (
{
closed = 1;
nodes = (
"80 524 LINE",
"670 524 LINE",
"670 572 LINE",
"80 572 LINE"
);
}
);
width = 750;
}
);
leftMetricsKey = H;
rightMetricsKey = H;
unicode = 0126;
},
{
color = 5;
glyphname = I;
lastChange = "2016-10-12 22:01:31 +0000";
layers = (
{
anchors = (
{
name = bottom;
position = "{159, 0}";
},
{
name = ogonek;
position = "{232, 24}";
},
{
name = top;
position = "{159, 682}";
},
{
name = topleft;
position = "{55, 682}";
}
);
layerId = "63224BA1-30A4-42F4-A6D1-9160F56B91B0";
paths = (
{
closed = 1;
nodes = (
"262 616 LINE",
"262 682 LINE",
"55 682 LINE",
"55 616 LINE",
"121 616 LINE",
"121 66 LINE",
"55 66 LINE",
"55 0 LINE",
"262 0 LINE",
"262 66 LINE",
"196 66 LINE",
"196 616 LINE"
);
}
);
width = 317;
}
);
unicode = 0049;
},
{
color = 5;
glyphname = J;
lastChange = "2016-10-12 22:01:31 +0000";
layers = (
{
anchors = (
{
name = bottom;
position = "{248, 0}";
},
{
name = top;
position = "{379, 682}";
}
);
layerId = "63224BA1-30A4-42F4-A6D1-9160F56B91B0";
paths = (
{
closed = 1;
nodes = (
"12 127 LINE",
"49 37 OFFCURVE",
"121 -16 OFFCURVE",
"215 -16 CURVE SMOOTH",
"338 -16 OFFCURVE",
"416 66 OFFCURVE",
"416 205 CURVE SMOOTH",
"416 682 LINE",
"341 682 LINE",
"341 205 LINE SMOOTH",
"341 110 OFFCURVE",
"298 54 OFFCURVE",
"211 54 CURVE SMOOTH",
"151 54 OFFCURVE",
"95 92 OFFCURVE",
"75 157 CURVE"
);
}
);
width = 496;
}
);
unicode = 004A;
},
{
color = 5;
glyphname = K;
lastChange = "2016-10-12 22:01:31 +0000";
layers = (
{
anchors = (
{
name = bottom;
position = "{273, 0}";
},
{
name = top;
position = "{273, 682}";
}
);
layerId = "63224BA1-30A4-42F4-A6D1-9160F56B91B0";
paths = (
{
closed = 1;
nodes = (
"209 351 LINE",
"460 0 LINE",
"545 0 LINE",
"261 392 LINE"
);
},
{
closed = 1;
nodes = (
"154 682 LINE",
"79 682 LINE",
"79 0 LINE",
"154 0 LINE"
);
},
{
closed = 1;
nodes = (
"525 682 LINE",
"442 682 LINE",
"144 325 LINE",
"144 231 LINE"
);
}
);
width = 545;
}
);
unicode = 004B;
},
{
color = 5;
glyphname = L;
lastChange = "2016-10-12 22:01:31 +0000";
layers = (
{
anchors = (
{
name = bottom;
position = "{238, 0}";
},
{
name = center;
position = "{143, 287}";
},
{
name = top;
position = "{120, 682}";
},
{
name = topright;
position = "{264, 432}";
}
);
layerId = "63224BA1-30A4-42F4-A6D1-9160F56B91B0";
paths = (
{
closed = 1;
nodes = (
"461 0 LINE",
"461 62 LINE",
"154 62 LINE",
"154 682 LINE",
"79 682 LINE",
"79 0 LINE"
);
}
);
width = 476;
}
);
unicode = 004C;
},
{
color = 5;
glyphname = M;
lastChange = "2016-10-12 22:01:31 +0000";
layers = (
{
anchors = (
{
name = bottom;
position = "{413, 0}";
},
{
name = top;
position = "{413, 682}";
}
);
background = {
paths = (
{
closed = 1;
nodes = (
"687 682 LINE",
"614 682 LINE",
"400 56 LINE",
"418 56 LINE",
"207 682 LINE",
"132 682 LINE",
"369 0 LINE",
"449 0 LINE"
);
}
);
};
layerId = "63224BA1-30A4-42F4-A6D1-9160F56B91B0";
paths = (
{
closed = 1;
nodes = (
"155 0 LINE",
"155 588 LINE",
"138 585 LINE",
"373 0 LINE",
"443 0 LINE",
"688 586 LINE",
"671 589 LINE",
"671 0 LINE",
"745 0 LINE",
"745 682 LINE",
"661 682 LINE",
"398 52 LINE",
"424 52 LINE",
"172 682 LINE",
"80 682 LINE",
"80 0 LINE"
);
}
);
width = 825;
}
);
leftMetricsKey = H;
rightMetricsKey = H;
unicode = 004D;
},
{
color = 5;
glyphname = N;
lastChange = "2016-10-12 22:01:31 +0000";
layers = (
{
anchors = (
{
name = bottom;
position = "{315, 0}";
},
{
name = top;
position = "{315, 682}";
}
);
background = {
paths = (
{
closed = 1;
nodes = (
"155 0 LINE",
"155 325 LINE",
"515 325 LINE",
"515 0 LINE",
"590 0 LINE",
"590 682 LINE",
"515 682 LINE",
"515 387 LINE",
"155 387 LINE",
"155 682 LINE",
"80 682 LINE",
"80 0 LINE"
);
}
);
};
layerId = "63224BA1-30A4-42F4-A6D1-9160F56B91B0";
paths = (
{
closed = 1;
nodes = (
"154 0 LINE",
"154 567 LINE",
"501 0 LINE",
"581 0 LINE",
"581 682 LINE",
"506 682 LINE",
"506 113 LINE",
"159 682 LINE",
"79 682 LINE",
"79 0 LINE"
);
}
);
width = 629;
}
);
unicode = 004E;
},
{
color = 5;
glyphname = Eng;
lastChange = "2016-10-12 22:01:31 +0000";
layers = (
{
background = {
paths = (
{
closed = 1;
nodes = (
"502 18 LINE",
"502 -73 OFFCURVE",
"449 -138 OFFCURVE",
"375 -138 CURVE SMOOTH",
"311 -138 LINE",
"311 -200 LINE",
"375 -200 LINE SMOOTH",
"496 -200 OFFCURVE",
"581 -110 OFFCURVE",
"581 18 CURVE"
);
}
);
};
guideLines = (
{
angle = 90;
position = "{581, 129}";
},
{
angle = 90;
position = "{506, 129}";
}
);
layerId = "63224BA1-30A4-42F4-A6D1-9160F56B91B0";
paths = (
{
closed = 1;
nodes = (
"506 113 LINE",
"159 682 LINE",
"79 682 LINE",
"79 0 LINE",
"154 0 LINE",
"154 567 LINE",
"504 -6 LINE",
"495 -78 OFFCURVE",
"442 -128 OFFCURVE",
"375 -128 CURVE SMOOTH",
"311 -128 LINE",
"311 -200 LINE",
"375 -200 LINE SMOOTH",
"490 -200 OFFCURVE",
"573 -118 OFFCURVE",
"580 0 CURVE",
"581 0 LINE",
"581 682 LINE",
"506 682 LINE"
);
}
);
width = 629;
},
{
associatedMasterId = "63224BA1-30A4-42F4-A6D1-9160F56B91B0";
layerId = "772F215E-C05D-467A-B3BE-41449684BBCF";
name = "Oct 11 16, 16:32";
paths = (
{
closed = 1;
nodes = (
"159 682 LINE",
"79 682 LINE",
"79 0 LINE",
"159 0 LINE",
"159 534 LINE",
"196 597 OFFCURVE",
"251 629 OFFCURVE",
"324 629 CURVE SMOOTH",
"437 629 OFFCURVE",
"489 535 OFFCURVE",
"489 398 CURVE SMOOTH",
"489 305 LINE SMOOTH",
"489 241 OFFCURVE",
"479 185 OFFCURVE",
"458 136 CURVE SMOOTH",
"437 87 OFFCURVE",
"399 54 OFFCURVE",
"350 54 CURVE SMOOTH",
"322 54 LINE",
"322 0 LINE",
"350 0 LINE SMOOTH",
"399 0 OFFCURVE",
"441 14 OFFCURVE",
"475 43 CURVE SMOOTH",
"537 95 OFFCURVE",
"568 182 OFFCURVE",
"568 305 CURVE SMOOTH",
"568 398 LINE SMOOTH",
"568 489 OFFCURVE",
"547 562 OFFCURVE",
"506 616 CURVE SMOOTH",
"465 670 OFFCURVE",
"405 697 OFFCURVE",
"324 697 CURVE SMOOTH",
"262 697 OFFCURVE",
"207 674 OFFCURVE",
"159 629 CURVE"
);
}
);
width = 620;
}
);
unicode = 014A;
},
{
color = 5;
glyphname = O;
lastChange = "2016-10-12 22:01:31 +0000";
layers = (
{
anchors = (
{
name = bottom;
position = "{348, 0}";
},
{
name = center;
position = "{348, 341}";
},
{
name = ogonek;
position = "{626, 10}";
},
{
name = top;
position = "{348, 682}";
},
{
name = topleft;
position = "{20, 682}";
},
{
name = topright;
position = "{676, 682}";
}
);
layerId = "63224BA1-30A4-42F4-A6D1-9160F56B91B0";
paths = (
{
closed = 1;
nodes = (
"134 509 OFFCURVE",
"223 629 OFFCURVE",
"348 629 CURVE SMOOTH",
"473 629 OFFCURVE",
"562 509 OFFCURVE",
"562 340 CURVE SMOOTH",
"562 172 OFFCURVE",
"473 53 OFFCURVE",
"348 53 CURVE SMOOTH",
"223 53 OFFCURVE",
"134 172 OFFCURVE",
"134 340 CURVE SMOOTH"
);
},
{
closed = 1;
nodes = (
"55 131 OFFCURVE",
"176 -16 OFFCURVE",
"348 -16 CURVE SMOOTH",
"520 -16 OFFCURVE",
"641 131 OFFCURVE",
"641 339 CURVE SMOOTH",
"641 549 OFFCURVE",
"520 697 OFFCURVE",
"348 697 CURVE SMOOTH",
"176 697 OFFCURVE",
"55 549 OFFCURVE",
"55 340 CURVE SMOOTH"
);
}
);
width = 696;
}
);
unicode = 004F;
},
{
color = 5;
glyphname = Oslash;
lastChange = "2016-10-12 22:01:32 +0000";
layers = (
{
background = {
anchors = (
{
name = bottom;
position = "{348, 0}";
},
{
name = center;
position = "{348, 341}";
},
{
name = ogonek;
position = "{626, 10}";
},
{
name = top;
position = "{348, 682}";
},
{
name = topleft;
position = "{20, 682}";
},
{
name = topright;
position = "{676, 682}";
}
);
components = (
{
name = O;
},
{
name = slashlongcomb;
}
);
};
components = (
{
name = O;
}
);
layerId = "63224BA1-30A4-42F4-A6D1-9160F56B91B0";
paths = (
{
closed = 1;
nodes = (
"493 743 LINE",
"124 -39 LINE",
"173 -63 LINE",
"545 720 LINE"
);
}
);
width = 696;
}
);
leftMetricsKey = O;
rightMetricsKey = O;
unicode = 00D8;
},
{
color = 5;
glyphname = OE;
lastChange = "2016-10-12 22:01:32 +0000";
layers = (
{
background = {
anchors = (
{
name = bottom;
position = "{1072, 0}";
},
{
name = center;
position = "{348, 341}";
},
{
name = ogonek;
position = "{1234, 0}";
},
{
name = top;
position = "{1082, 682}";
},
{
name = topleft;
position = "{820, 682}";
},
{
name = topright;
position = "{676, 682}";
}
);
paths = (
{
closed = 1;
nodes = (
"436 75 LINE",
"410 61 OFFCURVE",
"380 53 OFFCURVE",
"348 53 CURVE SMOOTH",
"223 53 OFFCURVE",
"134 172 OFFCURVE",
"134 340 CURVE SMOOTH",
"134 509 OFFCURVE",
"223 629 OFFCURVE",
"348 629 CURVE SMOOTH",
"385 629 OFFCURVE",
"419 618 OFFCURVE",
"448 599 CURVE",
"494 655 LINE",
"452 682 OFFCURVE",
"403 697 OFFCURVE",
"348 697 CURVE SMOOTH",
"176 697 OFFCURVE",
"55 549 OFFCURVE",
"55 340 CURVE SMOOTH",
"55 131 OFFCURVE",
"176 -16 OFFCURVE",
"348 -16 CURVE SMOOTH",
"393 -16 OFFCURVE",
"435 -6 OFFCURVE",
"471 13 CURVE"
);
},
{
closed = 1;
nodes = (
"791 0 LINE",
"791 62 LINE",
"481 62 LINE",
"481 320 LINE",
"721 320 LINE",
"721 381 LINE",
"481 381 LINE",
"481 619 LINE",
"788 619 LINE",
"788 682 LINE",
"406 682 LINE",
"406 0 LINE"
);
}
);
};
layerId = "63224BA1-30A4-42F4-A6D1-9160F56B91B0";
paths = (
{
closed = 1;
nodes = (
"436 75 LINE",
"410 61 OFFCURVE",
"380 53 OFFCURVE",
"348 53 CURVE SMOOTH",
"223 53 OFFCURVE",
"134 172 OFFCURVE",
"134 340 CURVE SMOOTH",
"134 509 OFFCURVE",
"223 629 OFFCURVE",
"348 629 CURVE SMOOTH",
"385 629 OFFCURVE",
"419 618 OFFCURVE",
"448 599 CURVE",
"494 655 LINE",
"452 682 OFFCURVE",
"403 697 OFFCURVE",
"348 697 CURVE SMOOTH",
"176 697 OFFCURVE",
"55 549 OFFCURVE",
"55 340 CURVE SMOOTH",
"55 131 OFFCURVE",
"176 -16 OFFCURVE",
"348 -16 CURVE SMOOTH",
"393 -16 OFFCURVE",
"435 -6 OFFCURVE",
"471 13 CURVE"
);
},
{
closed = 1;
nodes = (
"791 0 LINE",
"791 62 LINE",
"481 62 LINE",
"481 320 LINE",
"721 320 LINE",
"721 381 LINE",
"481 381 LINE",
"481 619 LINE",
"788 619 LINE",
"788 682 LINE",
"406 682 LINE",
"406 0 LINE"
);
}
);
width = 830;
}
);
leftMetricsKey = O;
rightMetricsKey = E;
unicode = 0152;
},
{
color = 5;
glyphname = P;
lastChange = "2016-10-12 22:01:32 +0000";
layers = (
{
anchors = (
{
name = bottom;
position = "{268, 0}";
},
{
name = top;
position = "{268, 682}";
}
);
background = {
components = (
{
name = O;
transform = "{1, 0, 0, 1, -94, 141}";
}
);
};
layerId = "63224BA1-30A4-42F4-A6D1-9160F56B91B0";
paths = (
{
closed = 1;
nodes = (
"155 0 LINE",
"155 261 LINE",
"300 261 LINE SMOOTH",
"425 261 OFFCURVE",
"510 338 OFFCURVE",
"510 471 CURVE SMOOTH",
"510 605 OFFCURVE",
"429 682 OFFCURVE",
"308 682 CURVE SMOOTH",
"80 682 LINE",
"80 0 LINE"
);
},
{
closed = 1;
nodes = (
"298 620 LINE",
"388 620 OFFCURVE",
"435 568 OFFCURVE",
"435 471 CURVE SMOOTH",
"435 374 OFFCURVE",
"388 323 OFFCURVE",
"298 323 CURVE SMOOTH",
"155 323 LINE",
"155 620 LINE"
);
}
);
width = 535;
}
);
leftMetricsKey = H;
unicode = 0050;
},
{
color = 5;
glyphname = Thorn;
lastChange = "2016-10-12 22:01:32 +0000";
layers = (
{
background = {
paths = (
{
closed = 1;
nodes = (
"156 0 LINE",
"156 161 LINE",
"301 161 LINE SMOOTH",
"426 161 OFFCURVE",
"511 238 OFFCURVE",
"511 371 CURVE SMOOTH",
"511 505 OFFCURVE",
"430 582 OFFCURVE",
"309 582 CURVE SMOOTH",
"81 582 LINE",
"81 0 LINE"
);
},
{
closed = 1;
nodes = (
"299 520 LINE",
"389 520 OFFCURVE",
"436 468 OFFCURVE",
"436 371 CURVE SMOOTH",
"436 274 OFFCURVE",
"389 223 OFFCURVE",
"299 223 CURVE SMOOTH",
"156 223 LINE",
"156 520 LINE"
);
}
);
};
layerId = "63224BA1-30A4-42F4-A6D1-9160F56B91B0";
paths = (
{
closed = 1;
nodes = (
"155 582 LINE",
"155 682 LINE",
"80 682 LINE",
"80 0 LINE",
"156 0 LINE",
"156 181 LINE",
"291 181 LINE SMOOTH",
"416 181 OFFCURVE",
"501 255 OFFCURVE",
"501 381 CURVE SMOOTH",
"501 508 OFFCURVE",
"420 582 OFFCURVE",
"299 582 CURVE SMOOTH"
);
},
{
closed = 1;
nodes = (
"156 243 LINE",
"156 520 LINE",
"289 520 LINE SMOOTH",
"379 520 OFFCURVE",
"426 472 OFFCURVE",
"426 381 CURVE SMOOTH",
"426 290 OFFCURVE",
"379 243 OFFCURVE",
"289 243 CURVE SMOOTH"
);
}
);
width = 526;
}
);
leftMetricsKey = H;
rightMetricsKey = P;
unicode = 00DE;
},
{
color = 5;
glyphname = Q;
lastChange = "2016-10-12 22:01:32 +0000";
layers = (
{
anchors = (
{
name = bottom;
position = "{335, 0}";
},
{
name = top;
position = "{335, 682}";
}
);
background = {
paths = (
{
closed = 1;
nodes = (
"455 103 LINE",
"421 70 OFFCURVE",
"381 53 OFFCURVE",
"335 53 CURVE SMOOTH",
"276 53 OFFCURVE",
"225 82 OFFCURVE",
"183 139 CURVE",
"142 197 OFFCURVE",
"121 264 OFFCURVE",
"121 340 CURVE SMOOTH",
"121 417 OFFCURVE",
"142 484 OFFCURVE",
"183 542 CURVE SMOOTH",
"225 600 OFFCURVE",
"276 629 OFFCURVE",
"335 629 CURVE SMOOTH",
"394 629 OFFCURVE",
"445 600 OFFCURVE",
"486 542 CURVE SMOOTH",
"528 484 OFFCURVE",
"549 417 OFFCURVE",
"549 340 CURVE SMOOTH",
"549 255 OFFCURVE",
"525 183 OFFCURVE",
"475 125 CURVE",
"525 74 LINE",
"593 147 OFFCURVE",
"628 236 OFFCURVE",
"628 340 CURVE SMOOTH",
"628 435 OFFCURVE",
"598 519 OFFCURVE",
"539 590 CURVE SMOOTH",
"480 661 OFFCURVE",
"412 697 OFFCURVE",
"335 697 CURVE SMOOTH",
"258 697 OFFCURVE",
"189 661 OFFCURVE",
"130 590 CURVE SMOOTH",
"71 519 OFFCURVE",
"42 435 OFFCURVE",
"42 340 CURVE SMOOTH",
"42 244 OFFCURVE",
"71 161 OFFCURVE",
"130 90 CURVE SMOOTH",
"189 19 OFFCURVE",
"258 -16 OFFCURVE",
"335 -16 CURVE SMOOTH",
"396 -16 OFFCURVE",
"453 8 OFFCURVE",
"504 55 CURVE"
);
},
{
closed = 1;
nodes = (
"564 -29 LINE",
"608 14 LINE",
"525 97 LINE",
"496 126 LINE",
"410 211 LINE",
"366 167 LINE"
);
}
);
};
components = (
{
name = O;
}
);
layerId = "63224BA1-30A4-42F4-A6D1-9160F56B91B0";
paths = (
{
closed = 1;
nodes = (
"564 -29 LINE",
"608 14 LINE",
"410 211 LINE",
"366 167 LINE"
);
}
);
width = 670;
}
);
unicode = 0051;
},
{
color = 5;
glyphname = R;
lastChange = "2016-10-12 22:01:32 +0000";
layers = (
{
anchors = (
{
name = bottom;
position = "{290, 0}";
},
{
name = top;
position = "{290, 682}";
}
);
background = {
components = (
{
name = P;
}
);
};
layerId = "63224BA1-30A4-42F4-A6D1-9160F56B91B0";
paths = (
{
closed = 1;
nodes = (
"278 320 LINE",
"462 0 LINE",
"541 0 LINE",
"351 330 LINE"
);
},
{
closed = 1;
nodes = (
"154 0 LINE",
"154 301 LINE",
"299 301 LINE SMOOTH",
"424 301 OFFCURVE",
"513 380 OFFCURVE",
"513 491 CURVE SMOOTH",
"513 603 OFFCURVE",
"434 682 OFFCURVE",
"307 682 CURVE SMOOTH",
"79 682 LINE",
"79 0 LINE"
);
},
{
closed = 1;
nodes = (
"297 620 LINE",
"387 620 OFFCURVE",
"434 566 OFFCURVE",
"434 491 CURVE SMOOTH",
"434 416 OFFCURVE",
"387 363 OFFCURVE",
"297 363 CURVE SMOOTH",
"154 363 LINE",
"154 620 LINE"
);
}
);
width = 580;
}
);
unicode = 0052;
},
{
color = 5;
glyphname = S;
lastChange = "2016-10-12 22:01:32 +0000";
layers = (
{
anchors = (
{
name = bottom;
position = "{292, 0}";
},
{
name = top;
position = "{292, 682}";
}
);
background = {
paths = (
{
closed = 1;
nodes = (
"361 291 OFFCURVE",
"402 274 OFFCURVE",
"426 256 CURVE SMOOTH",
"450 238 OFFCURVE",
"462 209 OFFCURVE",
"462 170 CURVE SMOOTH",
"462 89 OFFCURVE",
"407 53 OFFCURVE",
"287 53 CURVE SMOOTH",
"220 53 OFFCURVE",
"154 99 OFFCURVE",
"114 167 CURVE",
"55 125 LINE",
"110 40 OFFCURVE",
"198 -16 OFFCURVE",
"287 -16 CURVE SMOOTH",
"443 -16 OFFCURVE",
"538 50 OFFCURVE",
"538 170 CURVE SMOOTH",
"538 242 OFFCURVE",
"508 295 OFFCURVE",
"449 329 CURVE SMOOTH",
"429 341 OFFCURVE",
"385 358 OFFCURVE",
"318 381 CURVE SMOOTH",
"311 384 OFFCURVE",
"298 388 OFFCURVE",
"280 393 CURVE SMOOTH",
"262 398 OFFCURVE",
"249 402 OFFCURVE",
"241 405 CURVE SMOOTH",
"233 408 OFFCURVE",
"222 413 OFFCURVE",
"209 420 CURVE SMOOTH",
"172 440 OFFCURVE",
"161 461 OFFCURVE",
"157 512 CURVE",
"157 592 OFFCURVE",
"199 629 OFFCURVE",
"300 629 CURVE SMOOTH",
"361 629 OFFCURVE",
"415 597 OFFCURVE",
"462 533 CURVE",
"518 580 LINE",
"458 658 OFFCURVE",
"385 697 OFFCURVE",
"300 697 CURVE SMOOTH",
"161 697 OFFCURVE",
"81 632 OFFCURVE",
"81 512 CURVE SMOOTH",
"81 403 OFFCURVE",
"158 346 OFFCURVE",
"302 307 CURVE SMOOTH"
);
}
);
};
layerId = "63224BA1-30A4-42F4-A6D1-9160F56B91B0";
paths = (
{
closed = 1;
nodes = (
"402 287 OFFCURVE",
"462 254 OFFCURVE",
"462 170 CURVE SMOOTH",
"462 99 OFFCURVE",
"413 53 OFFCURVE",
"317 53 CURVE SMOOTH",
"228 53 OFFCURVE",
"151 103 OFFCURVE",
"104 177 CURVE",
"43 123 LINE",
"105 38 OFFCURVE",
"206 -16 OFFCURVE",
"307 -16 CURVE SMOOTH",
"450 -16 OFFCURVE",
"538 60 OFFCURVE",
"538 170 CURVE SMOOTH",
"538 299 OFFCURVE",
"441 352 OFFCURVE",
"319 385 CURVE SMOOTH",
"202 413 OFFCURVE",
"157 449 OFFCURVE",
"157 519 CURVE SMOOTH",
"157 588 OFFCURVE",
"217 629 OFFCURVE",
"300 629 CURVE SMOOTH",
"381 629 OFFCURVE",
"435 597 OFFCURVE",
"482 533 CURVE",
"541 583 LINE",
"478 661 OFFCURVE",
"399 697 OFFCURVE",
"300 697 CURVE SMOOTH",
"164 697 OFFCURVE",
"81 632 OFFCURVE",
"81 512 CURVE SMOOTH",
"81 403 OFFCURVE",
"174 346 OFFCURVE",
"297 316 CURVE SMOOTH"
);
}
);
width = 583;
}
);
unicode = 0053;
},
{
color = 5;
glyphname = Germandbls;
lastChange = "2016-10-12 22:01:32 +0000";
layers = (
{
background = {
components = (
{
name = B;
transform = "{1, 0, 0, 1, 1, 0}";
}
);
};
guideLines = (
{
position = "{307, 374}";
},
{
position = "{307, 335}";
},
{
angle = 90;
position = "{273, 396}";
}
);
layerId = "63224BA1-30A4-42F4-A6D1-9160F56B91B0";
paths = (
{
closed = 1;
nodes = (
"539 346 OFFCURVE",
"453 424 OFFCURVE",
"283 424 CURVE",
"283 375 LINE",
"412 375 OFFCURVE",
"460 314 OFFCURVE",
"460 210 CURVE SMOOTH",
"460 122 OFFCURVE",
"410 61 OFFCURVE",
"319 61 CURVE SMOOTH",
"297 61 OFFCURVE",
"272 65 OFFCURVE",
"245 73 CURVE",
"231 7 LINE",
"263 -1 OFFCURVE",
"292 -5 OFFCURVE",
"320 -5 CURVE SMOOTH",
"454 -5 OFFCURVE",
"539 82 OFFCURVE",
"539 210 CURVE SMOOTH"
);
},
{
closed = 1;
nodes = (
"324 388 LINE",
"476 547 LINE",
"476 628 OFFCURVE",
"396 698 OFFCURVE",
"278 698 CURVE SMOOTH",
"157 698 OFFCURVE",
"80 618 OFFCURVE",
"80 483 CURVE SMOOTH",
"80 0 LINE",
"155 0 LINE",
"155 483 LINE SMOOTH",
"155 581 OFFCURVE",
"193 630 OFFCURVE",
"278 630 CURVE SMOOTH",
"354 630 OFFCURVE",
"398 590 OFFCURVE",
"398 547 CURVE",
"283 424 LINE"
);
}
);
width = 584;
}
);
leftMetricsKey = H;
unicode = 1E9E;
},
{
color = 5;
glyphname = T;
lastChange = "2016-10-12 22:01:32 +0000";
layers = (
{
anchors = (
{
name = bottom;
position = "{267, 0}";
},
{
name = center;
position = "{267, 341}";
},
{
name = top;
position = "{267, 682}";
}
);
layerId = "63224BA1-30A4-42F4-A6D1-9160F56B91B0";
paths = (
{
closed = 1;
nodes = (
"230 620 LINE",
"230 0 LINE",
"304 0 LINE",
"304 620 LINE",
"519 620 LINE",
"519 682 LINE",
"15 682 LINE",
"15 620 LINE"
);
}
);
width = 534;
}
);
unicode = 0054;
},
{
color = 5;
glyphname = Tbar;
lastChange = "2016-10-12 22:01:32 +0000";
layers = (
{
components = (
{
name = T;
}
);
layerId = "63224BA1-30A4-42F4-A6D1-9160F56B91B0";
paths = (
{
closed = 1;
nodes = (
"116 357 LINE",
"418 357 LINE",
"418 405 LINE",
"116 405 LINE"
);
}
);
width = 534;
}
);
unicode = 0166;
},
{
color = 5;
glyphname = U;
lastChange = "2016-10-12 22:01:32 +0000";
layers = (
{
anchors = (
{
name = bottom;
position = "{330, 0}";
},
{
name = ogonek;
position = "{443, 4}";
},
{
name = top;
position = "{330, 682}";
},
{
name = topright;
position = "{580, 682}";
}
);
background = {
components = (
{
name = H;
transform = "{1, 0, 0, 1, -10, 0}";
}
);
paths = (
{
closed = 1;
nodes = (
"843 509 OFFCURVE",
"932 629 OFFCURVE",
"1057 629 CURVE SMOOTH",
"1182 629 OFFCURVE",
"1271 509 OFFCURVE",
"1271 340 CURVE SMOOTH",
"1271 172 OFFCURVE",
"1182 53 OFFCURVE",
"1057 53 CURVE SMOOTH",
"932 53 OFFCURVE",
"843 172 OFFCURVE",
"843 340 CURVE SMOOTH"
);
},
{
closed = 1;
nodes = (
"764 131 OFFCURVE",
"885 -16 OFFCURVE",
"1057 -16 CURVE SMOOTH",
"1229 -16 OFFCURVE",
"1350 131 OFFCURVE",
"1350 339 CURVE SMOOTH",
"1350 549 OFFCURVE",
"1229 697 OFFCURVE",
"1057 697 CURVE SMOOTH",
"885 697 OFFCURVE",
"764 549 OFFCURVE",
"764 340 CURVE SMOOTH"
);
}
);
};
layerId = "63224BA1-30A4-42F4-A6D1-9160F56B91B0";
paths = (
{
closed = 1;
nodes = (
"80 253 LINE SMOOTH",
"80 78 OFFCURVE",
"163 -16 OFFCURVE",
"332 -16 CURVE SMOOTH",
"486 -16 OFFCURVE",
"580 78 OFFCURVE",
"580 253 CURVE SMOOTH",
"580 682 LINE",
"505 682 LINE",
"505 253 LINE SMOOTH",
"505 121 OFFCURVE",
"437 52 OFFCURVE",
"332 52 CURVE SMOOTH",
"212 52 OFFCURVE",
"155 121 OFFCURVE",
"155 253 CURVE SMOOTH",
"155 682 LINE",
"80 682 LINE"
);
}
);
width = 660;
}
);
unicode = 0055;
},
{
color = 5;
glyphname = V;
lastChange = "2016-10-12 22:01:32 +0000";
layers = (
{
anchors = (
{
name = bottom;
position = "{278, 0}";
},
{
name = top;
position = "{278, 682}";
}
);
layerId = "63224BA1-30A4-42F4-A6D1-9160F56B91B0";
paths = (
{
closed = 1;
nodes = (
"555 682 LINE",
"482 682 LINE",
"268 56 LINE",
"286 56 LINE",
"75 682 LINE",
"0 682 LINE",
"237 0 LINE",
"317 0 LINE"
);
}
);
width = 555;
}
);
unicode = 0056;
},
{
color = 5;
glyphname = W;
lastChange = "2016-10-12 22:01:32 +0000";
layers = (
{
anchors = (
{
name = bottom;
position = "{426, 0}";
},
{
name = top;
position = "{426, 682}";
}
);
layerId = "63224BA1-30A4-42F4-A6D1-9160F56B91B0";
paths = (
{
closed = 1;
nodes = (
"439 594 LINE",
"415 594 LINE",
"569 0 LINE",
"647 0 LINE",
"829 682 LINE",
"758 682 LINE",
"606 82 LINE",
"617 82 LINE",
"458 682 LINE",
"397 682 LINE",
"238 81 LINE",
"252 81 LINE",
"99 682 LINE",
"22 682 LINE",
"204 0 LINE",
"281 0 LINE"
);
}
);
width = 851;
}
);
unicode = 0057;
},
{
color = 5;
glyphname = X;
lastChange = "2016-10-12 22:01:32 +0000";
layers = (
{
anchors = (
{
name = bottom;
position = "{258, 0}";
},
{
name = top;
position = "{258, 682}";
}
);
background = {
paths = (
{
closed = 1;
nodes = (
"412 0 LINE",
"496 0 LINE",
"291 351 LINE",
"249 287 LINE"
);
},
{
closed = 1;
nodes = (
"76 682 LINE",
"-2 682 LINE",
"217 321 LINE",
"263 369 LINE"
);
},
{
closed = 1;
nodes = (
"424 682 LINE",
"11 0 LINE",
"95 0 LINE",
"508 682 LINE"
);
}
);
};
guideLines = (
{
angle = 90;
position = "{493, 408}";
},
{
angle = 90;
position = "{21, 408}";
}
);
layerId = "63224BA1-30A4-42F4-A6D1-9160F56B91B0";
paths = (
{
closed = 1;
nodes = (
"215 351 LINE",
"10 0 LINE",
"94 0 LINE",
"264 300 LINE"
);
},
{
closed = 1;
nodes = (
"289 321 LINE",
"508 682 LINE",
"430 682 LINE",
"243 369 LINE"
);
},
{
closed = 1;
nodes = (
"216 321 LINE",
"252 289 LINE",
"427 0 LINE",
"511 0 LINE",
"302 345 LINE",
"265 375 LINE",
"86 682 LINE",
"5 682 LINE"
);
}
);
width = 516;
}
);
unicode = 0058;
},
{
color = 5;
glyphname = Y;
lastChange = "2016-10-12 22:01:32 +0000";
layers = (
{
anchors = (
{
name = bottom;
position = "{242, 0}";
},
{
name = top;
position = "{242, 682}";
},
{
name = topleft;
position = "{20, 682}";
}
);
background = {
components = (
{
name = V;
transform = "{1, 0, 0, 1, -45, 0}";
}
);
};
layerId = "63224BA1-30A4-42F4-A6D1-9160F56B91B0";
paths = (
{
closed = 1;
nodes = (
"60 682 LINE",
"-15 682 LINE",
"204 282 LINE",
"204 0 LINE",
"278 0 LINE",
"278 279 LINE",
"499 682 LINE",
"430 682 LINE",
"240 331 LINE",
"252 331 LINE"
);
}
);
width = 484;
}
);
unicode = 0059;
},
{
color = 5;
glyphname = Z;
lastChange = "2016-10-12 22:01:32 +0000";
layers = (
{
anchors = (
{
name = bottom;
position = "{252, 0}";
},
{
name = top;
position = "{252, 682}";
}
);
layerId = "63224BA1-30A4-42F4-A6D1-9160F56B91B0";
paths = (
{
closed = 1;
nodes = (
"410 620 LINE",
"38 63 LINE",
"38 0 LINE",
"464 0 LINE",
"464 62 LINE",
"108 62 LINE",
"474 607 LINE",
"474 682 LINE",
"48 682 LINE",
"48 620 LINE"
);
}
);
width = 503;
}
);
unicode = 005A;
},
{
color = 5;
glyphname = a;
lastChange = "2016-10-12 22:01:32 +0000";
layers = (
{
anchors = (
{
name = bottom;
position = "{281, 0}";
},
{
name = ogonek;
position = "{505, 10}";
},
{
name = top;
position = "{281, 468}";
}
);
background = {
components = (
{
name = _part.roundLC;
}
);
};
components = (
{
name = _part.roundLC;
}
);
layerId = "63224BA1-30A4-42F4-A6D1-9160F56B91B0";
paths = (
{
closed = 1;
nodes = (
"430 0 LINE",
"498 0 LINE",
"498 468 LINE",
"430 468 LINE"
);
}
);
width = 561;
}
);
unicode = 0061;
},
{
color = 5;
glyphname = ae;
lastChange = "2016-10-12 22:01:32 +0000";
layers = (
{
anchors = (
{
name = bottom;
position = "{438, 0}";
},
{
name = top;
position = "{438, 468}";
}
);
background = {
paths = (
{
closed = 1;
nodes = (
"421 343 LINE",
"413 374 OFFCURVE",
"400 399 OFFCURVE",
"383 420 CURVE SMOOTH",
"350 462 OFFCURVE",
"305 483 OFFCURVE",
"248 483 CURVE SMOOTH",
"245 483 LINE SMOOTH",
"158 483 OFFCURVE",
"117 453 OFFCURVE",
"66 389 CURVE",
"119 356 LINE",
"138 379 OFFCURVE",
"155 396 OFFCURVE",
"172 406 CURVE SMOOTH",
"189 416 OFFCURVE",
"213 421 OFFCURVE",
"245 421 CURVE SMOOTH",
"288 421 OFFCURVE",
"322 403 OFFCURVE",
"348 367 CURVE SMOOTH",
"372 335 OFFCURVE",
"384 297 OFFCURVE",
"386 254 CURVE"
);
},
{
closed = 1;
nodes = (
"460 296 LINE",
"467 321 OFFCURVE",
"480 344 OFFCURVE",
"498 365 CURVE SMOOTH",
"531 403 OFFCURVE",
"568 422 OFFCURVE",
"611 422 CURVE SMOOTH",
"654 422 OFFCURVE",
"693 404 OFFCURVE",
"727 368 CURVE SMOOTH",
"746 347 OFFCURVE",
"761 323 OFFCURVE",
"770 296 CURVE"
);
},
{
closed = 1;
nodes = (
"429 109 LINE",
"385 76 OFFCURVE",
"302 46 OFFCURVE",
"225 46 CURVE SMOOTH",
"154 46 OFFCURVE",
"110 73 OFFCURVE",
"110 126 CURVE SMOOTH",
"110 179 OFFCURVE",
"151 212 OFFCURVE",
"195 223 CURVE SMOOTH",
"242 235 OFFCURVE",
"321 235 OFFCURVE",
"398 216 CURVE",
"401 266 LINE",
"339 282 OFFCURVE",
"291 290 OFFCURVE",
"256 290 CURVE SMOOTH",
"224 290 OFFCURVE",
"192 285 OFFCURVE",
"159 276 CURVE",
"94 256 OFFCURVE",
"35 206 OFFCURVE",
"35 123 CURVE SMOOTH",
"35 82 OFFCURVE",
"52 49 OFFCURVE",
"87 23 CURVE SMOOTH",
"122 -3 OFFCURVE",
"165 -16 OFFCURVE",
"216 -16 CURVE SMOOTH",
"309 -16 OFFCURVE",
"392 12 OFFCURVE",
"464 67 CURVE"
);
},
{
closed = 1;
nodes = (
"442 71 LINE",
"492 13 OFFCURVE",
"549 -16 OFFCURVE",
"611 -16 CURVE SMOOTH",
"670 -16 OFFCURVE",
"715 -7 OFFCURVE",
"747 10 CURVE SMOOTH",
"779 28 OFFCURVE",
"807 56 OFFCURVE",
"832 95 CURVE",
"778 131 LINE",
"759 99 OFFCURVE",
"738 77 OFFCURVE",
"716 64 CURVE SMOOTH",
"695 52 OFFCURVE",
"661 46 OFFCURVE",
"615 46 CURVE SMOOTH",
"570 46 OFFCURVE",
"531 65 OFFCURVE",
"498 103 CURVE",
"466 142 OFFCURVE",
"450 185 OFFCURVE",
"450 234 CURVE",
"847 234 LINE",
"847 301 OFFCURVE",
"823 359 OFFCURVE",
"776 409 CURVE SMOOTH",
"729 459 OFFCURVE",
"676 484 OFFCURVE",
"615 484 CURVE SMOOTH",
"554 484 OFFCURVE",
"500 459 OFFCURVE",
"453 409 CURVE SMOOTH",
"435 390 OFFCURVE",
"421 368 OFFCURVE",
"408 347 CURVE",
"385 287 LINE",
"385 257 LINE",
"382 233 LINE",
"383 179 OFFCURVE",
"400 134 OFFCURVE",
"427 91 CURVE"
);
}
);
};
layerId = "63224BA1-30A4-42F4-A6D1-9160F56B91B0";
paths = (
{
closed = 1;
nodes = (
"507 46 OFFCURVE",
"453 140 OFFCURVE",
"453 233 CURVE SMOOTH",
"453 328 OFFCURVE",
"508 422 OFFCURVE",
"616 422 CURVE SMOOTH",
"704 422 OFFCURVE",
"758 374 OFFCURVE",
"771 276 CURVE",
"447 276 LINE",
"436 220 LINE",
"838 220 LINE",
"854 378 OFFCURVE",
"762 484 OFFCURVE",
"616 484 CURVE SMOOTH",
"481 484 OFFCURVE",
"385 380 OFFCURVE",
"385 234 CURVE SMOOTH",
"385 88 OFFCURVE",
"482 -16 OFFCURVE",
"619 -16 CURVE SMOOTH",
"723 -16 OFFCURVE",
"792 30 OFFCURVE",
"834 95 CURVE",
"780 131 LINE",
"750 81 OFFCURVE",
"702 46 OFFCURVE",
"617 46 CURVE SMOOTH"
);
},
{
closed = 1;
nodes = (
"431 303 LINE",
"431 412 OFFCURVE",
"368 483 OFFCURVE",
"245 483 CURVE SMOOTH",
"178 483 OFFCURVE",
"115 457 OFFCURVE",
"69 399 CURVE",
"118 364 LINE",
"152 406 OFFCURVE",
"192 425 OFFCURVE",
"243 425 CURVE SMOOTH",
"341 425 OFFCURVE",
"381 360 OFFCURVE",
"386 254 CURVE"
);
},
{
closed = 1;
nodes = (
"429 109 LINE",
"387 76 OFFCURVE",
"328 46 OFFCURVE",
"255 46 CURVE SMOOTH",
"178 46 OFFCURVE",
"130 73 OFFCURVE",
"130 136 CURVE SMOOTH",
"130 200 OFFCURVE",
"198 230 OFFCURVE",
"286 230 CURVE SMOOTH",
"321 230 OFFCURVE",
"360 225 OFFCURVE",
"398 216 CURVE",
"401 266 LINE",
"353 282 OFFCURVE",
"341 290 OFFCURVE",
"276 290 CURVE SMOOTH",
"160 290 OFFCURVE",
"55 235 OFFCURVE",
"55 133 CURVE SMOOTH",
"55 34 OFFCURVE",
"136 -16 OFFCURVE",
"246 -16 CURVE SMOOTH",
"335 -16 OFFCURVE",
"395 12 OFFCURVE",
"464 67 CURVE"
);
}
);
width = 876;
}
);
rightMetricsKey = e;
unicode = 00E6;
},
{
color = 5;
glyphname = b;
lastChange = "2016-10-12 22:01:32 +0000";
layers = (
{
anchors = (
{
name = bottom;
position = "{296, 0}";
},
{
name = top;
position = "{311, 468}";
}
);
background = {
paths = (
{
closed = 1;
nodes = (
"460 124 OFFCURVE",
"392 46 OFFCURVE",
"297 46 CURVE SMOOTH",
"200 46 OFFCURVE",
"132 124 OFFCURVE",
"132 234 CURVE SMOOTH",
"132 344 OFFCURVE",
"200 422 OFFCURVE",
"297 422 CURVE SMOOTH",
"392 422 OFFCURVE",
"460 345 OFFCURVE",
"460 235 CURVE SMOOTH"
);
},
{
closed = 1;
nodes = (
"528 381 OFFCURVE",
"432 484 OFFCURVE",
"297 484 CURVE SMOOTH",
"173 484 OFFCURVE",
"84 380 OFFCURVE",
"84 234 CURVE SMOOTH",
"84 88 OFFCURVE",
"172 -16 OFFCURVE",
"295 -16 CURVE SMOOTH",
"431 -16 OFFCURVE",
"528 88 OFFCURVE",
"528 235 CURVE SMOOTH"
);
},
{
closed = 1;
nodes = (
"64 726 LINE",
"64 0 LINE",
"132 0 LINE",
"132 726 LINE"
);
}
);
};
layerId = "63224BA1-30A4-42F4-A6D1-9160F56B91B0";
paths = (
{
closed = 1;
nodes = (
"460 124 OFFCURVE",
"392 46 OFFCURVE",
"297 46 CURVE SMOOTH",
"200 46 OFFCURVE",
"132 124 OFFCURVE",
"132 234 CURVE SMOOTH",
"132 344 OFFCURVE",
"200 422 OFFCURVE",
"297 422 CURVE SMOOTH",
"392 422 OFFCURVE",
"460 345 OFFCURVE",
"460 235 CURVE SMOOTH"
);
},
{
closed = 1;
nodes = (
"528 381 OFFCURVE",
"432 484 OFFCURVE",
"297 484 CURVE SMOOTH",
"173 484 OFFCURVE",
"84 380 OFFCURVE",
"84 234 CURVE SMOOTH",
"84 88 OFFCURVE",
"172 -16 OFFCURVE",
"295 -16 CURVE SMOOTH",
"431 -16 OFFCURVE",
"528 88 OFFCURVE",
"528 235 CURVE SMOOTH"
);
},
{
closed = 1;
nodes = (
"64 726 LINE",
"64 0 LINE",
"132 0 LINE",
"132 726 LINE"
);
}
);
width = 561;
}
);
unicode = 0062;
},
{
color = 5;
glyphname = c;
lastChange = "2016-10-12 22:01:32 +0000";
layers = (
{
anchors = (
{
name = bottom;
position = "{259, 0}";
},
{
name = top;
position = "{269, 468}";
}
);
layerId = "63224BA1-30A4-42F4-A6D1-9160F56B91B0";
paths = (
{
closed = 1;
nodes = (
"401 111 LINE",
"371 73 OFFCURVE",
"335 46 OFFCURVE",
"266 46 CURVE SMOOTH",
"170 46 OFFCURVE",
"102 124 OFFCURVE",
"102 234 CURVE SMOOTH",
"102 344 OFFCURVE",
"170 422 OFFCURVE",
"266 422 CURVE SMOOTH",
"322 422 OFFCURVE",
"364 393 OFFCURVE",
"393 351 CURVE",
"443 390 LINE",
"400 445 OFFCURVE",
"347 484 OFFCURVE",
"266 484 CURVE SMOOTH",
"130 484 OFFCURVE",
"34 380 OFFCURVE",
"34 234 CURVE SMOOTH",
"34 88 OFFCURVE",
"131 -16 OFFCURVE",
"268 -16 CURVE SMOOTH",
"345 -16 OFFCURVE",
"412 21 OFFCURVE",
"454 74 CURVE"
);
}
);
width = 477;
}
);
unicode = 0063;
},
{
color = 5;
glyphname = d;
lastChange = "2016-10-12 22:01:32 +0000";
layers = (
{
anchors = (
{
name = bottom;
position = "{281, 0}";
},
{
name = center;
position = "{444, 558}";
},
{
name = top;
position = "{281, 468}";
},
{
name = topright;
position = "{561, 468}";
}
);
background = {
paths = (
{
closed = 1;
nodes = (
"102 284 OFFCURVE",
"118 327 OFFCURVE",
"150 365 CURVE SMOOTH",
"182 403 OFFCURVE",
"220 422 OFFCURVE",
"265 422 CURVE SMOOTH",
"310 422 OFFCURVE",
"349 403 OFFCURVE",
"381 365 CURVE SMOOTH",
"414 327 OFFCURVE",
"430 283 OFFCURVE",
"430 234 CURVE SMOOTH",
"430 185 OFFCURVE",
"414 142 OFFCURVE",
"381 103 CURVE SMOOTH",
"349 65 OFFCURVE",
"310 46 OFFCURVE",
"265 46 CURVE SMOOTH",
"220 46 OFFCURVE",
"182 65 OFFCURVE",
"150 103 CURVE SMOOTH",
"118 142 OFFCURVE",
"102 186 OFFCURVE",
"102 235 CURVE SMOOTH"
);
},
{
closed = 1;
nodes = (
"57 360 OFFCURVE",
"34 301 OFFCURVE",
"34 234 CURVE SMOOTH",
"34 167 OFFCURVE",
"57 108 OFFCURVE",
"104 58 CURVE SMOOTH",
"151 9 OFFCURVE",
"207 -16 OFFCURVE",
"272 -16 CURVE SMOOTH",
"337 -16 OFFCURVE",
"390 13 OFFCURVE",
"430 71 CURVE",
"430 0 LINE",
"498 0 LINE",
"498 726 LINE",
"430 726 LINE",
"430 395 LINE",
"388 454 OFFCURVE",
"335 484 OFFCURVE",
"270 484 CURVE SMOOTH",
"205 484 OFFCURVE",
"150 459 OFFCURVE",
"104 410 CURVE SMOOTH"
);
}
);
};
layerId = "63224BA1-30A4-42F4-A6D1-9160F56B91B0";
paths = (
{
closed = 1;
nodes = (
"102 345 OFFCURVE",
"170 422 OFFCURVE",
"265 422 CURVE SMOOTH",
"362 422 OFFCURVE",
"430 344 OFFCURVE",
"430 234 CURVE SMOOTH",
"430 124 OFFCURVE",
"362 46 OFFCURVE",
"265 46 CURVE SMOOTH",
"170 46 OFFCURVE",
"102 124 OFFCURVE",
"102 235 CURVE SMOOTH"
);
},
{
closed = 1;
nodes = (
"34 88 OFFCURVE",
"131 -16 OFFCURVE",
"267 -16 CURVE SMOOTH",
"390 -16 OFFCURVE",
"478 88 OFFCURVE",
"478 234 CURVE SMOOTH",
"478 380 OFFCURVE",
"389 484 OFFCURVE",
"265 484 CURVE SMOOTH",
"130 484 OFFCURVE",
"34 381 OFFCURVE",
"34 235 CURVE SMOOTH"
);
},
{
closed = 1;
nodes = (
"430 0 LINE",
"498 0 LINE",
"498 726 LINE",
"430 726 LINE"
);
}
);
width = 561;
}
);
unicode = 0064;
},
{
color = 5;
glyphname = eth;
lastChange = "2016-10-12 22:01:32 +0000";
layers = (
{
background = {
anchors = (
{
name = bottom;
position = "{266, 0}";
},
{
name = center;
position = "{266, 234}";
},
{
name = ogonek;
position = "{339, -5}";
},
{
name = top;
position = "{266, 468}";
},
{
name = topright;
position = "{511, 468}";
}
);
paths = (
{
closed = 1;
nodes = (
"255 687 OFFCURVE",
"248 691 OFFCURVE",
"195 726 CURVE",
"162 680 LINE",
"195 655 OFFCURVE",
"228 634 OFFCURVE",
"261 606 CURVE SMOOTH",
"334 544 OFFCURVE",
"382 478 OFFCURVE",
"405 408 CURVE",
"498 216 LINE",
"502 395 OFFCURVE",
"446 528 OFFCURVE",
"297 652 CURVE SMOOTH"
);
},
{
closed = 1;
nodes = (
"169 568 LINE",
"199 536 LINE",
"370 703 LINE",
"340 734 LINE"
);
},
{
closed = 1;
nodes = (
"102 345 OFFCURVE",
"170 422 OFFCURVE",
"265 422 CURVE SMOOTH",
"362 422 OFFCURVE",
"430 344 OFFCURVE",
"430 234 CURVE SMOOTH",
"430 124 OFFCURVE",
"362 46 OFFCURVE",
"265 46 CURVE SMOOTH",
"170 46 OFFCURVE",
"102 124 OFFCURVE",
"102 235 CURVE SMOOTH"
);
},
{
closed = 1;
nodes = (
"34 88 OFFCURVE",
"131 -16 OFFCURVE",
"267 -16 CURVE SMOOTH",
"402 -16 OFFCURVE",
"498 88 OFFCURVE",
"498 234 CURVE SMOOTH",
"498 380 OFFCURVE",
"401 484 OFFCURVE",
"265 484 CURVE SMOOTH",
"130 484 OFFCURVE",
"34 381 OFFCURVE",
"34 235 CURVE SMOOTH"
);
}
);
};
guideLines = (
{
angle = 90;
position = "{431, 562}";
},
{
angle = 90;
position = "{498, 562}";
}
);
layerId = "63224BA1-30A4-42F4-A6D1-9160F56B91B0";
paths = (
{
closed = 1;
nodes = (
"409 649 OFFCURVE",
"187 729 CURVE",
"162 680 LINE",
"316 630 OFFCURVE",
"431 550 OFFCURVE",
"431 283 CURVE",
"498 216 LINE",
"498 537 OFFCURVE"
);
},
{
closed = 1;
nodes = (
"199 590 LINE",
"231 560 LINE",
"371 717 LINE",
"340 746 LINE"
);
},
{
closed = 1;
nodes = (
"102 345 OFFCURVE",
"170 422 OFFCURVE",
"265 422 CURVE SMOOTH",
"362 422 OFFCURVE",
"430 344 OFFCURVE",
"430 234 CURVE SMOOTH",
"430 124 OFFCURVE",
"362 46 OFFCURVE",
"265 46 CURVE SMOOTH",
"170 46 OFFCURVE",
"102 124 OFFCURVE",
"102 235 CURVE SMOOTH"
);
},
{
closed = 1;
nodes = (
"34 88 OFFCURVE",
"131 -16 OFFCURVE",
"267 -16 CURVE SMOOTH",
"402 -16 OFFCURVE",
"498 88 OFFCURVE",
"498 234 CURVE",
"455 279 LINE",
"455 406 OFFCURVE",
"354 484 OFFCURVE",
"265 484 CURVE SMOOTH",
"130 484 OFFCURVE",
"34 381 OFFCURVE",
"34 235 CURVE SMOOTH"
);
}
);
width = 531;
}
);
leftMetricsKey = o;
rightMetricsKey = o;
unicode = 00F0;
},
{
color = 5;
glyphname = e;
lastChange = "2016-10-12 22:01:32 +0000";
layers = (
{
anchors = (
{
name = bottom;
position = "{275, 0}";
},
{
name = ogonek;
position = "{368, 1}";
},
{
name = top;
position = "{263, 468}";
}
);
background = {
paths = (
{
closed = 1;
nodes = (
"102 140 OFFCURVE",
"102 233 CURVE SMOOTH",
"102 328 OFFCURVE",
"157 422 OFFCURVE",
"265 422 CURVE SMOOTH",
"353 422 OFFCURVE",
"397 372 OFFCURVE",
"420 296 CURVE",
"96 296 LINE",
"86 234 LINE",
"498 234 LINE",
"498 380 OFFCURVE",
"401 484 OFFCURVE",
"265 484 CURVE SMOOTH",
"130 484 OFFCURVE",
"34 380 OFFCURVE",
"34 234 CURVE SMOOTH",
"34 88 OFFCURVE",
"131 -16 OFFCURVE",
"268 -16 CURVE SMOOTH",
"352 -16 OFFCURVE",
"441 30 OFFCURVE",
"483 95 CURVE",
"429 131 LINE",
"399 81 OFFCURVE",
"331 46 OFFCURVE",
"266 46 CURVE SMOOTH",
"156 46 OFFCURVE"
);
}
);
};
layerId = "63224BA1-30A4-42F4-A6D1-9160F56B91B0";
paths = (
{
closed = 1;
nodes = (
"102 140 OFFCURVE",
"102 233 CURVE SMOOTH",
"102 328 OFFCURVE",
"157 422 OFFCURVE",
"265 422 CURVE SMOOTH",
"353 422 OFFCURVE",
"407 374 OFFCURVE",
"420 276 CURVE",
"96 276 LINE",
"85 220 LINE",
"487 220 LINE",
"502 368 OFFCURVE",
"401 484 OFFCURVE",
"265 484 CURVE SMOOTH",
"130 484 OFFCURVE",
"34 380 OFFCURVE",
"34 234 CURVE SMOOTH",
"34 88 OFFCURVE",
"131 -16 OFFCURVE",
"268 -16 CURVE SMOOTH",
"372 -16 OFFCURVE",
"441 30 OFFCURVE",
"483 95 CURVE",
"429 131 LINE",
"399 81 OFFCURVE",
"351 46 OFFCURVE",
"266 46 CURVE SMOOTH",
"156 46 OFFCURVE"
);
}
);
width = 525;
}
);
unicode = 0065;
},
{
color = 5;
glyphname = f;
lastChange = "2016-10-12 22:01:32 +0000";
layers = (
{
anchors = (
{
name = bottom;
position = "{124, 0}";
},
{
name = top;
position = "{138, 682}";
}
);
background = {
components = (
{
name = jdotless;
transform = "{-1, 0, 0, -1, 219, 543}";
}
);
};
components = (
{
name = jdotless;
transform = "{-1, 0, 0, -1, 219, 543}";
}
);
layerId = "63224BA1-30A4-42F4-A6D1-9160F56B91B0";
paths = (
{
closed = 1;
nodes = (
"28 468 LINE",
"28 406 LINE",
"88 406 LINE",
"88 0 LINE",
"156 0 LINE",
"156 406 LINE",
"264 406 LINE",
"264 468 LINE"
);
}
);
width = 275;
}
);
unicode = 0066;
},
{
color = 5;
glyphname = g;
lastChange = "2016-10-12 22:01:32 +0000";
layers = (
{
anchors = (
{
name = bottom;
position = "{281, -200}";
},
{
name = top;
position = "{251, 468}";
}
);
background = {
components = (
{
name = _part.roundLC;
}
);
paths = (
{
closed = 1;
nodes = (
"430 0 LINE",
"498 0 LINE",
"498 468 LINE",
"430 468 LINE"
);
}
);
};
components = (
{
name = _part.roundLC;
}
);
layerId = "63224BA1-30A4-42F4-A6D1-9160F56B91B0";
paths = (
{
closed = 1;
nodes = (
"430 18 LINE SMOOTH",
"430 -73 OFFCURVE",
"373 -138 OFFCURVE",
"292 -138 CURVE SMOOTH",
"98 -138 LINE",
"98 -200 LINE",
"292 -200 LINE SMOOTH",
"413 -200 OFFCURVE",
"498 -110 OFFCURVE",
"498 18 CURVE SMOOTH",
"498 468 LINE",
"430 468 LINE"
);
}
);
width = 561;
}
);
unicode = 0067;
},
{
color = 5;
glyphname = h;
lastChange = "2016-10-12 22:01:32 +0000";
layers = (
{
anchors = (
{
name = bottom;
position = "{267, 0}";
},
{
name = center;
position = "{132, 594}";
},
{
name = top;
position = "{101, 725}";
}
);
components = (
{
name = n;
}
);
layerId = "63224BA1-30A4-42F4-A6D1-9160F56B91B0";
paths = (
{
closed = 1;
nodes = (
"131 726 LINE",
"63 726 LINE",
"63 0 LINE",
"131 0 LINE"
);
}
);
width = 534;
}
);
unicode = 0068;
},
{
color = 5;
glyphname = idotless;
lastChange = "2016-10-12 22:01:32 +0000";
layers = (
{
anchors = (
{
name = bottom;
position = "{97, 0}";
},
{
name = ogonek;
position = "{111, 24}";
},
{
name = top;
position = "{97, 468}";
}
);
layerId = "63224BA1-30A4-42F4-A6D1-9160F56B91B0";
paths = (
{
closed = 1;
nodes = (
"131 0 LINE",
"131 468 LINE",
"63 468 LINE",
"63 0 LINE"
);
}
);
width = 193;
}
);
unicode = 0131;
},
{
color = 5;
glyphname = jdotless;
lastChange = "2016-10-12 22:01:32 +0000";
layers = (
{
anchors = (
{
name = bottom;
position = "{97, 0}";
},
{
name = top;
position = "{97, 468}";
}
);
background = {
components = (
{
name = j;
}
);
};
layerId = "63224BA1-30A4-42F4-A6D1-9160F56B91B0";
paths = (
{
closed = 1;
nodes = (
"-45 -200 LINE",
"-17 -200 LINE SMOOTH",
"70 -200 OFFCURVE",
"131 -139 OFFCURVE",
"131 -52 CURVE SMOOTH",
"131 468 LINE",
"63 468 LINE",
"63 -52 LINE SMOOTH",
"63 -102 OFFCURVE",
"30 -138 OFFCURVE",
"-17 -138 CURVE SMOOTH",
"-45 -138 LINE"
);
}
);
width = 193;
}
);
unicode = 0237;
},
{
color = 5;
glyphname = k;
lastChange = "2016-10-12 22:01:32 +0000";
layers = (
{
anchors = (
{
name = bottom;
position = "{218, 0}";
},
{
name = top;
position = "{218, 468}";
}
);
layerId = "63224BA1-30A4-42F4-A6D1-9160F56B91B0";
paths = (
{
closed = 1;
nodes = (
"181 252 LINE",
"352 0 LINE",
"428 0 LINE",
"225 301 LINE"
);
},
{
closed = 1;
nodes = (
"131 726 LINE",
"63 726 LINE",
"63 0 LINE",
"131 0 LINE"
);
},
{
closed = 1;
nodes = (
"424 468 LINE",
"336 468 LINE",
"120 261 LINE",
"120 175 LINE"
);
}
);
width = 436;
}
);
unicode = 006B;
},
{
color = 5;
glyphname = kgreenlandic;
lastChange = "2016-10-12 22:01:32 +0000";
layers = (
{
anchors = (
{
name = bottom;
position = "{232, 0}";
},
{
name = top;
position = "{232, 468}";
}
);
background = {
anchors = (
{
name = bottom;
position = "{218, 0}";
},
{
name = top;
position = "{218, 468}";
}
);
paths = (
{
closed = 1;
nodes = (
"181 252 LINE",
"352 0 LINE",
"428 0 LINE",
"225 301 LINE"
);
},
{
closed = 1;
nodes = (
"131 468 LINE",
"63 468 LINE",
"63 0 LINE",
"131 0 LINE"
);
},
{
closed = 1;
nodes = (
"424 468 LINE",
"336 468 LINE",
"120 261 LINE",
"120 175 LINE"
);
}
);
};
layerId = "63224BA1-30A4-42F4-A6D1-9160F56B91B0";
paths = (
{
closed = 1;
nodes = (
"181 252 LINE",
"352 0 LINE",
"428 0 LINE",
"225 301 LINE"
);
},
{
closed = 1;
nodes = (
"131 468 LINE",
"63 468 LINE",
"63 0 LINE",
"131 0 LINE"
);
},
{
closed = 1;
nodes = (
"424 468 LINE",
"336 468 LINE",
"120 261 LINE",
"120 175 LINE"
);
}
);
width = 463;
}
);
unicode = 0138;
},
{
color = 5;
glyphname = l;
lastChange = "2016-10-12 22:01:32 +0000";
layers = (
{
anchors = (
{
name = bottom;
position = "{102, 0}";
},
{
name = center;
position = "{112, 284}";
},
{
name = top;
position = "{102, 726}";
},
{
name = topright;
position = "{203, 468}";
}
);
layerId = "63224BA1-30A4-42F4-A6D1-9160F56B91B0";
paths = (
{
closed = 1;
nodes = (
"136 0 LINE",
"136 726 LINE",
"68 726 LINE",
"68 0 LINE"
);
}
);
width = 203;
}
);
unicode = 006C;
},
{
color = 5;
glyphname = m;
lastChange = "2016-10-12 22:01:32 +0000";
layers = (
{
anchors = (
{
name = bottom;
position = "{385, 0}";
},
{
name = top;
position = "{408, 468}";
}
);
background = {
paths = (
{
closed = 1;
nodes = (
"131 468 LINE",
"63 468 LINE",
"63 0 LINE",
"131 0 LINE"
);
},
{
closed = 1;
nodes = (
"161 484 OFFCURVE",
"96 380 OFFCURVE",
"96 234 CURVE",
"131 234 LINE",
"131 344 OFFCURVE",
"169 422 OFFCURVE",
"253 422 CURVE SMOOTH",
"307 422 OFFCURVE",
"354 389 OFFCURVE",
"354 283 CURVE SMOOTH",
"354 0 LINE",
"422 0 LINE",
"422 313 LINE SMOOTH",
"422 423 OFFCURVE",
"355 484 OFFCURVE",
"271 484 CURVE SMOOTH"
);
},
{
closed = 1;
nodes = (
"451 484 OFFCURVE",
"386 380 OFFCURVE",
"386 234 CURVE",
"421 234 LINE",
"421 344 OFFCURVE",
"459 422 OFFCURVE",
"543 422 CURVE SMOOTH",
"597 422 OFFCURVE",
"644 389 OFFCURVE",
"644 283 CURVE SMOOTH",
"644 0 LINE",
"712 0 LINE",
"712 313 LINE SMOOTH",
"712 423 OFFCURVE",
"645 484 OFFCURVE",
"561 484 CURVE SMOOTH"
);
}
);
};
layerId = "63224BA1-30A4-42F4-A6D1-9160F56B91B0";
paths = (
{
closed = 1;
nodes = (
"131 468 LINE",
"63 468 LINE",
"63 0 LINE",
"131 0 LINE"
);
},
{
closed = 1;
nodes = (
"161 484 OFFCURVE",
"96 380 OFFCURVE",
"96 234 CURVE",
"131 234 LINE",
"131 344 OFFCURVE",
"169 422 OFFCURVE",
"253 422 CURVE SMOOTH",
"307 422 OFFCURVE",
"354 389 OFFCURVE",
"354 283 CURVE SMOOTH",
"354 0 LINE",
"422 0 LINE",
"422 313 LINE SMOOTH",
"422 423 OFFCURVE",
"355 484 OFFCURVE",
"271 484 CURVE SMOOTH"
);
},
{
closed = 1;
nodes = (
"451 484 OFFCURVE",
"386 380 OFFCURVE",
"386 234 CURVE",
"421 234 LINE",
"421 344 OFFCURVE",
"459 422 OFFCURVE",
"543 422 CURVE SMOOTH",
"597 422 OFFCURVE",
"644 389 OFFCURVE",
"644 283 CURVE SMOOTH",
"644 0 LINE",
"712 0 LINE",
"712 313 LINE SMOOTH",
"712 423 OFFCURVE",
"645 484 OFFCURVE",
"561 484 CURVE SMOOTH"
);
}
);
width = 770;
}
);
unicode = 006D;
},
{
color = 5;
glyphname = n;
lastChange = "2016-10-12 22:01:32 +0000";
layers = (
{
anchors = (
{
name = bottom;
position = "{269, 0}";
},
{
name = top;
position = "{279, 468}";
}
);
background = {
paths = (
{
closed = 1;
nodes = (
"102 345 OFFCURVE",
"170 422 OFFCURVE",
"265 422 CURVE SMOOTH",
"362 422 OFFCURVE",
"430 344 OFFCURVE",
"430 234 CURVE SMOOTH",
"430 124 OFFCURVE",
"362 46 OFFCURVE",
"265 46 CURVE SMOOTH",
"170 46 OFFCURVE",
"102 124 OFFCURVE",
"102 235 CURVE SMOOTH"
);
},
{
closed = 1;
nodes = (
"34 88 OFFCURVE",
"131 -16 OFFCURVE",
"267 -16 CURVE SMOOTH",
"402 -16 OFFCURVE",
"498 88 OFFCURVE",
"498 234 CURVE SMOOTH",
"498 380 OFFCURVE",
"401 484 OFFCURVE",
"265 484 CURVE SMOOTH",
"130 484 OFFCURVE",
"34 381 OFFCURVE",
"34 235 CURVE SMOOTH"
);
}
);
};
layerId = "63224BA1-30A4-42F4-A6D1-9160F56B91B0";
paths = (
{
closed = 1;
nodes = (
"131 468 LINE",
"63 468 LINE",
"63 0 LINE",
"131 0 LINE"
);
},
{
closed = 1;
nodes = (
"166 484 OFFCURVE",
"96 380 OFFCURVE",
"96 234 CURVE",
"131 234 LINE",
"131 344 OFFCURVE",
"176 422 OFFCURVE",
"275 422 CURVE SMOOTH",
"344 422 OFFCURVE",
"399 389 OFFCURVE",
"399 283 CURVE SMOOTH",
"399 0 LINE",
"467 0 LINE",
"467 313 LINE SMOOTH",
"467 423 OFFCURVE",
"383 484 OFFCURVE",
"286 484 CURVE SMOOTH"
);
}
);
width = 537;
},
{
associatedMasterId = "63224BA1-30A4-42F4-A6D1-9160F56B91B0";
background = {
paths = (
{
closed = 1;
nodes = (
"131 234 LINE",
"131 344 OFFCURVE",
"192 422 OFFCURVE",
"278 422 CURVE SMOOTH",
"356 422 OFFCURVE",
"411 365 OFFCURVE",
"411 283 CURVE",
"479 283 LINE",
"479 402 OFFCURVE",
"394 484 OFFCURVE",
"276 484 CURVE SMOOTH",
"160 484 OFFCURVE",
"78 380 OFFCURVE",
"78 234 CURVE"
);
}
);
};
layerId = "84E04CCB-11ED-4502-AE98-7B8282BA2A97";
name = "Oct 4 16, 08:12";
paths = (
{
closed = 1;
nodes = (
"131 468 LINE",
"63 468 LINE",
"63 0 LINE",
"131 0 LINE"
);
},
{
closed = 1;
nodes = (
"160 484 OFFCURVE",
"78 380 OFFCURVE",
"78 234 CURVE",
"131 234 LINE",
"131 344 OFFCURVE",
"192 422 OFFCURVE",
"278 422 CURVE SMOOTH",
"355 422 OFFCURVE",
"409 365 OFFCURVE",
"409 283 CURVE SMOOTH",
"409 0 LINE",
"477 0 LINE",
"477 283 LINE SMOOTH",
"477 402 OFFCURVE",
"393 484 OFFCURVE",
"276 484 CURVE SMOOTH"
);
}
);
width = 534;
}
);
unicode = 006E;
},
{
color = 5;
glyphname = eng;
lastChange = "2016-10-12 22:01:32 +0000";
layers = (
{
background = {
paths = (
{
closed = 1;
nodes = (
"216 484 OFFCURVE",
"163 449 OFFCURVE",
"131 390 CURVE",
"131 468 LINE",
"63 468 LINE",
"63 0 LINE",
"131 0 LINE",
"131 234 LINE SMOOTH",
"131 344 OFFCURVE",
"176 422 OFFCURVE",
"275 422 CURVE SMOOTH",
"344 422 OFFCURVE",
"399 389 OFFCURVE",
"399 283 CURVE SMOOTH",
"399 18 LINE SMOOTH",
"399 -73 OFFCURVE",
"342 -138 OFFCURVE",
"261 -138 CURVE SMOOTH",
"197 -138 LINE",
"197 -200 LINE",
"261 -200 LINE SMOOTH",
"382 -200 OFFCURVE",
"467 -110 OFFCURVE",
"467 18 CURVE SMOOTH",
"467 313 LINE SMOOTH",
"467 423 OFFCURVE",
"383 484 OFFCURVE",
"286 484 CURVE SMOOTH"
);
}
);
};
layerId = "63224BA1-30A4-42F4-A6D1-9160F56B91B0";
paths = (
{
closed = 1;
nodes = (
"216 484 OFFCURVE",
"163 449 OFFCURVE",
"131 390 CURVE",
"131 468 LINE",
"63 468 LINE",
"63 0 LINE",
"131 0 LINE",
"131 234 LINE SMOOTH",
"131 344 OFFCURVE",
"176 422 OFFCURVE",
"275 422 CURVE SMOOTH",
"344 422 OFFCURVE",
"399 389 OFFCURVE",
"399 283 CURVE SMOOTH",
"399 18 LINE SMOOTH",
"399 -73 OFFCURVE",
"342 -138 OFFCURVE",
"261 -138 CURVE SMOOTH",
"197 -138 LINE",
"197 -200 LINE",
"261 -200 LINE SMOOTH",
"382 -200 OFFCURVE",
"467 -110 OFFCURVE",
"467 18 CURVE SMOOTH",
"467 313 LINE SMOOTH",
"467 423 OFFCURVE",
"383 484 OFFCURVE",
"286 484 CURVE SMOOTH"
);
}
);
width = 537;
}
);
leftMetricsKey = n;
rightMetricsKey = n;
unicode = 014B;
},
{
color = 5;
glyphname = o;
lastChange = "2016-10-12 22:01:32 +0000";
layers = (
{
anchors = (
{
name = bottom;
position = "{266, 0}";
},
{
name = center;
position = "{266, 234}";
},
{
name = ogonek;
position = "{339, -5}";
},
{
name = top;
position = "{266, 468}";
},
{
name = topright;
position = "{511, 468}";
}
);
background = {
paths = (
{
closed = 1;
nodes = (
"102 286 OFFCURVE",
"118 330 OFFCURVE",
"151 367 CURVE SMOOTH",
"184 404 OFFCURVE",
"222 422 OFFCURVE",
"265 422 CURVE SMOOTH",
"309 422 OFFCURVE",
"347 404 OFFCURVE",
"380 367 CURVE SMOOTH",
"413 330 OFFCURVE",
"430 286 OFFCURVE",
"430 234 CURVE SMOOTH",
"430 183 OFFCURVE",
"413 138 OFFCURVE",
"380 101 CURVE SMOOTH",
"347 64 OFFCURVE",
"309 46 OFFCURVE",
"265 46 CURVE SMOOTH",
"222 46 OFFCURVE",
"184 64 OFFCURVE",
"151 101 CURVE SMOOTH",
"118 138 OFFCURVE",
"102 183 OFFCURVE",
"102 235 CURVE SMOOTH"
);
},
{
closed = 1;
nodes = (
"34 168 OFFCURVE",
"58 109 OFFCURVE",
"106 59 CURVE SMOOTH",
"155 9 OFFCURVE",
"208 -16 OFFCURVE",
"267 -16 CURVE SMOOTH",
"326 -16 OFFCURVE",
"380 9 OFFCURVE",
"427 58 CURVE SMOOTH",
"474 108 OFFCURVE",
"498 167 OFFCURVE",
"498 234 CURVE SMOOTH",
"498 301 OFFCURVE",
"474 360 OFFCURVE",
"426 409 CURVE SMOOTH",
"378 459 OFFCURVE",
"324 484 OFFCURVE",
"265 484 CURVE SMOOTH",
"206 484 OFFCURVE",
"153 459 OFFCURVE",
"105 409 CURVE SMOOTH",
"58 360 OFFCURVE",
"34 302 OFFCURVE",
"34 235 CURVE SMOOTH"
);
}
);
};
layerId = "63224BA1-30A4-42F4-A6D1-9160F56B91B0";
paths = (
{
closed = 1;
nodes = (
"102 345 OFFCURVE",
"170 422 OFFCURVE",
"265 422 CURVE SMOOTH",
"362 422 OFFCURVE",
"430 344 OFFCURVE",
"430 234 CURVE SMOOTH",
"430 124 OFFCURVE",
"362 46 OFFCURVE",
"265 46 CURVE SMOOTH",
"170 46 OFFCURVE",
"102 124 OFFCURVE",
"102 235 CURVE SMOOTH"
);
},
{
closed = 1;
nodes = (
"34 88 OFFCURVE",
"131 -16 OFFCURVE",
"267 -16 CURVE SMOOTH",
"402 -16 OFFCURVE",
"498 88 OFFCURVE",
"498 234 CURVE SMOOTH",
"498 380 OFFCURVE",
"401 484 OFFCURVE",
"265 484 CURVE SMOOTH",
"130 484 OFFCURVE",
"34 381 OFFCURVE",
"34 235 CURVE SMOOTH"
);
}
);
width = 531;
}
);
unicode = 006F;
},
{
color = 5;
glyphname = oslash;
lastChange = "2016-10-12 22:01:32 +0000";
layers = (
{
background = {
anchors = (
{
name = bottom;
position = "{266, 0}";
},
{
name = center;
position = "{266, 234}";
},
{
name = ogonek;
position = "{339, -5}";
},
{
name = top;
position = "{266, 468}";
}
);
paths = (
{
closed = 1;
nodes = (
"102 345 OFFCURVE",
"170 422 OFFCURVE",
"265 422 CURVE SMOOTH",
"362 422 OFFCURVE",
"430 344 OFFCURVE",
"430 234 CURVE SMOOTH",
"430 124 OFFCURVE",
"362 46 OFFCURVE",
"265 46 CURVE SMOOTH",
"170 46 OFFCURVE",
"102 124 OFFCURVE",
"102 235 CURVE SMOOTH"
);
},
{
closed = 1;
nodes = (
"34 88 OFFCURVE",
"131 -16 OFFCURVE",
"267 -16 CURVE SMOOTH",
"402 -16 OFFCURVE",
"498 88 OFFCURVE",
"498 234 CURVE SMOOTH",
"498 380 OFFCURVE",
"401 484 OFFCURVE",
"265 484 CURVE SMOOTH",
"130 484 OFFCURVE",
"34 381 OFFCURVE",
"34 235 CURVE SMOOTH"
);
},
{
closed = 1;
nodes = (
"387 558 LINE",
"108 -39 LINE",
"159 -62 LINE",
"439 535 LINE"
);
}
);
};
components = (
{
name = o;
}
);
layerId = "63224BA1-30A4-42F4-A6D1-9160F56B91B0";
paths = (
{
closed = 1;
nodes = (
"387 558 LINE",
"108 -39 LINE",
"159 -62 LINE",
"439 535 LINE"
);
}
);
width = 531;
}
);
leftMetricsKey = o;
rightMetricsKey = o;
unicode = 00F8;
},
{
color = 5;
glyphname = oe;
lastChange = "2016-10-12 22:01:32 +0000";
layers = (
{
background = {
components = (
{
name = o;
},
{
name = e;
transform = "{1, 0, 0, 1, 396, 0}";
}
);
};
layerId = "63224BA1-30A4-42F4-A6D1-9160F56B91B0";
paths = (
{
closed = 1;
nodes = (
"102 345 OFFCURVE",
"170 422 OFFCURVE",
"265 422 CURVE SMOOTH",
"362 422 OFFCURVE",
"430 344 OFFCURVE",
"430 234 CURVE SMOOTH",
"430 124 OFFCURVE",
"362 46 OFFCURVE",
"265 46 CURVE SMOOTH",
"170 46 OFFCURVE",
"102 124 OFFCURVE",
"102 235 CURVE SMOOTH"
);
},
{
closed = 1;
nodes = (
"34 88 OFFCURVE",
"131 -16 OFFCURVE",
"267 -16 CURVE SMOOTH",
"402 -16 OFFCURVE",
"498 88 OFFCURVE",
"498 234 CURVE SMOOTH",
"498 380 OFFCURVE",
"401 484 OFFCURVE",
"265 484 CURVE SMOOTH",
"130 484 OFFCURVE",
"34 381 OFFCURVE",
"34 235 CURVE SMOOTH"
);
},
{
closed = 1;
nodes = (
"498 140 OFFCURVE",
"498 233 CURVE SMOOTH",
"498 328 OFFCURVE",
"553 422 OFFCURVE",
"661 422 CURVE SMOOTH",
"749 422 OFFCURVE",
"803 374 OFFCURVE",
"816 276 CURVE",
"492 276 LINE",
"481 220 LINE",
"883 220 LINE",
"898 368 OFFCURVE",
"797 484 OFFCURVE",
"661 484 CURVE SMOOTH",
"526 484 OFFCURVE",
"430 380 OFFCURVE",
"430 234 CURVE SMOOTH",
"430 88 OFFCURVE",
"527 -16 OFFCURVE",
"664 -16 CURVE SMOOTH",
"768 -16 OFFCURVE",
"837 30 OFFCURVE",
"879 95 CURVE",
"825 131 LINE",
"795 81 OFFCURVE",
"747 46 OFFCURVE",
"662 46 CURVE SMOOTH",
"552 46 OFFCURVE"
);
}
);
width = 921;
}
);
leftMetricsKey = o;
rightMetricsKey = e;
unicode = 0153;
},
{
color = 5;
glyphname = p;
lastChange = "2016-10-12 22:01:32 +0000";
layers = (
{
anchors = (
{
name = bottom;
position = "{301, 0}";
},
{
name = top;
position = "{301, 468}";
}
);
background = {
paths = (
{
closed = 1;
nodes = (
"460 123 OFFCURVE",
"392 46 OFFCURVE",
"297 46 CURVE SMOOTH",
"200 46 OFFCURVE",
"132 124 OFFCURVE",
"132 234 CURVE SMOOTH",
"132 344 OFFCURVE",
"200 422 OFFCURVE",
"297 422 CURVE SMOOTH",
"392 422 OFFCURVE",
"460 344 OFFCURVE",
"460 233 CURVE SMOOTH"
);
},
{
closed = 1;
nodes = (
"528 380 OFFCURVE",
"431 484 OFFCURVE",
"295 484 CURVE SMOOTH",
"172 484 OFFCURVE",
"84 380 OFFCURVE",
"84 234 CURVE SMOOTH",
"84 88 OFFCURVE",
"173 -16 OFFCURVE",
"297 -16 CURVE SMOOTH",
"432 -16 OFFCURVE",
"528 87 OFFCURVE",
"528 233 CURVE SMOOTH"
);
},
{
closed = 1;
nodes = (
"132 468 LINE",
"64 468 LINE",
"64 -258 LINE",
"132 -258 LINE"
);
}
);
};
layerId = "63224BA1-30A4-42F4-A6D1-9160F56B91B0";
paths = (
{
closed = 1;
nodes = (
"460 123 OFFCURVE",
"392 46 OFFCURVE",
"297 46 CURVE SMOOTH",
"200 46 OFFCURVE",
"132 124 OFFCURVE",
"132 234 CURVE SMOOTH",
"132 344 OFFCURVE",
"200 422 OFFCURVE",
"297 422 CURVE SMOOTH",
"392 422 OFFCURVE",
"460 344 OFFCURVE",
"460 233 CURVE SMOOTH"
);
},
{
closed = 1;
nodes = (
"528 380 OFFCURVE",
"431 484 OFFCURVE",
"295 484 CURVE SMOOTH",
"172 484 OFFCURVE",
"84 380 OFFCURVE",
"84 234 CURVE SMOOTH",
"84 88 OFFCURVE",
"173 -16 OFFCURVE",
"297 -16 CURVE SMOOTH",
"432 -16 OFFCURVE",
"528 87 OFFCURVE",
"528 233 CURVE SMOOTH"
);
},
{
closed = 1;
nodes = (
"132 468 LINE",
"64 468 LINE",
"64 -200 LINE",
"132 -200 LINE"
);
}
);
width = 561;
}
);
unicode = 0070;
},
{
color = 5;
glyphname = thorn;
lastChange = "2016-10-12 22:01:32 +0000";
layers = (
{
background = {
anchors = (
{
name = bottom;
position = "{305, 0}";
},
{
name = top;
position = "{305, 468}";
}
);
paths = (
{
closed = 1;
nodes = (
"464 123 OFFCURVE",
"396 46 OFFCURVE",
"301 46 CURVE SMOOTH",
"204 46 OFFCURVE",
"136 124 OFFCURVE",
"136 234 CURVE SMOOTH",
"136 344 OFFCURVE",
"204 422 OFFCURVE",
"301 422 CURVE SMOOTH",
"396 422 OFFCURVE",
"464 344 OFFCURVE",
"464 233 CURVE SMOOTH"
);
},
{
closed = 1;
nodes = (
"532 380 OFFCURVE",
"435 484 OFFCURVE",
"299 484 CURVE SMOOTH",
"176 484 OFFCURVE",
"88 380 OFFCURVE",
"88 234 CURVE SMOOTH",
"88 88 OFFCURVE",
"177 -16 OFFCURVE",
"301 -16 CURVE SMOOTH",
"436 -16 OFFCURVE",
"532 87 OFFCURVE",
"532 233 CURVE SMOOTH"
);
},
{
closed = 1;
nodes = (
"136 682 LINE",
"68 682 LINE",
"68 -200 LINE",
"136 -200 LINE"
);
}
);
};
layerId = "63224BA1-30A4-42F4-A6D1-9160F56B91B0";
paths = (
{
closed = 1;
nodes = (
"464 123 OFFCURVE",
"396 46 OFFCURVE",
"301 46 CURVE SMOOTH",
"204 46 OFFCURVE",
"136 124 OFFCURVE",
"136 234 CURVE SMOOTH",
"136 344 OFFCURVE",
"204 422 OFFCURVE",
"301 422 CURVE SMOOTH",
"396 422 OFFCURVE",
"464 344 OFFCURVE",
"464 233 CURVE SMOOTH"
);
},
{
closed = 1;
nodes = (
"532 380 OFFCURVE",
"435 484 OFFCURVE",
"299 484 CURVE SMOOTH",
"176 484 OFFCURVE",
"88 380 OFFCURVE",
"88 234 CURVE SMOOTH",
"88 88 OFFCURVE",
"177 -16 OFFCURVE",
"301 -16 CURVE SMOOTH",
"436 -16 OFFCURVE",
"532 87 OFFCURVE",
"532 233 CURVE SMOOTH"
);
},
{
closed = 1;
nodes = (
"136 682 LINE",
"68 682 LINE",
"68 -200 LINE",
"136 -200 LINE"
);
}
);
width = 565;
},
{
associatedMasterId = "63224BA1-30A4-42F4-A6D1-9160F56B91B0";
layerId = "C275831A-A04C-4D35-BD9C-C0D5D8A5B7CA";
name = "Oct 11 16, 16:32";
paths = (
{
closed = 1;
nodes = (
"131 -19 LINE",
"241 8 OFFCURVE",
"328 53 OFFCURVE",
"391 116 CURVE",
"440 163 OFFCURVE",
"474 236 OFFCURVE",
"474 313 CURVE SMOOTH",
"474 418 OFFCURVE",
"406 484 OFFCURVE",
"314 484 CURVE SMOOTH",
"268 484 OFFCURVE",
"226 472 OFFCURVE",
"188 447 CURVE SMOOTH",
"172 437 OFFCURVE",
"153 419 OFFCURVE",
"131 393 CURVE",
"131 623 LINE",
"63 623 LINE",
"63 -200 LINE",
"131 -200 LINE"
);
},
{
closed = 1;
nodes = (
"131 316 LINE",
"191 386 OFFCURVE",
"252 421 OFFCURVE",
"315 421 CURVE SMOOTH",
"355 421 OFFCURVE",
"400 381 OFFCURVE",
"400 312 CURVE SMOOTH",
"400 243 OFFCURVE",
"355 165 OFFCURVE",
"294 116 CURVE SMOOTH",
"241 74 OFFCURVE",
"186 46 OFFCURVE",
"131 32 CURVE"
);
}
);
width = 501;
}
);
leftMetricsKey = l;
rightMetricsKey = p;
unicode = 00FE;
},
{
color = 5;
glyphname = q;
lastChange = "2016-10-12 22:01:32 +0000";
layers = (
{
anchors = (
{
name = bottom;
position = "{281, 0}";
},
{
name = top;
position = "{281, 468}";
}
);
background = {
paths = (
{
closed = 1;
nodes = (
"103 344 OFFCURVE",
"171 422 OFFCURVE",
"266 422 CURVE SMOOTH",
"363 422 OFFCURVE",
"431 344 OFFCURVE",
"431 234 CURVE SMOOTH",
"431 124 OFFCURVE",
"363 46 OFFCURVE",
"266 46 CURVE SMOOTH",
"171 46 OFFCURVE",
"103 123 OFFCURVE",
"103 233 CURVE SMOOTH"
);
},
{
closed = 1;
nodes = (
"35 87 OFFCURVE",
"131 -16 OFFCURVE",
"266 -16 CURVE SMOOTH",
"390 -16 OFFCURVE",
"479 88 OFFCURVE",
"479 234 CURVE SMOOTH",
"479 380 OFFCURVE",
"391 484 OFFCURVE",
"268 484 CURVE SMOOTH",
"132 484 OFFCURVE",
"35 380 OFFCURVE",
"35 233 CURVE SMOOTH"
);
},
{
closed = 1;
nodes = (
"499 -200 LINE",
"499 468 LINE",
"431 468 LINE",
"431 -200 LINE"
);
}
);
};
layerId = "63224BA1-30A4-42F4-A6D1-9160F56B91B0";
paths = (
{
closed = 1;
nodes = (
"103 344 OFFCURVE",
"171 422 OFFCURVE",
"266 422 CURVE SMOOTH",
"363 422 OFFCURVE",
"431 344 OFFCURVE",
"431 234 CURVE SMOOTH",
"431 124 OFFCURVE",
"363 46 OFFCURVE",
"266 46 CURVE SMOOTH",
"171 46 OFFCURVE",
"103 123 OFFCURVE",
"103 233 CURVE SMOOTH"
);
},
{
closed = 1;
nodes = (
"35 87 OFFCURVE",
"131 -16 OFFCURVE",
"266 -16 CURVE SMOOTH",
"390 -16 OFFCURVE",
"479 88 OFFCURVE",
"479 234 CURVE SMOOTH",
"479 380 OFFCURVE",
"391 484 OFFCURVE",
"268 484 CURVE SMOOTH",
"132 484 OFFCURVE",
"35 380 OFFCURVE",
"35 233 CURVE SMOOTH"
);
},
{
closed = 1;
nodes = (
"499 -200 LINE",
"499 468 LINE",
"431 468 LINE",
"431 -200 LINE"
);
}
);
width = 561;
}
);
unicode = 0071;
},
{
color = 5;
glyphname = r;
lastChange = "2016-10-12 22:01:32 +0000";
layers = (
{
anchors = (
{
name = bottom;
position = "{101, 0}";
},
{
name = top;
position = "{250, 468}";
}
);
background = {
guideLines = (
{
angle = 90;
position = "{379, 479}";
}
);
paths = (
{
closed = 1;
nodes = (
"437 375 LINE",
"406 448 OFFCURVE",
"350 484 OFFCURVE",
"270 484 CURVE SMOOTH",
"219 484 OFFCURVE",
"173 460 OFFCURVE",
"131 411 CURVE",
"131 468 LINE",
"63 468 LINE",
"63 0 LINE",
"131 0 LINE",
"131 234 LINE SMOOTH",
"131 286 OFFCURVE",
"143 330 OFFCURVE",
"168 367 CURVE SMOOTH",
"193 404 OFFCURVE",
"228 422 OFFCURVE",
"274 422 CURVE SMOOTH",
"320 422 OFFCURVE",
"354 396 OFFCURVE",
"375 344 CURVE"
);
}
);
};
layerId = "63224BA1-30A4-42F4-A6D1-9160F56B91B0";
paths = (
{
closed = 1;
nodes = (
"131 468 LINE",
"63 468 LINE",
"63 0 LINE",
"131 0 LINE"
);
},
{
closed = 1;
nodes = (
"339 477 LINE",
"323 482 OFFCURVE",
"308 484 OFFCURVE",
"293 484 CURVE SMOOTH",
"178 484 OFFCURVE",
"96 371 OFFCURVE",
"96 214 CURVE",
"131 224 LINE",
"131 353 OFFCURVE",
"209 425 OFFCURVE",
"293 425 CURVE SMOOTH",
"308 425 OFFCURVE",
"324 422 OFFCURVE",
"339 415 CURVE"
);
}
);
width = 339;
}
);
unicode = 0072;
},
{
color = 5;
glyphname = s;
lastChange = "2016-10-12 22:01:32 +0000";
layers = (
{
anchors = (
{
name = bottom;
position = "{232, 0}";
},
{
name = top;
position = "{232, 468}";
}
);
background = {
components = (
{
name = o;
transform = "{1, 0, 0, 1, -30, 0}";
}
);
};
layerId = "63224BA1-30A4-42F4-A6D1-9160F56B91B0";
paths = (
{
closed = 1;
nodes = (
"326 203 OFFCURVE",
"356 177 OFFCURVE",
"356 124 CURVE SMOOTH",
"356 67 OFFCURVE",
"299 46 OFFCURVE",
"236 46 CURVE SMOOTH",
"158 46 OFFCURVE",
"113 78 OFFCURVE",
"91 125 CURVE",
"30 95 LINE",
"66 24 OFFCURVE",
"138 -16 OFFCURVE",
"228 -16 CURVE SMOOTH",
"330 -16 OFFCURVE",
"424 35 OFFCURVE",
"424 132 CURVE SMOOTH",
"424 206 OFFCURVE",
"371 258 OFFCURVE",
"248 269 CURVE SMOOTH",
"146 278 OFFCURVE",
"117 309 OFFCURVE",
"117 349 CURVE SMOOTH",
"117 396 OFFCURVE",
"155 422 OFFCURVE",
"224 422 CURVE SMOOTH",
"293 422 OFFCURVE",
"334 396 OFFCURVE",
"357 344 CURVE",
"418 374 LINE",
"385 447 OFFCURVE",
"323 484 OFFCURVE",
"229 484 CURVE SMOOTH",
"121 484 OFFCURVE",
"53 435 OFFCURVE",
"53 347 CURVE SMOOTH",
"53 274 OFFCURVE",
"98 222 OFFCURVE",
"232 211 CURVE SMOOTH"
);
}
);
width = 464;
}
);
unicode = 0073;
},
{
color = 5;
glyphname = germandbls;
lastChange = "2016-10-12 22:01:32 +0000";
layers = (
{
background = {
guideLines = (
{
angle = 90;
position = "{217, 351}";
}
);
paths = (
{
closed = 0;
nodes = (
"-789 529 LINE",
"-789 652 OFFCURVE",
"-730 710 OFFCURVE",
"-639 710 CURVE SMOOTH",
"-540 710 OFFCURVE",
"-497 641 OFFCURVE",
"-497 563 CURVE SMOOTH",
"-497 452 OFFCURVE",
"-584 407 OFFCURVE",
"-683 407 CURVE SMOOTH"
);
},
{
closed = 0;
nodes = (
"-683 394 LINE",
"-552 394 OFFCURVE",
"-455 347 OFFCURVE",
"-455 200 CURVE SMOOTH",
"-455 60 OFFCURVE",
"-543 -22 OFFCURVE",
"-719 20 CURVE"
);
},
{
closed = 1;
nodes = (
"217 441 LINE",
"217 379 LINE",
"277 379 LINE",
"277 -27 LINE",
"345 -27 LINE",
"345 379 LINE",
"453 379 LINE",
"453 441 LINE"
);
}
);
};
layerId = "63224BA1-30A4-42F4-A6D1-9160F56B91B0";
paths = (
{
closed = 1;
nodes = (
"415 443 OFFCURVE",
"449 496 OFFCURVE",
"449 563 CURVE SMOOTH",
"449 672 OFFCURVE",
"377 744 OFFCURVE",
"271 744 CURVE SMOOTH",
"150 744 OFFCURVE",
"80 664 OFFCURVE",
"80 529 CURVE SMOOTH",
"80 0 LINE",
"148 0 LINE",
"148 529 LINE SMOOTH",
"148 627 OFFCURVE",
"186 676 OFFCURVE",
"271 676 CURVE SMOOTH",
"341 676 OFFCURVE",
"381 635 OFFCURVE",
"381 563 CURVE SMOOTH",
"381 495 OFFCURVE",
"349 441 OFFCURVE",
"237 441 CURVE",
"237 379 LINE",
"377 379 OFFCURVE",
"413 325 OFFCURVE",
"413 220 CURVE SMOOTH",
"413 118 OFFCURVE",
"367 61 OFFCURVE",
"282 61 CURVE SMOOTH",
"260 61 OFFCURVE",
"235 65 OFFCURVE",
"208 73 CURVE",
"194 7 LINE",
"226 -1 OFFCURVE",
"255 -5 OFFCURVE",
"283 -5 CURVE SMOOTH",
"411 -5 OFFCURVE",
"491 78 OFFCURVE",
"491 220 CURVE SMOOTH",
"491 320 OFFCURVE",
"444 393 OFFCURVE",
"344 412 CURVE"
);
}
);
width = 532;
}
);
leftMetricsKey = H;
rightMetricsKey = B;
unicode = 00DF;
},
{
color = 5;
glyphname = t;
lastChange = "2016-10-12 22:01:32 +0000";
layers = (
{
anchors = (
{
name = bottom;
position = "{138, 0}";
},
{
name = center;
position = "{138, 304}";
},
{
name = top;
position = "{138, 468}";
},
{
name = topright;
position = "{255, 468}";
}
);
layerId = "63224BA1-30A4-42F4-A6D1-9160F56B91B0";
paths = (
{
closed = 1;
nodes = (
"88 406 LINE",
"88 0 LINE",
"156 0 LINE",
"156 406 LINE",
"264 406 LINE",
"264 468 LINE",
"156 468 LINE",
"156 623 LINE",
"88 623 LINE",
"88 468 LINE",
"8 468 LINE",
"8 406 LINE"
);
}
);
width = 275;
}
);
unicode = 0074;
},
{
color = 5;
glyphname = tbar;
lastChange = "2016-10-12 22:01:32 +0000";
layers = (
{
components = (
{
name = t;
}
);
guideLines = (
{
angle = 90;
position = "{8, 513}";
},
{
angle = 90;
position = "{264, 513}";
}
);
layerId = "63224BA1-30A4-42F4-A6D1-9160F56B91B0";
paths = (
{
closed = 1;
nodes = (
"8 260 LINE",
"264 260 LINE",
"264 308 LINE",
"8 308 LINE"
);
}
);
width = 275;
}
);
unicode = 0167;
},
{
color = 5;
glyphname = v;
lastChange = "2016-10-12 22:01:32 +0000";
layers = (
{
anchors = (
{
name = bottom;
position = "{228, 0}";
},
{
name = top;
position = "{228, 468}";
}
);
background = {
paths = (
{
closed = 1;
nodes = (
"435 468 LINE",
"364 468 LINE",
"216 46 LINE",
"235 46 LINE",
"90 468 LINE",
"21 468 LINE",
"191 0 LINE",
"266 0 LINE"
);
}
);
};
layerId = "63224BA1-30A4-42F4-A6D1-9160F56B91B0";
paths = (
{
closed = 1;
nodes = (
"265 0 LINE",
"435 468 LINE",
"366 468 LINE",
"221 46 LINE",
"240 46 LINE",
"92 468 LINE",
"21 468 LINE",
"190 0 LINE"
);
}
);
width = 455;
}
);
unicode = 0076;
},
{
color = 5;
glyphname = w;
lastChange = "2016-10-12 22:01:32 +0000";
layers = (
{
anchors = (
{
name = bottom;
position = "{360, 0}";
},
{
name = top;
position = "{360, 468}";
}
);
layerId = "63224BA1-30A4-42F4-A6D1-9160F56B91B0";
paths = (
{
closed = 1;
nodes = (
"238 0 LINE",
"374 397 LINE",
"349 397 LINE",
"475 0 LINE",
"551 0 LINE",
"703 468 LINE",
"633 468 LINE",
"502 60 LINE",
"526 60 LINE",
"396 468 LINE",
"330 468 LINE",
"196 59 LINE",
"220 59 LINE",
"88 468 LINE",
"16 468 LINE",
"170 0 LINE"
);
}
);
width = 719;
}
);
unicode = 0077;
},
{
color = 5;
glyphname = x;
lastChange = "2016-10-12 22:01:32 +0000";
layers = (
{
anchors = (
{
name = bottom;
position = "{231, 0}";
},
{
name = top;
position = "{231, 468}";
}
);
background = {
paths = (
{
closed = 1;
nodes = (
"257 234 LINE",
"271 234 LINE",
"422 468 LINE",
"347 468 LINE",
"205 248 LINE",
"190 248 LINE",
"35 0 LINE",
"111 0 LINE"
);
},
{
closed = 1;
nodes = (
"234 279 LINE",
"117 468 LINE",
"40 468 LINE",
"188 230 LINE"
);
},
{
closed = 1;
nodes = (
"205 230 LINE",
"349 0 LINE",
"427 0 LINE",
"242 294 LINE"
);
}
);
};
layerId = "63224BA1-30A4-42F4-A6D1-9160F56B91B0";
paths = (
{
closed = 1;
nodes = (
"254 234 LINE",
"274 234 LINE",
"425 468 LINE",
"350 468 LINE",
"208 248 LINE",
"187 248 LINE",
"32 0 LINE",
"108 0 LINE"
);
},
{
closed = 1;
nodes = (
"244 264 LINE",
"118 468 LINE",
"41 468 LINE",
"200 212 LINE"
);
},
{
closed = 1;
nodes = (
"208 230 LINE",
"352 0 LINE",
"430 0 LINE",
"245 294 LINE"
);
}
);
width = 462;
}
);
unicode = 0078;
},
{
color = 5;
glyphname = y;
lastChange = "2016-10-12 22:01:32 +0000";
layers = (
{
anchors = (
{
name = bottom;
position = "{225, 0}";
},
{
name = top;
position = "{225, 468}";
}
);
background = {
paths = (
{
closed = 1;
nodes = (
"274 0 LINE",
"444 468 LINE",
"375 468 LINE",
"230 46 LINE",
"249 46 LINE",
"101 468 LINE",
"30 468 LINE",
"199 0 LINE"
);
}
);
};
layerId = "63224BA1-30A4-42F4-A6D1-9160F56B91B0";
paths = (
{
closed = 1;
nodes = (
"243 62 LINE",
"81 468 LINE",
"10 468 LINE",
"210 -30 LINE"
);
},
{
closed = 1;
nodes = (
"128 -200 LINE",
"196 -200 LINE",
"449 468 LINE",
"385 468 LINE"
);
}
);
width = 449;
}
);
unicode = 0079;
},
{
color = 5;
glyphname = z;
lastChange = "2016-10-12 22:01:32 +0000";
layers = (
{
anchors = (
{
name = bottom;
position = "{210, 0}";
},
{
name = top;
position = "{210, 468}";
}
);
layerId = "63224BA1-30A4-42F4-A6D1-9160F56B91B0";
paths = (
{
closed = 1;
nodes = (
"346 406 LINE",
"343 442 LINE",
"37 62 LINE",
"37 0 LINE",
"383 0 LINE",
"383 62 LINE",
"74 62 LINE",
"77 26 LINE",
"383 406 LINE",
"383 468 LINE",
"37 468 LINE",
"37 406 LINE"
);
}
);
width = 420;
}
);
unicode = 007A;
},
{
color = 5;
glyphname = f_f;
lastChange = "2016-10-12 22:01:32 +0000";
layers = (
{
layerId = "63224BA1-30A4-42F4-A6D1-9160F56B91B0";
paths = (
{
closed = 1;
nodes = (
"28 468 LINE",
"28 406 LINE",
"88 406 LINE",
"88 0 LINE",
"156 0 LINE",
"156 406 LINE",
"364 406 LINE",
"364 468 LINE"
);
},
{
closed = 1;
nodes = (
"264 743 LINE",
"236 743 LINE SMOOTH",
"149 743 OFFCURVE",
"88 682 OFFCURVE",
"88 595 CURVE SMOOTH",
"88 75 LINE",
"156 75 LINE",
"156 595 LINE SMOOTH",
"156 645 OFFCURVE",
"189 681 OFFCURVE",
"236 681 CURVE SMOOTH",
"264 681 LINE"
);
},
{
closed = 1;
nodes = (
"303 468 LINE",
"303 406 LINE",
"363 406 LINE",
"363 0 LINE",
"431 0 LINE",
"431 406 LINE",
"539 406 LINE",
"539 468 LINE"
);
},
{
closed = 1;
nodes = (
"539 743 LINE",
"511 743 LINE SMOOTH",
"424 743 OFFCURVE",
"363 682 OFFCURVE",
"363 595 CURVE SMOOTH",
"363 75 LINE",
"431 75 LINE",
"431 595 LINE SMOOTH",
"431 645 OFFCURVE",
"464 681 OFFCURVE",
"511 681 CURVE SMOOTH",
"539 681 LINE"
);
}
);
width = 550;
}
);
leftMetricsKey = f;
rightMetricsKey = f;
},
{
color = 5;
glyphname = f_f_i;
lastChange = "2016-10-12 22:01:32 +0000";
layers = (
{
layerId = "63224BA1-30A4-42F4-A6D1-9160F56B91B0";
paths = (
{
closed = 1;
nodes = (
"28 468 LINE",
"28 406 LINE",
"88 406 LINE",
"88 0 LINE",
"156 0 LINE",
"156 406 LINE",
"364 406 LINE",
"364 468 LINE"
);
},
{
closed = 1;
nodes = (
"264 743 LINE",
"236 743 LINE SMOOTH",
"149 743 OFFCURVE",
"88 682 OFFCURVE",
"88 595 CURVE SMOOTH",
"88 75 LINE",
"156 75 LINE",
"156 595 LINE SMOOTH",
"156 645 OFFCURVE",
"189 681 OFFCURVE",
"236 681 CURVE SMOOTH",
"264 681 LINE"
);
},
{
closed = 1;
nodes = (
"303 468 LINE",
"303 406 LINE",
"363 406 LINE",
"363 0 LINE",
"431 0 LINE",
"431 406 LINE",
"639 406 LINE",
"639 468 LINE"
);
},
{
closed = 1;
nodes = (
"539 743 LINE",
"511 743 LINE SMOOTH",
"424 743 OFFCURVE",
"363 682 OFFCURVE",
"363 595 CURVE SMOOTH",
"363 75 LINE",
"431 75 LINE",
"431 595 LINE SMOOTH",
"431 645 OFFCURVE",
"464 681 OFFCURVE",
"511 681 CURVE SMOOTH",
"539 681 LINE"
);
},
{
closed = 1;
nodes = (
"681 0 LINE",
"681 468 LINE",
"613 468 LINE",
"613 0 LINE"
);
},
{
closed = 1;
nodes = (
"593 583 OFFCURVE",
"616 559 OFFCURVE",
"647 559 CURVE SMOOTH",
"676 559 OFFCURVE",
"701 584 OFFCURVE",
"701 613 CURVE SMOOTH",
"701 644 OFFCURVE",
"676 667 OFFCURVE",
"647 667 CURVE SMOOTH",
"616 667 OFFCURVE",
"593 643 OFFCURVE",
"593 614 CURVE SMOOTH"
);
}
);
width = 743;
}
);
leftMetricsKey = f;
rightMetricsKey = i;
},
{
color = 5;
glyphname = f_f_l;
lastChange = "2016-10-12 22:01:32 +0000";
layers = (
{
background = {
anchors = (
{
name = bottom;
position = "{652, 0}";
},
{
name = center;
position = "{662, 284}";
},
{
name = topright;
position = "{753, 468}";
}
);
paths = (
{
closed = 1;
nodes = (
"303 468 LINE",
"303 406 LINE",
"363 406 LINE",
"363 0 LINE",
"431 0 LINE",
"431 406 LINE",
"539 406 LINE",
"539 468 LINE"
);
},
{
closed = 1;
nodes = (
"686 726 LINE",
"637 735 OFFCURVE",
"582 743 OFFCURVE",
"531 743 CURVE SMOOTH",
"432 743 OFFCURVE",
"363 682 OFFCURVE",
"363 595 CURVE SMOOTH",
"363 75 LINE",
"431 75 LINE",
"431 595 LINE SMOOTH",
"431 645 OFFCURVE",
"472 682 OFFCURVE",
"531 682 CURVE SMOOTH",
"582 682 OFFCURVE",
"635 676 OFFCURVE",
"686 664 CURVE"
);
},
{
closed = 1;
nodes = (
"686 0 LINE",
"686 726 LINE",
"618 726 LINE",
"618 0 LINE"
);
}
);
};
layerId = "63224BA1-30A4-42F4-A6D1-9160F56B91B0";
paths = (
{
closed = 1;
nodes = (
"432 743 OFFCURVE",
"363 682 OFFCURVE",
"363 595 CURVE SMOOTH",
"363 468 LINE",
"156 468 LINE",
"156 595 LINE SMOOTH",
"156 645 OFFCURVE",
"189 681 OFFCURVE",
"236 681 CURVE SMOOTH",
"264 681 LINE",
"264 743 LINE",
"236 743 LINE SMOOTH",
"149 743 OFFCURVE",
"88 682 OFFCURVE",
"88 595 CURVE SMOOTH",
"88 468 LINE",
"28 468 LINE",
"28 406 LINE",
"88 406 LINE",
"88 0 LINE",
"156 0 LINE",
"156 406 LINE",
"363 406 LINE",
"363 0 LINE",
"431 0 LINE",
"431 406 LINE",
"539 406 LINE",
"539 468 LINE",
"431 468 LINE",
"431 595 LINE SMOOTH",
"431 645 OFFCURVE",
"472 682 OFFCURVE",
"531 682 CURVE SMOOTH",
"560 682 OFFCURVE",
"589 680 OFFCURVE",
"618 676 CURVE",
"618 0 LINE",
"686 0 LINE",
"686 726 LINE",
"637 735 OFFCURVE",
"582 743 OFFCURVE",
"531 743 CURVE SMOOTH"
);
}
);
width = 753;
}
);
leftMetricsKey = f;
rightMetricsKey = l;
},
{
color = 5;
glyphname = fi;
lastChange = "2016-10-12 22:01:32 +0000";
layers = (
{
layerId = "63224BA1-30A4-42F4-A6D1-9160F56B91B0";
paths = (
{
closed = 1;
nodes = (
"28 468 LINE",
"28 406 LINE",
"88 406 LINE",
"88 0 LINE",
"156 0 LINE",
"156 406 LINE",
"364 406 LINE",
"364 468 LINE"
);
},
{
closed = 1;
nodes = (
"264 743 LINE",
"236 743 LINE SMOOTH",
"149 743 OFFCURVE",
"88 682 OFFCURVE",
"88 595 CURVE SMOOTH",
"88 75 LINE",
"156 75 LINE",
"156 595 LINE SMOOTH",
"156 645 OFFCURVE",
"189 681 OFFCURVE",
"236 681 CURVE SMOOTH",
"264 681 LINE"
);
},
{
closed = 1;
nodes = (
"406 0 LINE",
"406 468 LINE",
"338 468 LINE",
"338 0 LINE"
);
},
{
closed = 1;
nodes = (
"318 583 OFFCURVE",
"341 559 OFFCURVE",
"372 559 CURVE SMOOTH",
"401 559 OFFCURVE",
"426 584 OFFCURVE",
"426 613 CURVE SMOOTH",
"426 644 OFFCURVE",
"401 667 OFFCURVE",
"372 667 CURVE SMOOTH",
"341 667 OFFCURVE",
"318 643 OFFCURVE",
"318 614 CURVE SMOOTH"
);
}
);
width = 468;
}
);
leftMetricsKey = f;
rightMetricsKey = i;
unicode = FB01;
},
{
color = 5;
glyphname = fl;
lastChange = "2016-10-12 22:01:32 +0000";
layers = (
{
layerId = "63224BA1-30A4-42F4-A6D1-9160F56B91B0";
paths = (
{
closed = 1;
nodes = (
"28 468 LINE",
"28 406 LINE",
"88 406 LINE",
"88 0 LINE",
"156 0 LINE",
"156 406 LINE",
"264 406 LINE",
"264 468 LINE"
);
},
{
closed = 1;
nodes = (
"411 726 LINE",
"362 735 OFFCURVE",
"307 743 OFFCURVE",
"256 743 CURVE SMOOTH",
"157 743 OFFCURVE",
"88 682 OFFCURVE",
"88 595 CURVE SMOOTH",
"88 75 LINE",
"156 75 LINE",
"156 595 LINE SMOOTH",
"156 645 OFFCURVE",
"197 682 OFFCURVE",
"256 682 CURVE SMOOTH",
"307 682 OFFCURVE",
"360 676 OFFCURVE",
"411 664 CURVE"
);
},
{
closed = 1;
nodes = (
"411 0 LINE",
"411 726 LINE",
"343 726 LINE",
"343 0 LINE"
);
}
);
width = 478;
}
);
leftMetricsKey = f;
rightMetricsKey = l;
unicode = FB02;
},
{
color = 5;
glyphname = ordfeminine;
lastChange = "2016-10-12 22:01:32 +0000";
layers = (
{
background = {
paths = (
{
closed = 1;
nodes = (
"276 387 OFFCURVE",
"328 451 OFFCURVE",
"328 542 CURVE SMOOTH",
"328 632 OFFCURVE",
"276 696 OFFCURVE",
"204 696 CURVE SMOOTH",
"120 696 OFFCURVE",
"60 632 OFFCURVE",
"60 542 CURVE SMOOTH",
"60 451 OFFCURVE",
"120 387 OFFCURVE",
"204 387 CURVE SMOOTH"
);
},
{
closed = 1;
nodes = (
"258 649 OFFCURVE",
"297 605 OFFCURVE",
"297 543 CURVE SMOOTH",
"297 479 OFFCURVE",
"258 434 OFFCURVE",
"204 434 CURVE SMOOTH",
"149 434 OFFCURVE",
"110 478 OFFCURVE",
"110 541 CURVE SMOOTH",
"110 604 OFFCURVE",
"148 649 OFFCURVE",
"202 649 CURVE SMOOTH"
);
},
{
closed = 1;
nodes = (
"348 336 LINE",
"60 336 LINE",
"60 285 LINE",
"348 285 LINE"
);
},
{
closed = 1;
nodes = (
"297 396 LINE",
"348 396 LINE",
"348 687 LINE",
"297 687 LINE"
);
}
);
};
layerId = "63224BA1-30A4-42F4-A6D1-9160F56B91B0";
paths = (
{
closed = 1;
nodes = (
"276 387 OFFCURVE",
"328 451 OFFCURVE",
"328 542 CURVE SMOOTH",
"328 632 OFFCURVE",
"276 696 OFFCURVE",
"204 696 CURVE SMOOTH",
"120 696 OFFCURVE",
"60 632 OFFCURVE",
"60 542 CURVE SMOOTH",
"60 451 OFFCURVE",
"120 387 OFFCURVE",
"204 387 CURVE SMOOTH"
);
},
{
closed = 1;
nodes = (
"258 649 OFFCURVE",
"297 605 OFFCURVE",
"297 543 CURVE SMOOTH",
"297 479 OFFCURVE",
"258 434 OFFCURVE",
"204 434 CURVE SMOOTH",
"149 434 OFFCURVE",
"110 478 OFFCURVE",
"110 541 CURVE SMOOTH",
"110 604 OFFCURVE",
"148 649 OFFCURVE",
"202 649 CURVE SMOOTH"
);
},
{
closed = 1;
nodes = (
"348 336 LINE",
"60 336 LINE",
"60 285 LINE",
"348 285 LINE"
);
},
{
closed = 1;
nodes = (
"297 396 LINE",
"348 396 LINE",
"348 687 LINE",
"297 687 LINE"
);
}
);
width = 408;
}
);
unicode = 00AA;
},
{
color = 5;
glyphname = ordmasculine;
lastChange = "2016-10-12 22:01:32 +0000";
layers = (
{
layerId = "63224BA1-30A4-42F4-A6D1-9160F56B91B0";
paths = (
{
closed = 1;
nodes = (
"288 387 OFFCURVE",
"348 451 OFFCURVE",
"348 542 CURVE SMOOTH",
"348 632 OFFCURVE",
"288 696 OFFCURVE",
"204 696 CURVE SMOOTH",
"120 696 OFFCURVE",
"60 632 OFFCURVE",
"60 542 CURVE SMOOTH",
"60 451 OFFCURVE",
"120 387 OFFCURVE",
"204 387 CURVE SMOOTH"
);
},
{
closed = 1;
nodes = (
"258 649 OFFCURVE",
"297 605 OFFCURVE",
"297 543 CURVE SMOOTH",
"297 479 OFFCURVE",
"258 434 OFFCURVE",
"204 434 CURVE SMOOTH",
"149 434 OFFCURVE",
"110 478 OFFCURVE",
"110 541 CURVE SMOOTH",
"110 604 OFFCURVE",
"148 649 OFFCURVE",
"202 649 CURVE SMOOTH"
);
},
{
closed = 1;
nodes = (
"348 336 LINE",
"60 336 LINE",
"60 285 LINE",
"348 285 LINE"
);
}
);
width = 408;
}
);
unicode = 00BA;
},
{
color = 1;
glyphname = zero;
lastChange = "2016-10-12 22:01:32 +0000";
layers = (
{
guideLines = (
{
angle = 180;
position = "{469, 341}";
}
);
layerId = "63224BA1-30A4-42F4-A6D1-9160F56B91B0";
paths = (
{
closed = 1;
nodes = (
"106 513 OFFCURVE",
"174 631 OFFCURVE",
"271 631 CURVE SMOOTH",
"367 631 OFFCURVE",
"435 513 OFFCURVE",
"435 341 CURVE SMOOTH",
"435 168 OFFCURVE",
"367 50 OFFCURVE",
"271 50 CURVE SMOOTH",
"174 50 OFFCURVE",
"106 168 OFFCURVE",
"106 341 CURVE SMOOTH"
);
},
{
closed = 1;
nodes = (
"29 132 OFFCURVE",
"136 -16 OFFCURVE",
"272 -16 CURVE SMOOTH",
"407 -16 OFFCURVE",
"513 132 OFFCURVE",
"513 341 CURVE SMOOTH",
"513 550 OFFCURVE",
"407 697 OFFCURVE",
"271 697 CURVE SMOOTH",
"135 697 OFFCURVE",
"29 550 OFFCURVE",
"29 341 CURVE"
);
}
);
width = 561;
}
);
unicode = 0030;
},
{
color = 1;
glyphname = one;
lastChange = "2016-10-12 22:01:32 +0000";
layers = (
{
layerId = "63224BA1-30A4-42F4-A6D1-9160F56B91B0";
paths = (
{
closed = 1;
nodes = (
"383 682 LINE",
"309 682 LINE",
"109 448 LINE",
"156 398 LINE",
"332 593 LINE",
"309 639 LINE",
"309 0 LINE",
"383 0 LINE"
);
}
);
width = 561;
}
);
unicode = 0031;
},
{
color = 1;
glyphname = two;
lastChange = "2016-10-12 22:01:32 +0000";
layers = (
{
layerId = "63224BA1-30A4-42F4-A6D1-9160F56B91B0";
paths = (
{
closed = 1;
nodes = (
"149 68 LINE",
"163 134 OFFCURVE",
"221 209 OFFCURVE",
"305 268 CURVE SMOOTH",
"411 347 OFFCURVE",
"473 437 OFFCURVE",
"473 512 CURVE SMOOTH",
"473 628 OFFCURVE",
"396 697 OFFCURVE",
"266 697 CURVE SMOOTH",
"192 697 OFFCURVE",
"116 654 OFFCURVE",
"62 580 CURVE",
"117 533 LINE",
"162 593 OFFCURVE",
"218 629 OFFCURVE",
"266 629 CURVE SMOOTH",
"348 629 OFFCURVE",
"396 586 OFFCURVE",
"396 512 CURVE SMOOTH",
"396 459 OFFCURVE",
"350 391 OFFCURVE",
"271 327 CURVE SMOOTH",
"145 226 OFFCURVE",
"70 121 OFFCURVE",
"70 43 CURVE SMOOTH",
"70 0 LINE",
"480 0 LINE",
"480 68 LINE"
);
}
);
width = 561;
}
);
unicode = 0032;
},
{
color = 1;
glyphname = three;
lastChange = "2016-10-12 22:01:32 +0000";
layers = (
{
background = {
anchors = (
{
name = bottom;
position = "{267, 0}";
},
{
name = top;
position = "{267, 682}";
}
);
paths = (
{
closed = 1;
nodes = (
"421 369 OFFCURVE",
"469 432 OFFCURVE",
"469 518 CURVE SMOOTH",
"469 619 OFFCURVE",
"396 697 OFFCURVE",
"293 697 CURVE SMOOTH",
"202 697 OFFCURVE",
"138 643 OFFCURVE",
"103 554 CURVE",
"163 519 LINE",
"195 599 OFFCURVE",
"235 634 OFFCURVE",
"293 634 CURVE SMOOTH",
"354 634 OFFCURVE",
"397 589 OFFCURVE",
"397 518 CURVE SMOOTH",
"397 437 OFFCURVE",
"363 391 OFFCURVE",
"278 391 CURVE SMOOTH",
"234 391 LINE",
"234 329 LINE",
"282 329 LINE SMOOTH",
"374 329 OFFCURVE",
"414 274 OFFCURVE",
"414 186 CURVE SMOOTH",
"414 94 OFFCURVE",
"360 48 OFFCURVE",
"293 49 CURVE SMOOTH",
"223 50 OFFCURVE",
"181 101 OFFCURVE",
"150 179 CURVE",
"90 144 LINE",
"130 37 OFFCURVE",
"200 -16 OFFCURVE",
"296 -16 CURVE SMOOTH",
"402 -16 OFFCURVE",
"488 67 OFFCURVE",
"488 186 CURVE SMOOTH",
"488 288 OFFCURVE",
"435 357 OFFCURVE",
"347 369 CURVE",
"347 355 LINE"
);
}
);
};
layerId = "63224BA1-30A4-42F4-A6D1-9160F56B91B0";
paths = (
{
closed = 1;
nodes = (
"423 369 OFFCURVE",
"477 436 OFFCURVE",
"477 518 CURVE SMOOTH",
"477 623 OFFCURVE",
"401 697 OFFCURVE",
"293 697 CURVE SMOOTH",
"196 697 OFFCURVE",
"120 638 OFFCURVE",
"83 554 CURVE",
"138 524 LINE",
"171 591 OFFCURVE",
"221 634 OFFCURVE",
"293 634 CURVE SMOOTH",
"359 634 OFFCURVE",
"405 586 OFFCURVE",
"405 518 CURVE SMOOTH",
"405 444 OFFCURVE",
"352 391 OFFCURVE",
"278 391 CURVE SMOOTH",
"234 391 LINE",
"234 329 LINE",
"282 329 LINE SMOOTH",
"365 329 OFFCURVE",
"424 270 OFFCURVE",
"424 187 CURVE SMOOTH",
"424 105 OFFCURVE",
"366 48 OFFCURVE",
"287 49 CURVE SMOOTH",
"218 50 OFFCURVE",
"170 95 OFFCURVE",
"140 159 CURVE",
"80 124 LINE",
"113 42 OFFCURVE",
"184 -16 OFFCURVE",
"286 -16 CURVE SMOOTH",
"405 -16 OFFCURVE",
"498 68 OFFCURVE",
"498 187 CURVE SMOOTH",
"498 282 OFFCURVE",
"435 358 OFFCURVE",
"347 369 CURVE",
"347 355 LINE"
);
}
);
width = 561;
}
);
unicode = 0033;
},
{
color = 1;
glyphname = four;
lastChange = "2016-10-12 22:01:32 +0000";
layers = (
{
layerId = "63224BA1-30A4-42F4-A6D1-9160F56B91B0";
paths = (
{
closed = 1;
nodes = (
"356 250 LINE",
"134 250 LINE",
"356 566 LINE"
);
},
{
closed = 1;
nodes = (
"54 250 LINE",
"54 176 LINE",
"356 176 LINE",
"356 0 LINE",
"431 0 LINE",
"431 176 LINE",
"498 176 LINE",
"498 250 LINE",
"431 250 LINE",
"431 682 LINE",
"356 682 LINE"
);
}
);
width = 561;
}
);
unicode = 0034;
},
{
color = 1;
glyphname = five;
lastChange = "2016-10-12 22:01:32 +0000";
layers = (
{
layerId = "63224BA1-30A4-42F4-A6D1-9160F56B91B0";
paths = (
{
closed = 1;
nodes = (
"46 74 LINE",
"94 14 OFFCURVE",
"164 -16 OFFCURVE",
"257 -16 CURVE SMOOTH",
"330 -16 OFFCURVE",
"388 6 OFFCURVE",
"431 49 CURVE SMOOTH",
"474 93 OFFCURVE",
"496 150 OFFCURVE",
"496 220 CURVE SMOOTH",
"496 375 OFFCURVE",
"415 455 OFFCURVE",
"264 455 CURVE SMOOTH",
"232 455 OFFCURVE",
"197 451 OFFCURVE",
"160 443 CURVE",
"160 613 LINE",
"432 613 LINE",
"432 682 LINE",
"86 682 LINE",
"86 355 LINE",
"109 366 OFFCURVE",
"124 373 OFFCURVE",
"133 376 CURVE SMOOTH",
"142 380 OFFCURVE",
"157 384 OFFCURVE",
"180 387 CURVE SMOOTH",
"203 391 OFFCURVE",
"231 393 OFFCURVE",
"264 393 CURVE SMOOTH",
"372 393 OFFCURVE",
"429 323 OFFCURVE",
"429 220 CURVE SMOOTH",
"429 173 OFFCURVE",
"413 132 OFFCURVE",
"380 97 CURVE SMOOTH",
"348 63 OFFCURVE",
"308 46 OFFCURVE",
"259 46 CURVE SMOOTH",
"186 46 OFFCURVE",
"132 68 OFFCURVE",
"99 111 CURVE",
"46 74 LINE"
);
}
);
width = 561;
}
);
unicode = 0035;
},
{
color = 1;
glyphname = six;
lastChange = "2016-10-12 22:01:32 +0000";
layers = (
{
layerId = "63224BA1-30A4-42F4-A6D1-9160F56B91B0";
paths = (
{
closed = 1;
nodes = (
"184 385 OFFCURVE",
"222 402 OFFCURVE",
"269 402 CURVE SMOOTH",
"316 402 OFFCURVE",
"356 384 OFFCURVE",
"388 349 CURVE SMOOTH",
"420 314 OFFCURVE",
"436 273 OFFCURVE",
"436 224 CURVE SMOOTH",
"436 176 OFFCURVE",
"420 134 OFFCURVE",
"388 99 CURVE SMOOTH",
"356 64 OFFCURVE",
"317 46 OFFCURVE",
"271 46 CURVE SMOOTH",
"226 46 OFFCURVE",
"187 64 OFFCURVE",
"155 99 CURVE SMOOTH",
"123 134 OFFCURVE",
"107 176 OFFCURVE",
"107 225 CURVE SMOOTH",
"107 274 OFFCURVE",
"122 315 OFFCURVE",
"153 350 CURVE SMOOTH"
);
},
{
closed = 1;
nodes = (
"166 534 OFFCURVE",
"252 614 OFFCURVE",
"387 633 CURVE",
"387 697 LINE",
"278 690 OFFCURVE",
"192 642 OFFCURVE",
"131 554 CURVE SMOOTH",
"70 467 OFFCURVE",
"39 357 OFFCURVE",
"39 225 CURVE SMOOTH",
"39 156 OFFCURVE",
"62 99 OFFCURVE",
"107 53 CURVE SMOOTH",
"152 7 OFFCURVE",
"206 -16 OFFCURVE",
"268 -16 CURVE SMOOTH",
"331 -16 OFFCURVE",
"385 8 OFFCURVE",
"432 56 CURVE SMOOTH",
"479 105 OFFCURVE",
"503 161 OFFCURVE",
"503 224 CURVE SMOOTH",
"503 287 OFFCURVE",
"480 343 OFFCURVE",
"433 392 CURVE SMOOTH",
"386 441 OFFCURVE",
"333 465 OFFCURVE",
"273 465 CURVE SMOOTH",
"213 465 OFFCURVE",
"164 441 OFFCURVE",
"127 394 CURVE"
);
}
);
width = 561;
}
);
unicode = 0036;
},
{
color = 1;
glyphname = seven;
lastChange = "2016-10-12 22:01:32 +0000";
layers = (
{
layerId = "63224BA1-30A4-42F4-A6D1-9160F56B91B0";
paths = (
{
closed = 1;
nodes = (
"383 613 LINE",
"154 0 LINE",
"225 0 LINE",
"477 682 LINE",
"65 682 LINE",
"65 613 LINE"
);
}
);
width = 561;
}
);
unicode = 0037;
},
{
color = 1;
glyphname = eight;
lastChange = "2016-10-12 22:01:32 +0000";
layers = (
{
layerId = "63224BA1-30A4-42F4-A6D1-9160F56B91B0";
paths = (
{
closed = 1;
nodes = (
"474 576 OFFCURVE",
"454 619 OFFCURVE",
"413 650 CURVE SMOOTH",
"372 681 OFFCURVE",
"325 697 OFFCURVE",
"271 697 CURVE SMOOTH",
"218 697 OFFCURVE",
"170 681 OFFCURVE",
"129 650 CURVE SMOOTH",
"88 619 OFFCURVE",
"68 576 OFFCURVE",
"68 519 CURVE SMOOTH",
"68 448 OFFCURVE",
"104 399 OFFCURVE",
"177 373 CURVE",
"150 365 OFFCURVE",
"125 353 OFFCURVE",
"104 337 CURVE SMOOTH",
"61 304 OFFCURVE",
"39 256 OFFCURVE",
"39 194 CURVE SMOOTH",
"39 133 OFFCURVE",
"61 82 OFFCURVE",
"105 43 CURVE SMOOTH",
"150 4 OFFCURVE",
"205 -16 OFFCURVE",
"272 -16 CURVE SMOOTH",
"339 -16 OFFCURVE",
"394 4 OFFCURVE",
"437 43 CURVE SMOOTH",
"481 82 OFFCURVE",
"503 133 OFFCURVE",
"503 194 CURVE SMOOTH",
"503 256 OFFCURVE",
"481 304 OFFCURVE",
"438 337 CURVE SMOOTH",
"417 352 OFFCURVE",
"393 364 OFFCURVE",
"366 373 CURVE",
"438 399 OFFCURVE",
"474 448 OFFCURVE",
"474 519 CURVE SMOOTH"
);
},
{
closed = 1;
nodes = (
"111 289 OFFCURVE",
"174 339 OFFCURVE",
"271 339 CURVE SMOOTH",
"370 339 OFFCURVE",
"430 290 OFFCURVE",
"430 195 CURVE SMOOTH",
"430 102 OFFCURVE",
"369 51 OFFCURVE",
"270 51 CURVE SMOOTH",
"173 51 OFFCURVE",
"111 101 OFFCURVE",
"111 196 CURVE SMOOTH"
);
},
{
closed = 1;
nodes = (
"199 621 OFFCURVE",
"231 630 OFFCURVE",
"271 630 CURVE SMOOTH",
"312 630 OFFCURVE",
"343 621 OFFCURVE",
"366 602 CURVE SMOOTH",
"389 583 OFFCURVE",
"400 555 OFFCURVE",
"400 518 CURVE SMOOTH",
"400 481 OFFCURVE",
"389 453 OFFCURVE",
"366 434 CURVE SMOOTH",
"343 415 OFFCURVE",
"312 406 OFFCURVE",
"272 406 CURVE SMOOTH",
"232 406 OFFCURVE",
"200 416 OFFCURVE",
"176 435 CURVE SMOOTH",
"153 454 OFFCURVE",
"141 482 OFFCURVE",
"141 519 CURVE SMOOTH",
"141 556 OFFCURVE",
"153 583 OFFCURVE",
"176 602 CURVE SMOOTH"
);
}
);
width = 561;
}
);
unicode = 0038;
},
{
color = 1;
glyphname = nine;
lastChange = "2016-10-12 22:01:32 +0000";
layers = (
{
layerId = "63224BA1-30A4-42F4-A6D1-9160F56B91B0";
paths = (
{
closed = 1;
nodes = (
"358 297 OFFCURVE",
"319 279 OFFCURVE",
"272 279 CURVE SMOOTH",
"225 279 OFFCURVE",
"186 297 OFFCURVE",
"154 332 CURVE SMOOTH",
"122 367 OFFCURVE",
"106 409 OFFCURVE",
"106 457 CURVE SMOOTH",
"106 505 OFFCURVE",
"122 547 OFFCURVE",
"154 582 CURVE SMOOTH",
"186 618 OFFCURVE",
"225 636 OFFCURVE",
"270 636 CURVE SMOOTH",
"316 636 OFFCURVE",
"355 618 OFFCURVE",
"387 582 CURVE SMOOTH",
"419 547 OFFCURVE",
"435 505 OFFCURVE",
"435 456 CURVE SMOOTH",
"435 408 OFFCURVE",
"420 367 OFFCURVE",
"389 332 CURVE SMOOTH"
);
},
{
closed = 1;
nodes = (
"376 148 OFFCURVE",
"290 68 OFFCURVE",
"155 49 CURVE",
"155 -16 LINE",
"264 -8 OFFCURVE",
"350 40 OFFCURVE",
"411 127 CURVE SMOOTH",
"472 215 OFFCURVE",
"503 325 OFFCURVE",
"503 457 CURVE SMOOTH",
"503 526 OFFCURVE",
"480 583 OFFCURVE",
"435 628 CURVE SMOOTH",
"390 674 OFFCURVE",
"336 697 OFFCURVE",
"273 697 CURVE SMOOTH",
"211 697 OFFCURVE",
"156 673 OFFCURVE",
"109 625 CURVE SMOOTH",
"62 577 OFFCURVE",
"39 521 OFFCURVE",
"39 457 CURVE SMOOTH",
"39 394 OFFCURVE",
"62 338 OFFCURVE",
"109 289 CURVE SMOOTH",
"156 241 OFFCURVE",
"209 217 OFFCURVE",
"269 217 CURVE SMOOTH",
"329 217 OFFCURVE",
"378 241 OFFCURVE",
"415 288 CURVE"
);
}
);
width = 561;
}
);
unicode = 0039;
},
{
color = 1;
glyphname = onesuperior;
lastChange = "2016-10-12 22:01:32 +0000";
layers = (
{
layerId = "63224BA1-30A4-42F4-A6D1-9160F56B91B0";
paths = (
{
closed = 1;
nodes = (
"12 520 LINE",
"48 506 LINE",
"105 559 LINE",
"105 260 LINE",
"162 260 LINE",
"162 682 LINE",
"108 682 LINE"
);
}
);
width = 222;
}
);
unicode = 00B9;
},
{
color = 1;
glyphname = twosuperior;
lastChange = "2016-10-12 22:01:32 +0000";
layers = (
{
layerId = "63224BA1-30A4-42F4-A6D1-9160F56B91B0";
paths = (
{
closed = 1;
nodes = (
"84 574 LINE",
"107 605 OFFCURVE",
"113 613 OFFCURVE",
"134 625 CURVE SMOOTH",
"145 632 OFFCURVE",
"158 635 OFFCURVE",
"171 635 CURVE SMOOTH",
"220 635 OFFCURVE",
"244 614 OFFCURVE",
"244 571 CURVE SMOOTH",
"244 534 OFFCURVE",
"225 510 OFFCURVE",
"170 466 CURVE SMOOTH",
"88 401 OFFCURVE",
"47 342 OFFCURVE",
"47 290 CURVE SMOOTH",
"47 258 LINE",
"307 258 LINE",
"307 312 LINE",
"111 312 LINE",
"124 349 OFFCURVE",
"153 385 OFFCURVE",
"199 420 CURVE SMOOTH",
"275 476 OFFCURVE",
"302 512 OFFCURVE",
"302 571 CURVE SMOOTH",
"302 646 OFFCURVE",
"251 689 OFFCURVE",
"171 689 CURVE SMOOTH",
"116 689 OFFCURVE",
"81 666 OFFCURVE",
"40 611 CURVE"
);
}
);
width = 355;
}
);
unicode = 00B2;
},
{
color = 1;
glyphname = threesuperior;
lastChange = "2016-10-12 22:01:32 +0000";
layers = (
{
layerId = "63224BA1-30A4-42F4-A6D1-9160F56B91B0";
paths = (
{
closed = 1;
nodes = (
"91 593 LINE",
"112 622 OFFCURVE",
"136 636 OFFCURVE",
"163 636 CURVE SMOOTH",
"206 636 OFFCURVE",
"231 612 OFFCURVE",
"231 576 CURVE SMOOTH",
"231 540 OFFCURVE",
"177 514 OFFCURVE",
"117 514 CURVE",
"117 460 LINE",
"202 460 OFFCURVE",
"245 433 OFFCURVE",
"245 379 CURVE SMOOTH",
"245 332 OFFCURVE",
"213 308 OFFCURVE",
"149 308 CURVE SMOOTH",
"119 308 OFFCURVE",
"92 323 OFFCURVE",
"67 353 CURVE",
"24 318 LINE",
"55 281 OFFCURVE",
"102 254 OFFCURVE",
"149 254 CURVE SMOOTH",
"189 254 OFFCURVE",
"225 264 OFFCURVE",
"256 285 CURVE SMOOTH",
"287 306 OFFCURVE",
"303 338 OFFCURVE",
"303 379 CURVE SMOOTH",
"303 427 OFFCURVE",
"278 464 OFFCURVE",
"229 490 CURVE",
"269 515 OFFCURVE",
"289 544 OFFCURVE",
"289 576 CURVE SMOOTH",
"289 643 OFFCURVE",
"234 689 OFFCURVE",
"163 689 CURVE SMOOTH",
"123 689 OFFCURVE",
"72 664 OFFCURVE",
"48 627 CURVE"
);
}
);
width = 340;
}
);
unicode = 00B3;
},
{
color = 5;
glyphname = fraction;
lastChange = "2016-10-12 22:01:32 +0000";
layers = (
{
layerId = "63224BA1-30A4-42F4-A6D1-9160F56B91B0";
paths = (
{
closed = 1;
nodes = (
"198 682 LINE",
"-50 0 LINE",
"12 0 LINE",
"260 682 LINE"
);
}
);
width = 260;
}
);
unicode = 2044;
},
{
color = 1;
glyphname = onehalf;
lastChange = "2016-10-12 22:01:32 +0000";
layers = (
{
layerId = "63224BA1-30A4-42F4-A6D1-9160F56B91B0";
paths = (
{
closed = 1;
nodes = (
"466 316 LINE",
"487 347 OFFCURVE",
"495 355 OFFCURVE",
"516 367 CURVE SMOOTH",
"527 374 OFFCURVE",
"540 377 OFFCURVE",
"553 377 CURVE SMOOTH",
"602 377 OFFCURVE",
"626 356 OFFCURVE",
"626 313 CURVE SMOOTH",
"626 276 OFFCURVE",
"607 252 OFFCURVE",
"552 208 CURVE SMOOTH",
"470 143 OFFCURVE",
"429 84 OFFCURVE",
"429 32 CURVE SMOOTH",
"429 0 LINE",
"689 0 LINE",
"689 55 LINE",
"493 55 LINE",
"505 91 OFFCURVE",
"534 127 OFFCURVE",
"581 162 CURVE SMOOTH",
"657 218 OFFCURVE",
"684 256 OFFCURVE",
"684 313 CURVE SMOOTH",
"684 388 OFFCURVE",
"633 432 OFFCURVE",
"553 432 CURVE SMOOTH",
"498 432 OFFCURVE",
"463 409 OFFCURVE",
"422 354 CURVE"
);
},
{
closed = 1;
nodes = (
"410 682 LINE",
"162 0 LINE",
"224 0 LINE",
"472 682 LINE"
);
},
{
closed = 1;
nodes = (
"29 520 LINE",
"65 506 LINE",
"122 559 LINE",
"122 260 LINE",
"179 260 LINE",
"179 682 LINE",
"125 682 LINE"
);
}
);
width = 732;
}
);
unicode = 00BD;
},
{
color = 1;
glyphname = onequarter;
lastChange = "2016-10-12 22:01:32 +0000";
layers = (
{
layerId = "63224BA1-30A4-42F4-A6D1-9160F56B91B0";
paths = (
{
closed = 1;
nodes = (
"410 682 LINE",
"162 0 LINE",
"224 0 LINE",
"472 682 LINE"
);
},
{
closed = 1;
nodes = (
"29 520 LINE",
"65 506 LINE",
"122 559 LINE",
"122 260 LINE",
"179 260 LINE",
"179 682 LINE",
"125 682 LINE"
);
},
{
closed = 1;
nodes = (
"552 163 LINE",
"439 163 LINE",
"552 324 LINE"
);
},
{
closed = 1;
nodes = (
"371 158 LINE",
"371 105 LINE",
"552 105 LINE",
"552 0 LINE",
"611 0 LINE",
"611 105 LINE",
"651 105 LINE",
"651 163 LINE",
"611 163 LINE",
"611 422 LINE",
"555 422 LINE"
);
}
);
width = 690;
}
);
unicode = 00BC;
},
{
color = 1;
glyphname = threequarters;
lastChange = "2016-10-12 22:01:32 +0000";
layers = (
{
layerId = "63224BA1-30A4-42F4-A6D1-9160F56B91B0";
paths = (
{
closed = 1;
nodes = (
"98 593 LINE",
"119 622 OFFCURVE",
"143 636 OFFCURVE",
"170 636 CURVE SMOOTH",
"213 636 OFFCURVE",
"238 612 OFFCURVE",
"238 576 CURVE SMOOTH",
"238 540 OFFCURVE",
"184 514 OFFCURVE",
"124 514 CURVE",
"124 460 LINE",
"209 460 OFFCURVE",
"252 433 OFFCURVE",
"252 379 CURVE SMOOTH",
"252 332 OFFCURVE",
"220 308 OFFCURVE",
"156 308 CURVE SMOOTH",
"125 308 OFFCURVE",
"98 323 OFFCURVE",
"74 353 CURVE",
"31 318 LINE",
"62 281 OFFCURVE",
"109 254 OFFCURVE",
"156 254 CURVE SMOOTH",
"196 254 OFFCURVE",
"232 264 OFFCURVE",
"263 285 CURVE SMOOTH",
"294 306 OFFCURVE",
"310 338 OFFCURVE",
"310 379 CURVE SMOOTH",
"310 428 OFFCURVE",
"285 465 OFFCURVE",
"236 490 CURVE",
"276 515 OFFCURVE",
"296 543 OFFCURVE",
"296 576 CURVE SMOOTH",
"296 643 OFFCURVE",
"241 689 OFFCURVE",
"170 689 CURVE SMOOTH",
"130 689 OFFCURVE",
"79 664 OFFCURVE",
"55 627 CURVE"
);
},
{
closed = 1;
nodes = (
"496 682 LINE",
"248 0 LINE",
"310 0 LINE",
"558 682 LINE"
);
},
{
closed = 1;
nodes = (
"638 163 LINE",
"525 163 LINE",
"638 324 LINE"
);
},
{
closed = 1;
nodes = (
"457 158 LINE",
"457 105 LINE",
"638 105 LINE",
"638 0 LINE",
"697 0 LINE",
"697 105 LINE",
"737 105 LINE",
"737 163 LINE",
"697 163 LINE",
"697 422 LINE",
"641 422 LINE"
);
}
);
width = 772;
}
);
unicode = 00BE;
},
{
color = 1;
glyphname = asterisk;
lastChange = "2016-10-12 22:01:32 +0000";
layers = (
{
layerId = "63224BA1-30A4-42F4-A6D1-9160F56B91B0";
paths = (
{
closed = 1;
nodes = (
"259 666 LINE",
"218 689 LINE",
"175 614 LINE",
"131 689 LINE",
"90 666 LINE",
"133 591 LINE",
"46 591 LINE",
"46 544 LINE",
"134 544 LINE",
"90 468 LINE",
"131 444 LINE",
"175 519 LINE",
"218 444 LINE",
"259 468 LINE",
"215 544 LINE",
"302 544 LINE",
"302 591 LINE",
"216 591 LINE"
);
}
);
width = 348;
}
);
unicode = 002A;
},
{
color = 1;
glyphname = backslash;
lastChange = "2016-10-12 22:01:32 +0000";
layers = (
{
layerId = "63224BA1-30A4-42F4-A6D1-9160F56B91B0";
paths = (
{
closed = 1;
nodes = (
"281 0 LINE",
"343 0 LINE",
"95 682 LINE",
"33 682 LINE"
);
}
);
width = 377;
}
);
unicode = 005C;
},
{
color = 1;
glyphname = periodcentered;
lastChange = "2016-10-12 22:01:32 +0000";
layers = (
{
layerId = "63224BA1-30A4-42F4-A6D1-9160F56B91B0";
paths = (
{
closed = 1;
nodes = (
"56 223 OFFCURVE",
"81 199 OFFCURVE",
"110 199 CURVE SMOOTH",
"141 199 OFFCURVE",
"164 224 OFFCURVE",
"164 253 CURVE SMOOTH",
"164 284 OFFCURVE",
"141 308 OFFCURVE",
"110 308 CURVE SMOOTH",
"81 308 OFFCURVE",
"56 283 OFFCURVE",
"56 254 CURVE SMOOTH"
);
}
);
width = 220;
}
);
unicode = 00B7;
},
{
color = 1;
glyphname = bullet;
lastChange = "2016-10-12 22:01:32 +0000";
layers = (
{
layerId = "63224BA1-30A4-42F4-A6D1-9160F56B91B0";
paths = (
{
closed = 1;
nodes = (
"42 203 OFFCURVE",
"54 174 OFFCURVE",
"77 149 CURVE",
"101 125 OFFCURVE",
"130 113 OFFCURVE",
"165 113 CURVE SMOOTH",
"200 113 OFFCURVE",
"229 125 OFFCURVE",
"252 149 CURVE SMOOTH",
"276 174 OFFCURVE",
"288 203 OFFCURVE",
"288 236 CURVE SMOOTH",
"288 270 OFFCURVE",
"276 299 OFFCURVE",
"252 323 CURVE SMOOTH",
"229 347 OFFCURVE",
"200 359 OFFCURVE",
"165 359 CURVE SMOOTH",
"130 359 OFFCURVE",
"101 347 OFFCURVE",
"77 323 CURVE SMOOTH",
"54 299 OFFCURVE",
"42 270 OFFCURVE",
"42 237 CURVE SMOOTH"
);
}
);
width = 329;
}
);
unicode = 2022;
},
{
color = 1;
glyphname = colon;
lastChange = "2016-10-12 22:01:32 +0000";
layers = (
{
layerId = "63224BA1-30A4-42F4-A6D1-9160F56B91B0";
paths = (
{
closed = 1;
nodes = (
"56 16 OFFCURVE",
"81 -8 OFFCURVE",
"110 -8 CURVE SMOOTH",
"141 -8 OFFCURVE",
"164 17 OFFCURVE",
"164 46 CURVE SMOOTH",
"164 77 OFFCURVE",
"141 101 OFFCURVE",
"110 101 CURVE SMOOTH",
"81 101 OFFCURVE",
"56 76 OFFCURVE",
"56 47 CURVE SMOOTH"
);
},
{
closed = 1;
nodes = (
"56 389 OFFCURVE",
"81 363 OFFCURVE",
"110 363 CURVE SMOOTH",
"141 363 OFFCURVE",
"164 389 OFFCURVE",
"164 418 CURVE SMOOTH",
"164 447 OFFCURVE",
"141 472 OFFCURVE",
"110 472 CURVE SMOOTH",
"81 472 OFFCURVE",
"56 447 OFFCURVE",
"56 418 CURVE SMOOTH"
);
}
);
width = 220;
}
);
unicode = 003A;
},
{
color = 1;
glyphname = comma;
lastChange = "2016-10-12 22:01:32 +0000";
layers = (
{
layerId = "63224BA1-30A4-42F4-A6D1-9160F56B91B0";
paths = (
{
closed = 1;
nodes = (
"47 14 OFFCURVE",
"73 -8 OFFCURVE",
"104 -8 CURVE",
"104 -50 OFFCURVE",
"84 -84 OFFCURVE",
"48 -108 CURVE",
"58 -127 LINE",
"117 -96 OFFCURVE",
"158 -29 OFFCURVE",
"158 36 CURVE SMOOTH",
"158 73 OFFCURVE",
"135 101 OFFCURVE",
"101 101 CURVE SMOOTH",
"70 101 OFFCURVE",
"47 81 OFFCURVE",
"47 47 CURVE SMOOTH"
);
}
);
width = 204;
}
);
unicode = 002C;
},
{
color = 1;
glyphname = ellipsis;
lastChange = "2016-10-12 22:01:32 +0000";
layers = (
{
layerId = "63224BA1-30A4-42F4-A6D1-9160F56B91B0";
paths = (
{
closed = 1;
nodes = (
"48 16 OFFCURVE",
"72 -8 OFFCURVE",
"101 -8 CURVE SMOOTH",
"132 -8 OFFCURVE",
"156 17 OFFCURVE",
"156 46 CURVE SMOOTH",
"156 77 OFFCURVE",
"132 101 OFFCURVE",
"101 101 CURVE SMOOTH",
"72 101 OFFCURVE",
"48 76 OFFCURVE",
"48 47 CURVE SMOOTH"
);
},
{
closed = 1;
nodes = (
"243 16 OFFCURVE",
"267 -8 OFFCURVE",
"296 -8 CURVE SMOOTH",
"327 -8 OFFCURVE",
"351 17 OFFCURVE",
"351 46 CURVE SMOOTH",
"351 77 OFFCURVE",
"327 101 OFFCURVE",
"296 101 CURVE SMOOTH",
"267 101 OFFCURVE",
"243 76 OFFCURVE",
"243 47 CURVE SMOOTH"
);
},
{
closed = 1;
nodes = (
"439 16 OFFCURVE",
"464 -8 OFFCURVE",
"493 -8 CURVE SMOOTH",
"524 -8 OFFCURVE",
"547 17 OFFCURVE",
"547 46 CURVE SMOOTH",
"547 77 OFFCURVE",
"524 101 OFFCURVE",
"493 101 CURVE SMOOTH",
"464 101 OFFCURVE",
"439 76 OFFCURVE",
"439 47 CURVE SMOOTH"
);
}
);
width = 595;
}
);
unicode = 2026;
},
{
color = 1;
glyphname = exclam;
lastChange = "2016-10-12 22:01:32 +0000";
layers = (
{
layerId = "63224BA1-30A4-42F4-A6D1-9160F56B91B0";
paths = (
{
closed = 1;
nodes = (
"63 16 OFFCURVE",
"88 -8 OFFCURVE",
"117 -8 CURVE SMOOTH",
"148 -8 OFFCURVE",
"171 17 OFFCURVE",
"171 46 CURVE SMOOTH",
"171 77 OFFCURVE",
"148 101 OFFCURVE",
"117 101 CURVE SMOOTH",
"88 101 OFFCURVE",
"63 76 OFFCURVE",
"63 47 CURVE SMOOTH"
);
},
{
closed = 1;
nodes = (
"150 186 LINE",
"150 682 LINE",
"82 682 LINE",
"82 186 LINE"
);
}
);
width = 232;
}
);
unicode = 0021;
},
{
color = 1;
glyphname = exclamdown;
lastChange = "2016-10-12 22:01:32 +0000";
layers = (
{
layerId = "63224BA1-30A4-42F4-A6D1-9160F56B91B0";
paths = (
{
closed = 1;
nodes = (
"168 559 OFFCURVE",
"146 584 OFFCURVE",
"115 584 CURVE SMOOTH",
"86 584 OFFCURVE",
"60 560 OFFCURVE",
"60 529 CURVE SMOOTH",
"60 500 OFFCURVE",
"86 476 OFFCURVE",
"115 476 CURVE SMOOTH",
"146 476 OFFCURVE",
"168 499 OFFCURVE",
"168 530 CURVE SMOOTH"
);
},
{
closed = 1;
nodes = (
"82 391 LINE",
"82 -105 LINE",
"150 -105 LINE",
"150 391 LINE"
);
}
);
width = 230;
}
);
unicode = 00A1;
},
{
color = 1;
glyphname = numbersign;
lastChange = "2016-10-12 22:01:32 +0000";
layers = (
{
layerId = "63224BA1-30A4-42F4-A6D1-9160F56B91B0";
paths = (
{
closed = 1;
nodes = (
"59 479 LINE",
"59 410 LINE",
"146 410 LINE",
"135 234 LINE",
"39 234 LINE",
"39 166 LINE",
"131 166 LINE",
"120 0 LINE",
"187 0 LINE",
"198 166 LINE",
"322 166 LINE",
"311 0 LINE",
"379 0 LINE",
"390 166 LINE",
"481 166 LINE",
"481 234 LINE",
"394 234 LINE",
"405 410 LINE",
"501 410 LINE",
"501 479 LINE",
"410 479 LINE",
"420 643 LINE",
"352 643 LINE",
"342 479 LINE",
"218 479 LINE",
"228 643 LINE",
"161 643 LINE",
"151 479 LINE"
);
},
{
closed = 1;
nodes = (
"337 410 LINE",
"326 234 LINE",
"202 234 LINE",
"213 410 LINE"
);
}
);
width = 539;
}
);
unicode = 0023;
},
{
color = 1;
glyphname = period;
lastChange = "2016-10-12 22:01:32 +0000";
layers = (
{
layerId = "63224BA1-30A4-42F4-A6D1-9160F56B91B0";
paths = (
{
closed = 1;
nodes = (
"48 16 OFFCURVE",
"72 -8 OFFCURVE",
"101 -8 CURVE SMOOTH",
"132 -8 OFFCURVE",
"156 17 OFFCURVE",
"156 46 CURVE SMOOTH",
"156 77 OFFCURVE",
"132 101 OFFCURVE",
"101 101 CURVE SMOOTH",
"72 101 OFFCURVE",
"48 76 OFFCURVE",
"48 47 CURVE SMOOTH"
);
}
);
width = 203;
}
);
unicode = 002E;
},
{
color = 1;
glyphname = question;
lastChange = "2016-10-12 22:01:32 +0000";
layers = (
{
layerId = "63224BA1-30A4-42F4-A6D1-9160F56B91B0";
paths = (
{
closed = 1;
nodes = (
"237 -8 OFFCURVE",
"264 18 OFFCURVE",
"264 46 CURVE SMOOTH",
"264 75 OFFCURVE",
"238 101 OFFCURVE",
"209 101 CURVE SMOOTH",
"181 101 OFFCURVE",
"155 75 OFFCURVE",
"155 46 CURVE SMOOTH",
"155 17 OFFCURVE",
"181 -8 OFFCURVE",
"209 -8 CURVE SMOOTH"
);
},
{
closed = 1;
nodes = (
"342 575 OFFCURVE",
"354 541 OFFCURVE",
"354 497 CURVE SMOOTH",
"354 453 OFFCURVE",
"339 419 OFFCURVE",
"308 396 CURVE SMOOTH",
"281 377 OFFCURVE",
"248 352 OFFCURVE",
"221 327 CURVE SMOOTH",
"196 303 OFFCURVE",
"176 251 OFFCURVE",
"176 186 CURVE",
"244 186 LINE",
"244 272 OFFCURVE",
"289 302 OFFCURVE",
"333 336 CURVE SMOOTH",
"378 370 OFFCURVE",
"422 408 OFFCURVE",
"422 504 CURVE SMOOTH",
"422 559 OFFCURVE",
"402 604 OFFCURVE",
"362 641 CURVE SMOOTH",
"323 678 OFFCURVE",
"278 697 OFFCURVE",
"227 697 CURVE SMOOTH",
"127 697 OFFCURVE",
"58 635 OFFCURVE",
"29 559 CURVE",
"92 539 LINE",
"109 596 OFFCURVE",
"153 635 OFFCURVE",
"225 635 CURVE SMOOTH",
"261 635 OFFCURVE",
"292 623 OFFCURVE",
"317 599 CURVE SMOOTH"
);
}
);
width = 461;
}
);
unicode = 003F;
},
{
color = 1;
glyphname = questiondown;
lastChange = "2016-10-12 22:01:32 +0000";
layers = (
{
layerId = "63224BA1-30A4-42F4-A6D1-9160F56B91B0";
paths = (
{
closed = 1;
nodes = (
"222 600 OFFCURVE",
"196 573 OFFCURVE",
"196 544 CURVE SMOOTH",
"196 516 OFFCURVE",
"222 491 OFFCURVE",
"250 491 CURVE SMOOTH",
"279 491 OFFCURVE",
"305 516 OFFCURVE",
"305 545 CURVE SMOOTH",
"305 574 OFFCURVE",
"279 600 OFFCURVE",
"251 600 CURVE SMOOTH"
);
},
{
closed = 1;
nodes = (
"119 17 OFFCURVE",
"106 51 OFFCURVE",
"106 95 CURVE SMOOTH",
"106 139 OFFCURVE",
"121 172 OFFCURVE",
"152 195 CURVE SMOOTH",
"179 215 OFFCURVE",
"213 240 OFFCURVE",
"238 264 CURVE SMOOTH",
"265 289 OFFCURVE",
"284 339 OFFCURVE",
"284 406 CURVE",
"216 406 LINE",
"216 320 OFFCURVE",
"171 290 OFFCURVE",
"127 255 CURVE",
"82 221 OFFCURVE",
"38 184 OFFCURVE",
"38 88 CURVE SMOOTH",
"38 33 OFFCURVE",
"58 -12 OFFCURVE",
"97 -49 CURVE SMOOTH",
"137 -86 OFFCURVE",
"182 -105 OFFCURVE",
"232 -105 CURVE SMOOTH",
"333 -105 OFFCURVE",
"402 -43 OFFCURVE",
"431 33 CURVE",
"368 53 LINE",
"349 -4 OFFCURVE",
"307 -43 OFFCURVE",
"235 -43 CURVE SMOOTH",
"199 -43 OFFCURVE",
"169 -31 OFFCURVE",
"144 -7 CURVE SMOOTH"
);
}
);
width = 461;
}
);
unicode = 00BF;
},
{
color = 1;
glyphname = quotedbl;
lastChange = "2016-10-12 22:01:32 +0000";
layers = (
{
layerId = "63224BA1-30A4-42F4-A6D1-9160F56B91B0";
paths = (
{
closed = 1;
nodes = (
"271 424 LINE",
"271 682 LINE",
"203 682 LINE",
"203 424 LINE"
);
},
{
closed = 1;
nodes = (
"127 424 LINE",
"127 682 LINE",
"59 682 LINE",
"59 424 LINE"
);
}
);
width = 329;
}
);
unicode = 0022;
},
{
color = 1;
glyphname = quotesingle;
lastChange = "2016-10-12 22:01:32 +0000";
layers = (
{
layerId = "63224BA1-30A4-42F4-A6D1-9160F56B91B0";
paths = (
{
closed = 1;
nodes = (
"127 424 LINE",
"127 682 LINE",
"59 682 LINE",
"59 424 LINE"
);
}
);
width = 186;
}
);
unicode = 0027;
},
{
color = 1;
glyphname = semicolon;
lastChange = "2016-10-12 22:01:32 +0000";
layers = (
{
layerId = "63224BA1-30A4-42F4-A6D1-9160F56B91B0";
paths = (
{
closed = 1;
nodes = (
"56 389 OFFCURVE",
"81 363 OFFCURVE",
"110 363 CURVE SMOOTH",
"141 363 OFFCURVE",
"164 389 OFFCURVE",
"164 418 CURVE SMOOTH",
"164 447 OFFCURVE",
"141 472 OFFCURVE",
"110 472 CURVE SMOOTH",
"81 472 OFFCURVE",
"56 447 OFFCURVE",
"56 418 CURVE SMOOTH"
);
},
{
closed = 1;
nodes = (
"56 16 OFFCURVE",
"81 -8 OFFCURVE",
"110 -8 CURVE",
"101 -51 OFFCURVE",
"83 -86 OFFCURVE",
"57 -111 CURVE",
"74 -121 LINE",
"84 -115 LINE SMOOTH",
"91 -111 OFFCURVE",
"98 -105 OFFCURVE",
"105 -98 CURVE SMOOTH",
"132 -71 OFFCURVE",
"164 -27 OFFCURVE",
"164 47 CURVE SMOOTH",
"164 76 OFFCURVE",
"141 101 OFFCURVE",
"110 101 CURVE SMOOTH",
"81 101 OFFCURVE",
"56 76 OFFCURVE",
"56 47 CURVE SMOOTH"
);
}
);
width = 220;
}
);
unicode = 003B;
},
{
color = 1;
glyphname = slash;
lastChange = "2016-10-12 22:01:32 +0000";
layers = (
{
layerId = "63224BA1-30A4-42F4-A6D1-9160F56B91B0";
paths = (
{
closed = 1;
nodes = (
"282 682 LINE",
"34 0 LINE",
"96 0 LINE",
"344 682 LINE"
);
}
);
width = 377;
}
);
unicode = 002F;
},
{
color = 1;
glyphname = triangularbullet;
lastChange = "2016-10-12 22:01:32 +0000";
layers = (
{
layerId = "63224BA1-30A4-42F4-A6D1-9160F56B91B0";
paths = (
{
closed = 1;
nodes = (
"63 49 LINE",
"265 236 LINE",
"63 424 LINE"
);
}
);
width = 276;
}
);
unicode = 2023;
},
{
color = 1;
glyphname = underscore;
lastChange = "2016-10-12 22:01:32 +0000";
layers = (
{
layerId = "63224BA1-30A4-42F4-A6D1-9160F56B91B0";
paths = (
{
closed = 1;
nodes = (
"0 -86 LINE",
"458 -86 LINE",
"458 -27 LINE",
"0 -27 LINE"
);
}
);
width = 457;
}
);
unicode = 005F;
},
{
color = 1;
glyphname = braceleft;
lastChange = "2016-10-12 22:01:32 +0000";
layers = (
{
layerId = "63224BA1-30A4-42F4-A6D1-9160F56B91B0";
paths = (
{
closed = 1;
nodes = (
"164 248 OFFCURVE",
"145 283 OFFCURVE",
"106 308 CURVE",
"145 332 OFFCURVE",
"165 367 OFFCURVE",
"165 414 CURVE SMOOTH",
"165 436 OFFCURVE",
"162 465 OFFCURVE",
"156 500 CURVE SMOOTH",
"151 535 OFFCURVE",
"148 559 OFFCURVE",
"148 570 CURVE SMOOTH",
"148 615 OFFCURVE",
"181 644 OFFCURVE",
"213 651 CURVE",
"212 697 LINE",
"176 692 OFFCURVE",
"144 679 OFFCURVE",
"116 658 CURVE SMOOTH",
"89 638 OFFCURVE",
"75 608 OFFCURVE",
"75 569 CURVE SMOOTH",
"75 547 OFFCURVE",
"79 518 OFFCURVE",
"87 483 CURVE SMOOTH",
"95 448 OFFCURVE",
"99 424 OFFCURVE",
"99 413 CURVE SMOOTH",
"99 395 OFFCURVE",
"91 377 OFFCURVE",
"74 360 CURVE SMOOTH",
"58 343 OFFCURVE",
"42 334 OFFCURVE",
"27 331 CURVE",
"27 285 LINE",
"42 282 OFFCURVE",
"56 272 OFFCURVE",
"70 255 CURVE SMOOTH",
"85 238 OFFCURVE",
"92 221 OFFCURVE",
"92 203 CURVE SMOOTH",
"92 192 OFFCURVE",
"89 169 OFFCURVE",
"83 133 CURVE SMOOTH",
"78 98 OFFCURVE",
"75 69 OFFCURVE",
"75 47 CURVE SMOOTH",
"75 8 OFFCURVE",
"89 -22 OFFCURVE",
"117 -42 CURVE SMOOTH",
"145 -63 OFFCURVE",
"177 -76 OFFCURVE",
"213 -81 CURVE",
"213 -35 LINE",
"181 -28 OFFCURVE",
"147 1 OFFCURVE",
"147 46 CURVE SMOOTH",
"147 57 OFFCURVE",
"150 81 OFFCURVE",
"155 116 CURVE SMOOTH",
"161 151 OFFCURVE",
"164 180 OFFCURVE",
"164 202 CURVE SMOOTH"
);
}
);
width = 247;
}
);
unicode = 007B;
},
{
color = 1;
glyphname = braceright;
lastChange = "2016-10-12 22:01:32 +0000";
layers = (
{
layerId = "63224BA1-30A4-42F4-A6D1-9160F56B91B0";
paths = (
{
closed = 1;
nodes = (
"84 367 OFFCURVE",
"103 332 OFFCURVE",
"142 308 CURVE",
"103 283 OFFCURVE",
"83 248 OFFCURVE",
"83 202 CURVE SMOOTH",
"83 180 OFFCURVE",
"86 151 OFFCURVE",
"91 116 CURVE SMOOTH",
"97 81 OFFCURVE",
"100 57 OFFCURVE",
"100 46 CURVE SMOOTH",
"100 1 OFFCURVE",
"67 -28 OFFCURVE",
"35 -35 CURVE",
"36 -81 LINE",
"72 -76 OFFCURVE",
"104 -63 OFFCURVE",
"131 -42 CURVE",
"159 -22 OFFCURVE",
"173 8 OFFCURVE",
"173 47 CURVE SMOOTH",
"173 69 OFFCURVE",
"169 98 OFFCURVE",
"161 133 CURVE SMOOTH",
"153 169 OFFCURVE",
"149 192 OFFCURVE",
"149 203 CURVE SMOOTH",
"149 221 OFFCURVE",
"157 238 OFFCURVE",
"173 255 CURVE SMOOTH",
"190 272 OFFCURVE",
"206 282 OFFCURVE",
"221 285 CURVE",
"221 331 LINE",
"206 334 OFFCURVE",
"192 343 OFFCURVE",
"177 360 CURVE SMOOTH",
"163 377 OFFCURVE",
"156 395 OFFCURVE",
"156 413 CURVE SMOOTH",
"156 424 OFFCURVE",
"159 448 OFFCURVE",
"164 483 CURVE SMOOTH",
"170 518 OFFCURVE",
"173 547 OFFCURVE",
"173 569 CURVE SMOOTH",
"173 608 OFFCURVE",
"159 638 OFFCURVE",
"131 658 CURVE SMOOTH",
"103 679 OFFCURVE",
"71 692 OFFCURVE",
"35 697 CURVE",
"35 651 LINE",
"67 644 OFFCURVE",
"101 615 OFFCURVE",
"101 570 CURVE SMOOTH",
"101 559 OFFCURVE",
"98 535 OFFCURVE",
"92 500 CURVE SMOOTH",
"87 465 OFFCURVE",
"84 436 OFFCURVE",
"84 414 CURVE SMOOTH"
);
}
);
width = 247;
}
);
unicode = 007D;
},
{
color = 1;
glyphname = bracketleft;
lastChange = "2016-10-12 22:01:32 +0000";
layers = (
{
layerId = "63224BA1-30A4-42F4-A6D1-9160F56B91B0";
paths = (
{
closed = 1;
nodes = (
"67 -39 LINE",
"239 -39 LINE",
"239 0 LINE",
"142 0 LINE",
"142 682 LINE",
"239 682 LINE",
"239 721 LINE",
"67 721 LINE"
);
}
);
width = 259;
}
);
unicode = 005B;
},
{
color = 1;
glyphname = bracketright;
lastChange = "2016-10-12 22:01:32 +0000";
layers = (
{
layerId = "63224BA1-30A4-42F4-A6D1-9160F56B91B0";
paths = (
{
closed = 1;
nodes = (
"192 721 LINE",
"20 721 LINE",
"20 682 LINE",
"118 682 LINE",
"118 0 LINE",
"20 0 LINE",
"20 -39 LINE",
"192 -39 LINE"
);
}
);
width = 259;
}
);
unicode = 005D;
},
{
color = 1;
glyphname = parenleft;
lastChange = "2016-10-12 22:01:32 +0000";
layers = (
{
layerId = "63224BA1-30A4-42F4-A6D1-9160F56B91B0";
paths = (
{
closed = 1;
nodes = (
"194 697 LINE",
"149 697 OFFCURVE",
"112 662 OFFCURVE",
"84 593 CURVE SMOOTH",
"57 524 OFFCURVE",
"43 439 OFFCURVE",
"43 339 CURVE SMOOTH",
"43 240 OFFCURVE",
"57 156 OFFCURVE",
"84 87 CURVE SMOOTH",
"112 18 OFFCURVE",
"149 -16 OFFCURVE",
"194 -16 CURVE",
"194 53 LINE",
"177 62 OFFCURVE",
"160 95 OFFCURVE",
"143 150 CURVE",
"127 206 OFFCURVE",
"119 269 OFFCURVE",
"119 339 CURVE SMOOTH",
"119 410 OFFCURVE",
"127 473 OFFCURVE",
"143 529 CURVE SMOOTH",
"160 586 OFFCURVE",
"177 619 OFFCURVE",
"194 629 CURVE"
);
}
);
width = 234;
}
);
unicode = 0028;
},
{
color = 1;
glyphname = parenright;
lastChange = "2016-10-12 22:01:32 +0000";
layers = (
{
layerId = "63224BA1-30A4-42F4-A6D1-9160F56B91B0";
paths = (
{
closed = 1;
nodes = (
"41 -16 LINE",
"86 -16 OFFCURVE",
"123 19 OFFCURVE",
"150 88 CURVE SMOOTH",
"178 157 OFFCURVE",
"192 242 OFFCURVE",
"192 341 CURVE SMOOTH",
"192 441 OFFCURVE",
"178 525 OFFCURVE",
"150 594 CURVE SMOOTH",
"123 663 OFFCURVE",
"86 697 OFFCURVE",
"41 697 CURVE",
"41 629 LINE",
"58 619 OFFCURVE",
"75 586 OFFCURVE",
"91 530 CURVE",
"108 475 OFFCURVE",
"116 412 OFFCURVE",
"116 341 CURVE SMOOTH",
"116 271 OFFCURVE",
"108 208 OFFCURVE",
"91 151 CURVE SMOOTH",
"75 95 OFFCURVE",
"58 62 OFFCURVE",
"41 53 CURVE"
);
}
);
width = 234;
}
);
unicode = 0029;
},
{
color = 1;
glyphname = emdash;
lastChange = "2016-10-12 22:01:32 +0000";
layers = (
{
layerId = "63224BA1-30A4-42F4-A6D1-9160F56B91B0";
paths = (
{
closed = 1;
nodes = (
"56 213 LINE",
"667 213 LINE",
"667 268 LINE",
"56 268 LINE"
);
}
);
width = 723;
}
);
unicode = 2014;
},
{
color = 1;
glyphname = endash;
lastChange = "2016-10-12 22:01:32 +0000";
layers = (
{
layerId = "63224BA1-30A4-42F4-A6D1-9160F56B91B0";
paths = (
{
closed = 1;
nodes = (
"56 213 LINE",
"472 213 LINE",
"472 268 LINE",
"56 268 LINE"
);
}
);
width = 527;
}
);
unicode = 2013;
},
{
color = 1;
glyphname = hyphen;
lastChange = "2016-10-12 22:01:32 +0000";
layers = (
{
layerId = "63224BA1-30A4-42F4-A6D1-9160F56B91B0";
paths = (
{
closed = 1;
nodes = (
"56 213 LINE",
"277 213 LINE",
"277 268 LINE",
"56 268 LINE"
);
}
);
width = 332;
}
);
unicode = 002D;
},
{
color = 1;
glyphname = softhyphen;
lastChange = "2016-10-12 22:01:32 +0000";
layers = (
{
layerId = "63224BA1-30A4-42F4-A6D1-9160F56B91B0";
paths = (
{
closed = 1;
nodes = (
"56 213 LINE",
"277 213 LINE",
"277 268 LINE",
"56 268 LINE"
);
}
);
width = 332;
}
);
unicode = 00AD;
},
{
color = 1;
glyphname = guillemetleft;
lastChange = "2016-10-12 22:01:32 +0000";
layers = (
{
layerId = "63224BA1-30A4-42F4-A6D1-9160F56B91B0";
paths = (
{
closed = 1;
nodes = (
"265 55 LINE",
"306 109 LINE",
"134 238 LINE",
"306 366 LINE",
"265 422 LINE",
"22 238 LINE"
);
},
{
closed = 1;
nodes = (
"480 55 LINE",
"521 109 LINE",
"349 238 LINE",
"521 366 LINE",
"480 422 LINE",
"237 238 LINE"
);
}
);
width = 566;
}
);
unicode = 00AB;
},
{
color = 1;
glyphname = guillemetright;
lastChange = "2016-10-12 22:01:32 +0000";
layers = (
{
layerId = "63224BA1-30A4-42F4-A6D1-9160F56B91B0";
paths = (
{
closed = 1;
nodes = (
"88 422 LINE",
"47 367 LINE",
"218 238 LINE",
"47 110 LINE",
"88 55 LINE",
"331 238 LINE"
);
},
{
closed = 1;
nodes = (
"303 422 LINE",
"262 367 LINE",
"433 238 LINE",
"262 110 LINE",
"303 55 LINE",
"546 238 LINE"
);
}
);
width = 567;
}
);
unicode = 00BB;
},
{
color = 1;
glyphname = guilsinglleft;
lastChange = "2016-10-12 22:01:32 +0000";
layers = (
{
layerId = "63224BA1-30A4-42F4-A6D1-9160F56B91B0";
paths = (
{
closed = 1;
nodes = (
"265 55 LINE",
"306 109 LINE",
"134 238 LINE",
"306 366 LINE",
"265 422 LINE",
"22 238 LINE"
);
}
);
width = 352;
}
);
unicode = 2039;
},
{
color = 1;
glyphname = guilsinglright;
lastChange = "2016-10-12 22:01:32 +0000";
layers = (
{
layerId = "63224BA1-30A4-42F4-A6D1-9160F56B91B0";
paths = (
{
closed = 1;
nodes = (
"88 422 LINE",
"47 367 LINE",
"218 238 LINE",
"47 110 LINE",
"88 55 LINE",
"331 238 LINE"
);
}
);
width = 353;
}
);
unicode = 203A;
},
{
color = 1;
glyphname = quotedblbase;
lastChange = "2016-10-12 22:01:32 +0000";
layers = (
{
layerId = "63224BA1-30A4-42F4-A6D1-9160F56B91B0";
paths = (
{
closed = 1;
nodes = (
"243 16 OFFCURVE",
"266 -8 OFFCURVE",
"297 -8 CURVE",
"287 -51 OFFCURVE",
"269 -86 OFFCURVE",
"244 -111 CURVE",
"261 -121 LINE",
"270 -115 LINE",
"293 -98 LINE",
"317 -72 OFFCURVE",
"351 -26 OFFCURVE",
"351 47 CURVE SMOOTH",
"351 76 OFFCURVE",
"327 101 OFFCURVE",
"296 101 CURVE SMOOTH",
"267 101 OFFCURVE",
"243 76 OFFCURVE",
"243 47 CURVE SMOOTH"
);
},
{
closed = 1;
nodes = (
"48 16 OFFCURVE",
"71 -8 OFFCURVE",
"102 -8 CURVE",
"92 -51 OFFCURVE",
"74 -86 OFFCURVE",
"49 -111 CURVE",
"66 -121 LINE",
"76 -115 LINE SMOOTH",
"83 -111 OFFCURVE",
"90 -105 OFFCURVE",
"98 -98 CURVE SMOOTH",
"123 -74 OFFCURVE",
"157 -25 OFFCURVE",
"156 47 CURVE SMOOTH",
"156 76 OFFCURVE",
"132 101 OFFCURVE",
"101 101 CURVE SMOOTH",
"72 101 OFFCURVE",
"48 76 OFFCURVE",
"48 47 CURVE SMOOTH"
);
}
);
width = 399;
}
);
unicode = 201E;
},
{
color = 1;
glyphname = quotedblleft;
lastChange = "2016-10-12 22:01:32 +0000";
layers = (
{
layerId = "63224BA1-30A4-42F4-A6D1-9160F56B91B0";
paths = (
{
closed = 1;
nodes = (
"150 643 OFFCURVE",
"126 668 OFFCURVE",
"97 668 CURVE",
"96 668 LINE",
"105 711 OFFCURVE",
"123 746 OFFCURVE",
"149 771 CURVE",
"133 781 LINE",
"123 775 LINE SMOOTH",
"116 772 OFFCURVE",
"109 766 OFFCURVE",
"102 758 CURVE SMOOTH",
"76 732 OFFCURVE",
"42 686 OFFCURVE",
"42 613 CURVE SMOOTH",
"42 584 OFFCURVE",
"67 560 OFFCURVE",
"96 560 CURVE SMOOTH",
"127 560 OFFCURVE",
"150 583 OFFCURVE",
"150 614 CURVE SMOOTH"
);
},
{
closed = 1;
nodes = (
"345 643 OFFCURVE",
"321 668 OFFCURVE",
"292 668 CURVE",
"291 668 LINE",
"301 711 OFFCURVE",
"319 746 OFFCURVE",
"344 771 CURVE",
"328 781 LINE",
"318 775 LINE SMOOTH",
"312 772 OFFCURVE",
"305 766 OFFCURVE",
"297 758 CURVE SMOOTH",
"271 732 OFFCURVE",
"237 686 OFFCURVE",
"237 613 CURVE SMOOTH",
"237 584 OFFCURVE",
"263 560 OFFCURVE",
"292 560 CURVE SMOOTH",
"321 560 OFFCURVE",
"345 583 OFFCURVE",
"345 614 CURVE SMOOTH"
);
}
);
width = 384;
}
);
unicode = 201C;
},
{
color = 1;
glyphname = quotedblright;
lastChange = "2016-10-12 22:01:32 +0000";
layers = (
{
layerId = "63224BA1-30A4-42F4-A6D1-9160F56B91B0";
paths = (
{
closed = 1;
nodes = (
"39 694 OFFCURVE",
"62 670 OFFCURVE",
"93 670 CURVE",
"83 626 OFFCURVE",
"65 592 OFFCURVE",
"40 567 CURVE",
"57 557 LINE",
"66 563 LINE",
"73 566 OFFCURVE",
"80 572 OFFCURVE",
"88 580 CURVE SMOOTH",
"115 607 OFFCURVE",
"147 650 OFFCURVE",
"147 725 CURVE SMOOTH",
"147 754 OFFCURVE",
"123 779 OFFCURVE",
"92 779 CURVE SMOOTH",
"63 779 OFFCURVE",
"39 754 OFFCURVE",
"39 725 CURVE SMOOTH"
);
},
{
closed = 1;
nodes = (
"234 694 OFFCURVE",
"259 670 OFFCURVE",
"288 670 CURVE",
"278 626 OFFCURVE",
"260 592 OFFCURVE",
"235 567 CURVE",
"252 557 LINE",
"262 563 LINE SMOOTH",
"268 566 OFFCURVE",
"275 572 OFFCURVE",
"283 580 CURVE SMOOTH",
"309 606 OFFCURVE",
"342 651 OFFCURVE",
"342 725 CURVE SMOOTH",
"342 754 OFFCURVE",
"319 779 OFFCURVE",
"288 779 CURVE SMOOTH",
"259 779 OFFCURVE",
"234 754 OFFCURVE",
"234 725 CURVE SMOOTH"
);
}
);
width = 362;
}
);
unicode = 201D;
},
{
color = 1;
glyphname = quoteleft;
lastChange = "2016-10-12 22:01:32 +0000";
layers = (
{
layerId = "63224BA1-30A4-42F4-A6D1-9160F56B91B0";
paths = (
{
closed = 1;
nodes = (
"150 643 OFFCURVE",
"126 668 OFFCURVE",
"97 668 CURVE",
"96 668 LINE",
"105 711 OFFCURVE",
"123 746 OFFCURVE",
"149 771 CURVE",
"133 781 LINE",
"123 775 LINE SMOOTH",
"116 772 OFFCURVE",
"109 766 OFFCURVE",
"102 758 CURVE SMOOTH",
"76 732 OFFCURVE",
"42 686 OFFCURVE",
"42 613 CURVE SMOOTH",
"42 584 OFFCURVE",
"67 560 OFFCURVE",
"96 560 CURVE SMOOTH",
"127 560 OFFCURVE",
"150 583 OFFCURVE",
"150 614 CURVE SMOOTH"
);
}
);
width = 188;
}
);
unicode = 2018;
},
{
color = 1;
glyphname = quoteright;
lastChange = "2016-10-12 22:01:32 +0000";
layers = (
{
layerId = "63224BA1-30A4-42F4-A6D1-9160F56B91B0";
paths = (
{
closed = 1;
nodes = (
"39 694 OFFCURVE",
"62 670 OFFCURVE",
"93 670 CURVE",
"83 626 OFFCURVE",
"65 592 OFFCURVE",
"40 567 CURVE",
"57 557 LINE",
"66 563 LINE",
"73 566 OFFCURVE",
"80 572 OFFCURVE",
"88 580 CURVE SMOOTH",
"115 607 OFFCURVE",
"147 650 OFFCURVE",
"147 725 CURVE SMOOTH",
"147 754 OFFCURVE",
"123 779 OFFCURVE",
"92 779 CURVE SMOOTH",
"63 779 OFFCURVE",
"39 754 OFFCURVE",
"39 725 CURVE SMOOTH"
);
}
);
width = 168;
}
);
unicode = 2019;
},
{
color = 1;
glyphname = quotesinglbase;
lastChange = "2016-10-12 22:01:32 +0000";
layers = (
{
layerId = "63224BA1-30A4-42F4-A6D1-9160F56B91B0";
paths = (
{
closed = 1;
nodes = (
"48 16 OFFCURVE",
"71 -8 OFFCURVE",
"102 -8 CURVE",
"92 -51 OFFCURVE",
"74 -86 OFFCURVE",
"49 -111 CURVE",
"66 -121 LINE",
"76 -115 LINE SMOOTH",
"83 -111 OFFCURVE",
"90 -105 OFFCURVE",
"98 -98 CURVE SMOOTH",
"123 -74 OFFCURVE",
"157 -25 OFFCURVE",
"156 47 CURVE SMOOTH",
"156 76 OFFCURVE",
"132 101 OFFCURVE",
"101 101 CURVE SMOOTH",
"72 101 OFFCURVE",
"48 76 OFFCURVE",
"48 47 CURVE SMOOTH"
);
}
);
width = 204;
}
);
unicode = 201A;
},
{
color = 11;
glyphname = anoteleia;
lastChange = "2016-10-12 22:01:32 +0000";
layers = (
{
layerId = "63224BA1-30A4-42F4-A6D1-9160F56B91B0";
paths = (
{
closed = 1;
nodes = (
"56 223 OFFCURVE",
"81 199 OFFCURVE",
"110 199 CURVE SMOOTH",
"141 199 OFFCURVE",
"164 224 OFFCURVE",
"164 253 CURVE SMOOTH",
"164 284 OFFCURVE",
"141 308 OFFCURVE",
"110 308 CURVE SMOOTH",
"81 308 OFFCURVE",
"56 283 OFFCURVE",
"56 254 CURVE SMOOTH"
);
}
);
width = 220;
}
);
unicode = 0387;
},
{
color = 11;
glyphname = questiongreek;
lastChange = "2016-10-12 22:01:32 +0000";
layers = (
{
layerId = "63224BA1-30A4-42F4-A6D1-9160F56B91B0";
paths = (
{
closed = 1;
nodes = (
"56 389 OFFCURVE",
"81 363 OFFCURVE",
"110 363 CURVE SMOOTH",
"141 363 OFFCURVE",
"164 389 OFFCURVE",
"164 418 CURVE SMOOTH",
"164 447 OFFCURVE",
"141 472 OFFCURVE",
"110 472 CURVE SMOOTH",
"81 472 OFFCURVE",
"56 447 OFFCURVE",
"56 418 CURVE SMOOTH"
);
},
{
closed = 1;
nodes = (
"56 16 OFFCURVE",
"81 -8 OFFCURVE",
"110 -8 CURVE",
"101 -51 OFFCURVE",
"83 -86 OFFCURVE",
"57 -111 CURVE",
"74 -121 LINE",
"84 -115 LINE SMOOTH",
"91 -111 OFFCURVE",
"98 -105 OFFCURVE",
"105 -98 CURVE SMOOTH",
"132 -71 OFFCURVE",
"164 -27 OFFCURVE",
"164 47 CURVE SMOOTH",
"164 76 OFFCURVE",
"141 101 OFFCURVE",
"110 101 CURVE SMOOTH",
"81 101 OFFCURVE",
"56 76 OFFCURVE",
"56 47 CURVE SMOOTH"
);
}
);
width = 220;
}
);
unicode = 037E;
},
{
glyphname = .notdef;
lastChange = "2016-10-12 22:01:32 +0000";
layers = (
{
layerId = "63224BA1-30A4-42F4-A6D1-9160F56B91B0";
paths = (
{
closed = 1;
nodes = (
"450 0 LINE",
"450 533 LINE",
"50 533 LINE",
"50 0 LINE"
);
},
{
closed = 1;
nodes = (
"100 483 LINE",
"400 483 LINE",
"400 50 LINE",
"100 50 LINE"
);
}
);
width = 500;
}
);
},
{
color = 5;
glyphname = cedi;
lastChange = "2016-10-12 22:01:32 +0000";
layers = (
{
background = {
components = (
{
name = dollar;
transform = "{1, 0, 0, 1, 90, 0}";
}
);
};
components = (
{
name = C;
}
);
layerId = "63224BA1-30A4-42F4-A6D1-9160F56B91B0";
paths = (
{
closed = 1;
nodes = (
"347 -88 LINE",
"347 770 LINE",
"306 770 LINE",
"306 -88 LINE"
);
}
);
width = 605;
}
);
unicode = 20B5;
},
{
color = 5;
glyphname = cent;
lastChange = "2016-10-12 22:01:32 +0000";
layers = (
{
background = {
components = (
{
name = c;
transform = "{1, 0, 0, 1, 0, 100}";
}
);
paths = (
{
closed = 1;
nodes = (
"281 -8 LINE",
"281 650 LINE",
"240 650 LINE",
"240 -8 LINE"
);
}
);
};
components = (
{
name = c;
transform = "{1, 0, 0, 1, 0, 100}";
}
);
layerId = "63224BA1-30A4-42F4-A6D1-9160F56B91B0";
paths = (
{
closed = 1;
nodes = (
"281 -8 LINE",
"281 650 LINE",
"240 650 LINE",
"240 -8 LINE"
);
}
);
width = 477;
}
);
leftMetricsKey = c;
rightMetricsKey = c;
unicode = 00A2;
},
{
color = 5;
glyphname = colonsign;
lastChange = "2016-10-12 22:01:32 +0000";
layers = (
{
components = (
{
name = C;
}
);
layerId = "63224BA1-30A4-42F4-A6D1-9160F56B91B0";
paths = (
{
closed = 1;
nodes = (
"374 762 LINE",
"64 -91 LINE",
"116 -91 LINE",
"426 762 LINE"
);
},
{
closed = 1;
nodes = (
"484 762 LINE",
"174 -91 LINE",
"226 -91 LINE",
"536 762 LINE"
);
}
);
width = 605;
}
);
unicode = 20A1;
},
{
color = 5;
glyphname = currency;
lastChange = "2016-10-12 22:01:32 +0000";
layers = (
{
background = {
guideLines = (
{
angle = 180;
position = "{91, 296}";
},
{
angle = 90;
position = "{244, 449}";
}
);
paths = (
{
closed = 1;
nodes = (
"186 95 OFFCURVE",
"301 96 OFFCURVE",
"373 168 CURVE SMOOTH",
"444 239 OFFCURVE",
"445 354 OFFCURVE",
"374 426 CURVE SMOOTH",
"302 497 OFFCURVE",
"186 497 OFFCURVE",
"115 426 CURVE SMOOTH",
"43 354 OFFCURVE",
"43 238 OFFCURVE",
"115 167 CURVE SMOOTH"
);
},
{
closed = 1;
nodes = (
"109 257 OFFCURVE",
"109 335 OFFCURVE",
"157 383 CURVE SMOOTH",
"205 431 OFFCURVE",
"283 431 OFFCURVE",
"331 383 CURVE SMOOTH",
"379 335 OFFCURVE",
"378 258 OFFCURVE",
"331 210 CURVE SMOOTH",
"282 162 OFFCURVE",
"205 161 OFFCURVE",
"157 209 CURVE SMOOTH"
);
},
{
closed = 1;
nodes = (
"407 495 LINE",
"313 400 LINE",
"348 365 LINE",
"443 459 LINE"
);
},
{
closed = 1;
nodes = (
"139 226 LINE",
"45 133 LINE",
"81 97 LINE",
"174 191 LINE"
);
},
{
closed = 1;
nodes = (
"443 133 LINE",
"349 227 LINE",
"313 191 LINE",
"407 97 LINE"
);
},
{
closed = 1;
nodes = (
"175 401 LINE",
"81 495 LINE",
"45 459 LINE",
"139 365 LINE"
);
}
);
};
layerId = "63224BA1-30A4-42F4-A6D1-9160F56B91B0";
paths = (
{
closed = 1;
nodes = (
"186 95 OFFCURVE",
"301 96 OFFCURVE",
"373 168 CURVE SMOOTH",
"444 239 OFFCURVE",
"445 354 OFFCURVE",
"374 426 CURVE SMOOTH",
"302 497 OFFCURVE",
"186 497 OFFCURVE",
"115 426 CURVE SMOOTH",
"43 354 OFFCURVE",
"43 238 OFFCURVE",
"115 167 CURVE SMOOTH"
);
},
{
closed = 1;
nodes = (
"109 257 OFFCURVE",
"109 335 OFFCURVE",
"157 383 CURVE SMOOTH",
"205 431 OFFCURVE",
"283 431 OFFCURVE",
"331 383 CURVE SMOOTH",
"379 335 OFFCURVE",
"378 258 OFFCURVE",
"331 210 CURVE SMOOTH",
"282 162 OFFCURVE",
"205 161 OFFCURVE",
"157 209 CURVE SMOOTH"
);
},
{
closed = 1;
nodes = (
"407 495 LINE",
"313 400 LINE",
"348 365 LINE",
"443 459 LINE"
);
},
{
closed = 1;
nodes = (
"139 226 LINE",
"45 133 LINE",
"81 97 LINE",
"174 191 LINE"
);
},
{
closed = 1;
nodes = (
"443 133 LINE",
"349 227 LINE",
"313 191 LINE",
"407 97 LINE"
);
},
{
closed = 1;
nodes = (
"175 401 LINE",
"81 495 LINE",
"45 459 LINE",
"139 365 LINE"
);
}
);
width = 488;
}
);
unicode = 00A4;
},
{
color = 5;
glyphname = dollar;
lastChange = "2016-10-12 22:01:32 +0000";
layers = (
{
background = {
anchors = (
{
name = bottom;
position = "{333, 0}";
},
{
name = top;
position = "{327, 682}";
}
);
paths = (
{
closed = 1;
nodes = (
"347 -88 LINE",
"347 770 LINE",
"306 770 LINE",
"306 -88 LINE"
);
},
{
closed = 1;
nodes = (
"507 182 LINE",
"467 103 OFFCURVE",
"425 52 OFFCURVE",
"323 52 CURVE SMOOTH",
"208 52 OFFCURVE",
"134 160 OFFCURVE",
"134 340 CURVE SMOOTH",
"134 522 OFFCURVE",
"205 629 OFFCURVE",
"324 629 CURVE SMOOTH",
"405 629 OFFCURVE",
"460 599 OFFCURVE",
"504 519 CURVE",
"564 554 LINE",
"520 643 OFFCURVE",
"439 697 OFFCURVE",
"324 697 CURVE SMOOTH",
"157 697 OFFCURVE",
"55 564 OFFCURVE",
"55 339 CURVE SMOOTH",
"55 116 OFFCURVE",
"160 -16 OFFCURVE",
"333 -16 CURVE SMOOTH",
"445 -16 OFFCURVE",
"523 43 OFFCURVE",
"570 144 CURVE"
);
}
);
};
layerId = "63224BA1-30A4-42F4-A6D1-9160F56B91B0";
paths = (
{
closed = 1;
nodes = (
"306 33 LINE",
"306 -88 LINE",
"347 -88 LINE",
"347 33 LINE"
);
},
{
closed = 1;
nodes = (
"420 294 OFFCURVE",
"478 259 OFFCURVE",
"478 180 CURVE SMOOTH",
"478 113 OFFCURVE",
"430 70 OFFCURVE",
"337 70 CURVE SMOOTH",
"250 70 OFFCURVE",
"176 117 OFFCURVE",
"130 187 CURVE",
"71 136 LINE",
"131 56 OFFCURVE",
"229 5 OFFCURVE",
"327 5 CURVE SMOOTH",
"466 5 OFFCURVE",
"551 77 OFFCURVE",
"551 180 CURVE SMOOTH",
"551 302 OFFCURVE",
"457 352 OFFCURVE",
"339 383 CURVE SMOOTH",
"226 413 OFFCURVE",
"181 443 OFFCURVE",
"181 509 CURVE SMOOTH",
"181 574 OFFCURVE",
"240 613 OFFCURVE",
"320 613 CURVE SMOOTH",
"399 613 OFFCURVE",
"451 583 OFFCURVE",
"497 522 CURVE",
"554 570 LINE",
"493 643 OFFCURVE",
"416 677 OFFCURVE",
"320 677 CURVE SMOOTH",
"188 677 OFFCURVE",
"108 616 OFFCURVE",
"108 503 CURVE SMOOTH",
"108 400 OFFCURVE",
"198 346 OFFCURVE",
"317 318 CURVE SMOOTH"
);
},
{
closed = 1;
nodes = (
"310 352 LINE",
"310 33 LINE",
"351 33 LINE",
"351 352 LINE"
);
},
{
closed = 1;
nodes = (
"313 641 LINE",
"313 352 LINE",
"354 352 LINE",
"354 641 LINE"
);
},
{
closed = 1;
nodes = (
"356 641 LINE",
"356 770 LINE",
"315 770 LINE",
"315 641 LINE"
);
}
);
width = 583;
}
);
unicode = 0024;
},
{
color = 5;
glyphname = dong;
lastChange = "2016-10-12 22:01:32 +0000";
layers = (
{
background = {
anchors = (
{
name = bottom;
position = "{402, 0}";
},
{
name = center;
position = "{412, 284}";
},
{
name = top;
position = "{402, 726}";
},
{
name = topright;
position = "{503, 468}";
}
);
paths = (
{
closed = 1;
nodes = (
"484 0 LINE",
"484 726 LINE",
"416 726 LINE",
"416 0 LINE"
);
}
);
};
guideLines = (
{
angle = 90;
position = "{478, 78}";
},
{
position = "{404, 117}";
}
);
layerId = "63224BA1-30A4-42F4-A6D1-9160F56B91B0";
paths = (
{
closed = 1;
nodes = (
"83 0 LINE",
"478 0 LINE",
"478 48 LINE",
"83 48 LINE"
);
},
{
closed = 1;
nodes = (
"118 404 OFFCURVE",
"180 466 OFFCURVE",
"266 466 CURVE SMOOTH",
"355 466 OFFCURVE",
"416 403 OFFCURVE",
"416 315 CURVE SMOOTH",
"416 226 OFFCURVE",
"355 164 OFFCURVE",
"266 164 CURVE SMOOTH",
"180 164 OFFCURVE",
"118 226 OFFCURVE",
"118 316 CURVE SMOOTH"
);
},
{
closed = 1;
nodes = (
"56 194 OFFCURVE",
"145 107 OFFCURVE",
"268 107 CURVE SMOOTH",
"380 107 OFFCURVE",
"460 194 OFFCURVE",
"460 315 CURVE SMOOTH",
"460 436 OFFCURVE",
"379 522 OFFCURVE",
"266 522 CURVE SMOOTH",
"144 522 OFFCURVE",
"56 437 OFFCURVE",
"56 316 CURVE SMOOTH"
);
},
{
closed = 1;
nodes = (
"416 117 LINE",
"484 117 LINE",
"484 722 LINE",
"416 722 LINE"
);
},
{
closed = 1;
nodes = (
"289 594 LINE",
"551 594 LINE",
"551 642 LINE",
"289 642 LINE"
);
}
);
width = 561;
}
);
unicode = 20AB;
},
{
color = 5;
glyphname = euro;
lastChange = "2016-10-12 22:01:32 +0000";
layers = (
{
background = {
components = (
{
name = C;
transform = "{1, 0, 0, 1, 20, 0}";
}
);
};
components = (
{
name = C;
transform = "{1, 0, 0, 1, 20, 0}";
}
);
guideLines = (
{
angle = 72.9066;
position = "{456, 612}";
},
{
angle = 72.9066;
position = "{84, 612}";
}
);
layerId = "63224BA1-30A4-42F4-A6D1-9160F56B91B0";
paths = (
{
closed = 1;
nodes = (
"382 371 LINE",
"399 425 LINE",
"27 425 LINE",
"10 371 LINE"
);
},
{
closed = 1;
nodes = (
"342 242 LINE",
"359 296 LINE",
"27 296 LINE",
"10 242 LINE"
);
}
);
width = 625;
}
);
rightMetricsKey = C;
unicode = 20AC;
},
{
color = 5;
glyphname = florin;
lastChange = "2016-10-12 22:01:32 +0000";
layers = (
{
background = {
anchors = (
{
name = bottom;
position = "{124, 0}";
},
{
name = top;
position = "{138, 682}";
}
);
paths = (
{
closed = 1;
nodes = (
"264 681 LINE",
"264 743 LINE",
"236 743 LINE SMOOTH",
"149 743 OFFCURVE",
"88 682 OFFCURVE",
"88 595 CURVE SMOOTH",
"88 468 LINE",
"28 468 LINE",
"28 406 LINE",
"88 406 LINE",
"88 -52 LINE SMOOTH",
"88 -102 OFFCURVE",
"55 -138 OFFCURVE",
"8 -138 CURVE SMOOTH",
"-20 -138 LINE",
"-20 -200 LINE",
"8 -200 LINE SMOOTH",
"95 -200 OFFCURVE",
"156 -139 OFFCURVE",
"156 -52 CURVE SMOOTH",
"156 406 LINE",
"264 406 LINE",
"264 468 LINE",
"156 468 LINE",
"156 595 LINE SMOOTH",
"156 645 OFFCURVE",
"189 681 OFFCURVE",
"236 681 CURVE SMOOTH"
);
}
);
};
guideLines = (
{
angle = 270;
position = "{264, 437}";
}
);
layerId = "63224BA1-30A4-42F4-A6D1-9160F56B91B0";
paths = (
{
closed = 1;
nodes = (
"264 681 LINE",
"264 743 LINE",
"236 743 LINE SMOOTH",
"149 743 OFFCURVE",
"88 682 OFFCURVE",
"88 595 CURVE SMOOTH",
"88 468 LINE",
"28 468 LINE",
"28 406 LINE",
"88 406 LINE",
"88 -52 LINE SMOOTH",
"88 -102 OFFCURVE",
"55 -138 OFFCURVE",
"8 -138 CURVE SMOOTH",
"-20 -138 LINE",
"-20 -200 LINE",
"8 -200 LINE SMOOTH",
"95 -200 OFFCURVE",
"156 -139 OFFCURVE",
"156 -52 CURVE SMOOTH",
"156 406 LINE",
"264 406 LINE",
"264 468 LINE",
"156 468 LINE",
"156 595 LINE SMOOTH",
"156 645 OFFCURVE",
"189 681 OFFCURVE",
"236 681 CURVE SMOOTH"
);
}
);
width = 289;
}
);
unicode = 0192;
},
{
color = 5;
glyphname = franc;
lastChange = "2016-10-12 22:01:32 +0000";
layers = (
{
components = (
{
name = F;
}
);
layerId = "63224BA1-30A4-42F4-A6D1-9160F56B91B0";
paths = (
{
closed = 1;
nodes = (
"0 130 LINE",
"282 130 LINE",
"282 191 LINE",
"0 191 LINE"
);
}
);
width = 451;
}
);
unicode = 20A3;
},
{
color = 5;
glyphname = guarani;
lastChange = "2016-10-12 22:01:32 +0000";
layers = (
{
layerId = "63224BA1-30A4-42F4-A6D1-9160F56B91B0";
paths = (
{
closed = 1;
nodes = (
"327 -88 LINE",
"327 770 LINE",
"286 770 LINE",
"286 -88 LINE"
);
},
{
closed = 1;
nodes = (
"389 271 LINE",
"490 271 LINE",
"490 125 OFFCURVE",
"408 52 OFFCURVE",
"307 52 CURVE SMOOTH",
"183 52 OFFCURVE",
"108 160 OFFCURVE",
"108 340 CURVE SMOOTH",
"108 522 OFFCURVE",
"182 629 OFFCURVE",
"307 629 CURVE SMOOTH",
"378 629 OFFCURVE",
"439 595 OFFCURVE",
"483 515 CURVE",
"542 557 LINE",
"489 645 OFFCURVE",
"416 697 OFFCURVE",
"307 697 CURVE SMOOTH",
"134 697 OFFCURVE",
"29 564 OFFCURVE",
"29 339 CURVE SMOOTH",
"29 116 OFFCURVE",
"134 -16 OFFCURVE",
"307 -16 CURVE SMOOTH",
"453 -16 OFFCURVE",
"564 80 OFFCURVE",
"564 271 CURVE SMOOTH",
"564 333 LINE",
"389 333 LINE"
);
}
);
width = 606;
}
);
unicode = 20B2;
},
{
color = 5;
glyphname = hryvnia;
lastChange = "2016-10-12 22:01:32 +0000";
layers = (
{
background = {
components = (
{
name = euro;
transform = "{1, 0, 0, 1, 26, 0}";
}
);
};
layerId = "63224BA1-30A4-42F4-A6D1-9160F56B91B0";
paths = (
{
closed = 1;
nodes = (
"130 284 LINE",
"106 256 OFFCURVE",
"91 219 OFFCURVE",
"91 171 CURVE SMOOTH",
"91 60 OFFCURVE",
"183 -16 OFFCURVE",
"318 -16 CURVE SMOOTH",
"417 -16 OFFCURVE",
"506 42 OFFCURVE",
"559 127 CURVE",
"505 177 LINE",
"465 103 OFFCURVE",
"398 53 OFFCURVE",
"319 53 CURVE SMOOTH",
"220 53 OFFCURVE",
"167 99 OFFCURVE",
"167 172 CURVE SMOOTH",
"167 226 OFFCURVE",
"192 259 OFFCURVE",
"235 284 CURVE"
);
},
{
closed = 1;
nodes = (
"557 262 LINE",
"557 316 LINE",
"45 316 LINE",
"45 262 LINE"
);
},
{
closed = 1;
nodes = (
"557 391 LINE",
"557 445 LINE",
"45 445 LINE",
"45 391 LINE"
);
},
{
closed = 1;
nodes = (
"480 425 LINE",
"504 452 OFFCURVE",
"521 473 OFFCURVE",
"521 521 CURVE SMOOTH",
"521 626 OFFCURVE",
"439 697 OFFCURVE",
"312 697 CURVE SMOOTH",
"214 697 OFFCURVE",
"138 661 OFFCURVE",
"78 583 CURVE",
"134 536 LINE",
"181 597 OFFCURVE",
"232 629 OFFCURVE",
"304 629 CURVE SMOOTH",
"386 629 OFFCURVE",
"446 588 OFFCURVE",
"446 514 CURVE SMOOTH",
"446 476 OFFCURVE",
"430 449 OFFCURVE",
"392 425 CURVE"
);
}
);
width = 604;
},
{
associatedMasterId = "63224BA1-30A4-42F4-A6D1-9160F56B91B0";
background = {
paths = (
{
closed = 1;
nodes = (
"180 277 LINE",
"180 130 LINE",
"255 130 LINE",
"255 277 LINE"
);
},
{
closed = 1;
nodes = (
"255 453 LINE",
"255 750 LINE",
"403 750 LINE SMOOTH",
"493 750 OFFCURVE",
"540 688 OFFCURVE",
"540 601 CURVE SMOOTH",
"540 514 OFFCURVE",
"493 453 OFFCURVE",
"403 453 CURVE SMOOTH"
);
},
{
closed = 1;
nodes = (
"255 300 LINE",
"255 391 LINE",
"400 391 LINE SMOOTH",
"525 391 OFFCURVE",
"614 478 OFFCURVE",
"614 601 CURVE SMOOTH",
"614 725 OFFCURVE",
"529 812 OFFCURVE",
"408 812 CURVE SMOOTH",
"180 812 LINE",
"180 446 LINE",
"109 446 LINE",
"109 391 LINE",
"180 391 LINE",
"180 300 LINE"
);
},
{
closed = 1;
nodes = (
"371 261 LINE",
"371 316 LINE",
"109 316 LINE",
"109 261 LINE"
);
}
);
};
layerId = "21D0F97A-1DEF-42C7-8609-A2D5012F957E";
name = "Oct 11 16, 14:37";
paths = (
{
closed = 1;
nodes = (
"403 366 OFFCURVE",
"492 408 OFFCURVE",
"492 512 CURVE SMOOTH",
"492 632 OFFCURVE",
"413 697 OFFCURVE",
"283 697 CURVE SMOOTH",
"184 697 OFFCURVE",
"105 661 OFFCURVE",
"42 583 CURVE",
"98 536 LINE",
"148 597 OFFCURVE",
"202 629 OFFCURVE",
"283 629 CURVE SMOOTH",
"360 629 OFFCURVE",
"416 588 OFFCURVE",
"416 519 CURVE SMOOTH",
"416 449 OFFCURVE",
"374 422 OFFCURVE",
"264 382 CURVE SMOOTH",
"145 339 OFFCURVE",
"45 299 OFFCURVE",
"45 170 CURVE SMOOTH",
"45 60 OFFCURVE",
"133 -16 OFFCURVE",
"276 -16 CURVE SMOOTH",
"373 -16 OFFCURVE",
"473 42 OFFCURVE",
"533 127 CURVE",
"479 177 LINE",
"432 103 OFFCURVE",
"355 53 OFFCURVE",
"266 53 CURVE SMOOTH",
"170 53 OFFCURVE",
"121 99 OFFCURVE",
"121 170 CURVE SMOOTH",
"121 259 OFFCURVE",
"183 289 OFFCURVE",
"286 325 CURVE SMOOTH"
);
},
{
closed = 1;
nodes = (
"531 261 LINE",
"531 316 LINE",
"19 316 LINE",
"19 261 LINE"
);
},
{
closed = 1;
nodes = (
"531 391 LINE",
"531 446 LINE",
"19 446 LINE",
"19 391 LINE"
);
}
);
width = 600;
}
);
unicode = 20B4;
},
{
color = 5;
glyphname = kip;
lastChange = "2016-10-12 22:01:32 +0000";
layers = (
{
background = {
components = (
{
name = H;
transform = "{1, 0, 0, 1, -100, 0}";
}
);
};
components = (
{
name = K;
transform = "{1, 0, 0, 1, 10, 0}";
}
);
layerId = "63224BA1-30A4-42F4-A6D1-9160F56B91B0";
paths = (
{
closed = 1;
nodes = (
"186 335 LINE",
"442 335 LINE",
"442 391 LINE",
"232 391 LINE"
);
},
{
closed = 1;
nodes = (
"126 391 LINE",
"0 391 LINE",
"0 335 LINE",
"126 335 LINE"
);
}
);
width = 555;
}
);
rightMetricsKey = K;
unicode = 20AD;
},
{
color = 5;
glyphname = lira;
lastChange = "2016-10-12 22:01:32 +0000";
layers = (
{
components = (
{
name = sterling;
}
);
layerId = "63224BA1-30A4-42F4-A6D1-9160F56B91B0";
paths = (
{
closed = 1;
nodes = (
"60 218 LINE",
"372 218 LINE",
"372 266 LINE",
"60 266 LINE"
);
}
);
width = 470;
}
);
unicode = 20A4;
},
{
color = 5;
glyphname = liraTurkish;
lastChange = "2016-10-12 22:01:32 +0000";
layers = (
{
background = {
paths = (
{
closed = 1;
nodes = (
"40 438 LINE",
"369 558 LINE",
"369 602 LINE",
"40 482 LINE"
);
},
{
closed = 1;
nodes = (
"40 328 LINE",
"369 448 LINE",
"369 493 LINE",
"40 373 LINE"
);
}
);
};
layerId = "63224BA1-30A4-42F4-A6D1-9160F56B91B0";
paths = (
{
closed = 1;
nodes = (
"371 0 OFFCURVE",
"489 104 OFFCURVE",
"489 281 CURVE",
"421 281 LINE",
"421 150 OFFCURVE",
"340 61 OFFCURVE",
"188 61 CURVE",
"188 0 LINE"
);
},
{
closed = 1;
nodes = (
"40 388 LINE",
"369 498 LINE",
"369 542 LINE",
"40 432 LINE"
);
},
{
closed = 1;
nodes = (
"40 278 LINE",
"369 388 LINE",
"369 433 LINE",
"40 323 LINE"
);
},
{
closed = 1;
nodes = (
"113 682 LINE",
"113 0 LINE",
"188 0 LINE",
"188 682 LINE"
);
}
);
width = 529;
}
);
unicode = 20BA;
},
{
color = 5;
glyphname = naira;
lastChange = "2016-10-12 22:01:32 +0000";
layers = (
{
background = {
components = (
{
name = euro;
transform = "{1, 0, 0, 1, 0, 20}";
}
);
};
components = (
{
name = N;
}
);
layerId = "63224BA1-30A4-42F4-A6D1-9160F56B91B0";
paths = (
{
closed = 1;
nodes = (
"10 417 LINE",
"647 417 LINE",
"647 465 LINE",
"10 465 LINE"
);
},
{
closed = 1;
nodes = (
"10 288 LINE",
"647 288 LINE",
"647 336 LINE",
"10 336 LINE"
);
}
);
width = 629;
}
);
unicode = 20A6;
},
{
color = 5;
glyphname = peseta;
lastChange = "2016-10-12 22:01:32 +0000";
layers = (
{
layerId = "63224BA1-30A4-42F4-A6D1-9160F56B91B0";
paths = (
{
closed = 1;
nodes = (
"155 0 LINE",
"155 281 LINE",
"240 281 LINE SMOOTH",
"365 281 OFFCURVE",
"450 354 OFFCURVE",
"450 481 CURVE SMOOTH",
"450 609 OFFCURVE",
"369 682 OFFCURVE",
"248 682 CURVE SMOOTH",
"80 682 LINE",
"80 0 LINE"
);
},
{
closed = 1;
nodes = (
"238 620 LINE SMOOTH",
"328 620 OFFCURVE",
"375 571 OFFCURVE",
"375 481 CURVE SMOOTH",
"375 391 OFFCURVE",
"328 343 OFFCURVE",
"238 343 CURVE SMOOTH",
"155 343 LINE",
"155 620 LINE"
);
},
{
closed = 1;
nodes = (
"456 239 LINE",
"456 0 LINE",
"519 0 LINE",
"519 239 LINE",
"584 239 LINE",
"584 290 LINE",
"519 290 LINE",
"519 384 LINE",
"456 384 LINE",
"456 290 LINE",
"408 290 LINE",
"408 239 LINE"
);
},
{
closed = 1;
nodes = (
"760 117 OFFCURVE",
"774 103 OFFCURVE",
"774 73 CURVE SMOOTH",
"774 49 OFFCURVE",
"754 35 OFFCURVE",
"720 35 CURVE SMOOTH",
"687 35 OFFCURVE",
"651 52 OFFCURVE",
"637.578 87.634 CURVE",
"589 62 LINE",
"608 15 OFFCURVE",
"653 -11 OFFCURVE",
"719 -11 CURVE SMOOTH",
"789 -11 OFFCURVE",
"836 25 OFFCURVE",
"836 83 CURVE SMOOTH",
"836 133 OFFCURVE",
"800 161 OFFCURVE",
"725 169 CURVE SMOOTH",
"676 175 OFFCURVE",
"665 189 OFFCURVE",
"665 211 CURVE SMOOTH",
"665 233 OFFCURVE",
"684 249 OFFCURVE",
"714 249 CURVE SMOOTH",
"749 249 OFFCURVE",
"766 236 OFFCURVE",
"787 209 CURVE",
"830 239 LINE",
"804 274 OFFCURVE",
"770 301 OFFCURVE",
"709 301 CURVE SMOOTH",
"651 301 OFFCURVE",
"603 267 OFFCURVE",
"603 211 CURVE SMOOTH",
"603 159 OFFCURVE",
"638 131 OFFCURVE",
"708 123 CURVE SMOOTH"
);
}
);
width = 876;
}
);
leftMetricsKey = P;
rightMetricsKey = s;
unicode = 20A7;
},
{
color = 5;
glyphname = peso;
lastChange = "2016-10-12 22:01:32 +0000";
layers = (
{
layerId = "63224BA1-30A4-42F4-A6D1-9160F56B91B0";
paths = (
{
closed = 1;
nodes = (
"0 499 LINE",
"527 499 LINE",
"527 547 LINE",
"0 547 LINE"
);
},
{
closed = 1;
nodes = (
"141 0 LINE",
"141 261 LINE",
"256 261 LINE SMOOTH",
"381 261 OFFCURVE",
"466 338 OFFCURVE",
"466 471 CURVE SMOOTH",
"466 605 OFFCURVE",
"385 682 OFFCURVE",
"264 682 CURVE SMOOTH",
"66 682 LINE",
"66 0 LINE"
);
},
{
closed = 1;
nodes = (
"254 620 LINE",
"344 620 OFFCURVE",
"391 568 OFFCURVE",
"391 471 CURVE SMOOTH",
"391 374 OFFCURVE",
"344 323 OFFCURVE",
"254 323 CURVE SMOOTH",
"141 323 LINE",
"141 620 LINE"
);
},
{
closed = 1;
nodes = (
"0 389 LINE",
"527 389 LINE",
"527 437 LINE",
"0 437 LINE"
);
}
);
width = 542;
}
);
unicode = 20B1;
},
{
color = 5;
glyphname = ruble;
lastChange = "2016-10-12 22:01:32 +0000";
layers = (
{
background = {
paths = (
{
closed = 1;
nodes = (
"185 0 LINE",
"185 261 LINE",
"330 261 LINE SMOOTH",
"455 261 OFFCURVE",
"540 338 OFFCURVE",
"540 471 CURVE SMOOTH",
"540 605 OFFCURVE",
"459 682 OFFCURVE",
"338 682 CURVE SMOOTH",
"110 682 LINE",
"110 0 LINE"
);
},
{
closed = 1;
nodes = (
"328 620 LINE",
"418 620 OFFCURVE",
"465 568 OFFCURVE",
"465 471 CURVE SMOOTH",
"465 374 OFFCURVE",
"418 323 OFFCURVE",
"328 323 CURVE SMOOTH",
"185 323 LINE",
"185 620 LINE"
);
}
);
};
guideLines = (
{
position = "{76, 316}";
}
);
layerId = "63224BA1-30A4-42F4-A6D1-9160F56B91B0";
paths = (
{
closed = 1;
nodes = (
"111 682 LINE",
"111 316 LINE",
"40 316 LINE",
"40 261 LINE",
"111 261 LINE",
"111 186 LINE",
"40 186 LINE",
"40 131 LINE",
"111 131 LINE",
"111 0 LINE",
"186 0 LINE",
"186 131 LINE",
"302 131 LINE",
"302 186 LINE",
"186 186 LINE",
"186 261 LINE",
"319 261 LINE SMOOTH",
"444 261 OFFCURVE",
"534 348 OFFCURVE",
"534 471 CURVE SMOOTH",
"534 595 OFFCURVE",
"448 682 OFFCURVE",
"327 682 CURVE SMOOTH"
);
},
{
closed = 1;
nodes = (
"186 316 LINE",
"186 620 LINE",
"322 620 LINE SMOOTH",
"412 620 OFFCURVE",
"459 558 OFFCURVE",
"459 471 CURVE SMOOTH",
"459 384 OFFCURVE",
"412 316 OFFCURVE",
"322 316 CURVE SMOOTH"
);
}
);
width = 559;
}
);
rightMetricsKey = P;
unicode = 20BD;
},
{
color = 5;
glyphname = rupeeIndian;
lastChange = "2016-10-12 22:01:32 +0000";
layers = (
{
background = {
paths = (
{
closed = 1;
nodes = (
"50 628 LINE",
"458 628 LINE",
"458 682 LINE",
"50 682 LINE"
);
},
{
closed = 1;
nodes = (
"50 498 LINE",
"458 498 LINE",
"458 553 LINE",
"50 553 LINE"
);
}
);
};
guideLines = (
{
angle = 270;
position = "{50, 332}";
}
);
layerId = "63224BA1-30A4-42F4-A6D1-9160F56B91B0";
paths = (
{
closed = 1;
nodes = (
"156 320 LINE",
"350 0 LINE",
"429 0 LINE",
"229 330 LINE"
);
},
{
closed = 1;
nodes = (
"50 301 LINE",
"177 301 LINE SMOOTH",
"302 301 OFFCURVE",
"391 380 OFFCURVE",
"391 491 CURVE SMOOTH",
"391 591 OFFCURVE",
"302 652 OFFCURVE",
"175 652 CURVE SMOOTH",
"50 652 LINE",
"50 620 LINE",
"175 620 LINE",
"265 620 OFFCURVE",
"312 566 OFFCURVE",
"312 491 CURVE SMOOTH",
"312 416 OFFCURVE",
"265 363 OFFCURVE",
"175 363 CURVE SMOOTH",
"50 363 LINE"
);
},
{
closed = 1;
nodes = (
"50 628 LINE",
"478 628 LINE",
"478 682 LINE",
"50 682 LINE"
);
},
{
closed = 1;
nodes = (
"50 468 LINE",
"478 468 LINE",
"478 523 LINE",
"50 523 LINE"
);
}
);
width = 503;
}
);
unicode = 20B9;
},
{
color = 5;
glyphname = sterling;
lastChange = "2016-10-12 22:01:32 +0000";
layers = (
{
background = {
anchors = (
{
name = _center;
position = "{191, 342}";
}
);
paths = (
{
closed = 1;
nodes = (
"60 318 LINE",
"372 318 LINE",
"372 366 LINE",
"60 366 LINE"
);
}
);
};
layerId = "63224BA1-30A4-42F4-A6D1-9160F56B91B0";
paths = (
{
closed = 1;
nodes = (
"56 453 OFFCURVE",
"112 414 OFFCURVE",
"142 359 CURVE SMOOTH",
"159 328 OFFCURVE",
"170 297 OFFCURVE",
"170 264 CURVE SMOOTH",
"170 208 OFFCURVE",
"138 145 OFFCURVE",
"53 62 CURVE",
"53 0 LINE",
"435 0 LINE",
"435 62 LINE",
"128 62 LINE",
"196 133 OFFCURVE",
"242 202 OFFCURVE",
"242 279 CURVE SMOOTH",
"242 316 OFFCURVE",
"231 355 OFFCURVE",
"207 397 CURVE SMOOTH",
"168 465 OFFCURVE",
"134 494 OFFCURVE",
"134 546 CURVE SMOOTH",
"134 602 OFFCURVE",
"192 629 OFFCURVE",
"257 629 CURVE SMOOTH",
"322 629 OFFCURVE",
"372 602 OFFCURVE",
"372 551 CURVE",
"451 551 LINE",
"451 634 OFFCURVE",
"366 697 OFFCURVE",
"257 697 CURVE SMOOTH",
"158 697 OFFCURVE",
"56 645 OFFCURVE",
"56 540 CURVE SMOOTH"
);
},
{
closed = 1;
nodes = (
"60 318 LINE",
"372 318 LINE",
"372 366 LINE",
"60 366 LINE"
);
}
);
width = 470;
}
);
unicode = 00A3;
},
{
color = 5;
glyphname = tenge;
lastChange = "2016-10-12 22:01:32 +0000";
layers = (
{
background = {
components = (
{
name = euro;
transform = "{1, 0, 0, 1, 0, 237}";
}
);
};
layerId = "63224BA1-30A4-42F4-A6D1-9160F56B91B0";
paths = (
{
closed = 1;
nodes = (
"230 508 LINE",
"230 0 LINE",
"304 0 LINE",
"304 508 LINE",
"519 508 LINE",
"519 570 LINE",
"15 570 LINE",
"15 508 LINE"
);
},
{
closed = 1;
nodes = (
"519 628 LINE",
"519 682 LINE",
"15 682 LINE",
"15 628 LINE"
);
}
);
width = 534;
}
);
unicode = 20B8;
},
{
color = 5;
glyphname = tugrik;
lastChange = "2016-10-12 22:01:32 +0000";
layers = (
{
background = {
paths = (
{
closed = 1;
nodes = (
"230 620 LINE",
"230 0 LINE",
"304 0 LINE",
"304 620 LINE",
"519 620 LINE",
"519 682 LINE",
"15 682 LINE",
"15 620 LINE"
);
}
);
};
layerId = "63224BA1-30A4-42F4-A6D1-9160F56B91B0";
paths = (
{
closed = 1;
nodes = (
"126 285 LINE",
"395 385 LINE",
"395 433 LINE",
"126 333 LINE"
);
},
{
closed = 1;
nodes = (
"126 165 LINE",
"395 265 LINE",
"395 314 LINE",
"126 214 LINE"
);
},
{
closed = 1;
nodes = (
"230 620 LINE",
"230 0 LINE",
"304 0 LINE",
"304 620 LINE",
"519 620 LINE",
"519 682 LINE",
"15 682 LINE",
"15 620 LINE"
);
}
);
width = 534;
}
);
unicode = 20AE;
},
{
color = 5;
glyphname = won;
lastChange = "2016-10-12 22:01:32 +0000";
layers = (
{
background = {
anchors = (
{
name = bottom;
position = "{306, 0}";
},
{
name = top;
position = "{306, 682}";
}
);
paths = (
{
closed = 1;
nodes = (
"-10 417 LINE",
"627 417 LINE",
"627 465 LINE",
"-10 465 LINE"
);
},
{
closed = 1;
nodes = (
"1 288 LINE",
"638 288 LINE",
"638 336 LINE",
"1 336 LINE"
);
},
{
closed = 1;
nodes = (
"134 0 LINE",
"134 567 LINE",
"481 0 LINE",
"561 0 LINE",
"561 682 LINE",
"486 682 LINE",
"486 113 LINE",
"139 682 LINE",
"59 682 LINE",
"59 0 LINE"
);
}
);
};
guideLines = (
{
angle = 270;
position = "{40, 441}";
},
{
angle = 270;
position = "{787, 441}";
}
);
layerId = "63224BA1-30A4-42F4-A6D1-9160F56B91B0";
paths = (
{
closed = 1;
nodes = (
"425 594 LINE",
"406 594 LINE",
"540 0 LINE",
"618 0 LINE",
"770 682 LINE",
"699 682 LINE",
"577 82 LINE",
"585 82 LINE",
"446 682 LINE",
"388 682 LINE",
"249 81 LINE",
"260 81 LINE",
"137 682 LINE",
"63 682 LINE",
"215 0 LINE",
"287 0 LINE"
);
},
{
closed = 1;
nodes = (
"40 417 LINE",
"787 417 LINE",
"787 465 LINE",
"40 465 LINE"
);
},
{
closed = 1;
nodes = (
"40 288 LINE",
"787 288 LINE",
"787 336 LINE",
"40 336 LINE"
);
}
);
width = 827;
}
);
unicode = 20A9;
},
{
color = 5;
glyphname = yen;
lastChange = "2016-10-12 22:01:32 +0000";
layers = (
{
background = {
paths = (
{
closed = 1;
nodes = (
"110 249 LINE",
"372 249 LINE",
"372 297 LINE",
"110 297 LINE"
);
},
{
closed = 1;
nodes = (
"110 149 LINE",
"372 149 LINE",
"372 197 LINE",
"110 197 LINE"
);
}
);
};
components = (
{
name = Y;
}
);
layerId = "63224BA1-30A4-42F4-A6D1-9160F56B91B0";
paths = (
{
closed = 1;
nodes = (
"110 249 LINE",
"372 249 LINE",
"372 297 LINE",
"110 297 LINE"
);
},
{
closed = 1;
nodes = (
"110 149 LINE",
"372 149 LINE",
"372 197 LINE",
"110 197 LINE"
);
}
);
width = 484;
}
);
unicode = 00A5;
},
{
color = 5;
glyphname = dollar.osf;
lastChange = "2016-10-12 22:01:32 +0000";
layers = (
{
layerId = "63224BA1-30A4-42F4-A6D1-9160F56B91B0";
paths = (
{
closed = 1;
nodes = (
"214 582 LINE",
"115 573 OFFCURVE",
"49 517 OFFCURVE",
"49 436 CURVE SMOOTH",
"49 380 OFFCURVE",
"81 350 OFFCURVE",
"126 330 CURVE",
"158 317 OFFCURVE",
"179 313 OFFCURVE",
"214 306 CURVE",
"214 146 LINE",
"157 150 OFFCURVE",
"112 180 OFFCURVE",
"96 224 CURVE",
"35 193 LINE",
"64 126 OFFCURVE",
"130 86 OFFCURVE",
"214 83 CURVE",
"214 0 LINE",
"255 0 LINE",
"255 84 LINE",
"308 88 OFFCURVE",
"351 103 OFFCURVE",
"386 129 CURVE SMOOTH",
"421 156 OFFCURVE",
"438 189 OFFCURVE",
"438 230 CURVE SMOOTH",
"438 277 OFFCURVE",
"416 310 OFFCURVE",
"376 330 CURVE SMOOTH",
"336 351 OFFCURVE",
"303 359 OFFCURVE",
"255 367 CURVE",
"255 520 LINE",
"307 517 OFFCURVE",
"343 491 OFFCURVE",
"362 442 CURVE",
"423 473 LINE",
"393 543 OFFCURVE",
"337 580 OFFCURVE",
"255 583 CURVE",
"255 682 LINE",
"214 682 LINE"
);
},
{
closed = 1;
nodes = (
"214 374 LINE",
"154 383 OFFCURVE",
"118 397 OFFCURVE",
"118 436 CURVE SMOOTH",
"118 480 OFFCURVE",
"151 511 OFFCURVE",
"214 519 CURVE"
);
},
{
closed = 1;
nodes = (
"255 298 LINE",
"274 295 OFFCURVE",
"288 292 OFFCURVE",
"296 290 CURVE SMOOTH",
"304 288 OFFCURVE",
"315 284 OFFCURVE",
"330 279 CURVE SMOOTH",
"359 270 OFFCURVE",
"370 254 OFFCURVE",
"370 230 CURVE SMOOTH",
"370 189 OFFCURVE",
"324 154 OFFCURVE",
"255 147 CURVE"
);
}
);
width = 483;
}
);
},
{
color = 5;
glyphname = divisionslash;
lastChange = "2016-10-12 22:01:32 +0000";
layers = (
{
layerId = "63224BA1-30A4-42F4-A6D1-9160F56B91B0";
paths = (
{
closed = 1;
nodes = (
"348 682 LINE",
"-20 0 LINE",
"42 0 LINE",
"410 682 LINE"
);
}
);
width = 260;
}
);
unicode = 2215;
},
{
color = 5;
glyphname = plus;
lastChange = "2016-10-12 22:01:32 +0000";
layers = (
{
layerId = "63224BA1-30A4-42F4-A6D1-9160F56B91B0";
paths = (
{
closed = 1;
nodes = (
"220 113 LINE",
"280 113 LINE",
"280 283 LINE",
"450 283 LINE",
"450 338 LINE",
"280 338 LINE",
"280 518 LINE",
"220 518 LINE",
"220 338 LINE",
"50 338 LINE",
"50 283 LINE",
"220 283 LINE"
);
}
);
width = 500;
}
);
unicode = 002B;
},
{
color = 5;
glyphname = minus;
lastChange = "2016-10-12 22:01:32 +0000";
layers = (
{
background = {
components = (
{
name = equal;
transform = "{1, 0, 0, 1, -15, 0}";
}
);
};
layerId = "63224BA1-30A4-42F4-A6D1-9160F56B91B0";
paths = (
{
closed = 1;
nodes = (
"450 283 LINE",
"450 338 LINE",
"50 338 LINE",
"50 283 LINE"
);
}
);
width = 500;
}
);
unicode = 2212;
},
{
color = 5;
glyphname = multiply;
lastChange = "2016-10-12 22:01:32 +0000";
layers = (
{
layerId = "63224BA1-30A4-42F4-A6D1-9160F56B91B0";
paths = (
{
closed = 1;
nodes = (
"134 468 LINE",
"95 428 LINE",
"209 314 LINE",
"88 192 LINE",
"126 153 LINE",
"248 275 LINE",
"369 153 LINE",
"409 193 LINE",
"288 315 LINE",
"409 436 LINE",
"370 475 LINE",
"249 354 LINE"
);
}
);
width = 500;
}
);
unicode = 00D7;
},
{
color = 5;
glyphname = divide;
lastChange = "2016-10-12 22:01:32 +0000";
layers = (
{
background = {
components = (
{
name = colon;
transform = "{1, 0, 0, 1, 140, 70}";
}
);
paths = (
{
closed = 1;
nodes = (
"450 283 LINE",
"450 338 LINE",
"50 338 LINE",
"50 283 LINE"
);
}
);
};
layerId = "63224BA1-30A4-42F4-A6D1-9160F56B91B0";
paths = (
{
closed = 1;
nodes = (
"450 283 LINE",
"450 338 LINE",
"50 338 LINE",
"50 283 LINE"
);
},
{
closed = 1;
nodes = (
"196 116 OFFCURVE",
"221 92 OFFCURVE",
"250 92 CURVE SMOOTH",
"281 92 OFFCURVE",
"304 117 OFFCURVE",
"304 146 CURVE SMOOTH",
"304 177 OFFCURVE",
"281 201 OFFCURVE",
"250 201 CURVE SMOOTH",
"221 201 OFFCURVE",
"196 176 OFFCURVE",
"196 147 CURVE SMOOTH"
);
},
{
closed = 1;
nodes = (
"196 429 OFFCURVE",
"221 403 OFFCURVE",
"250 403 CURVE SMOOTH",
"281 403 OFFCURVE",
"304 429 OFFCURVE",
"304 458 CURVE SMOOTH",
"304 487 OFFCURVE",
"281 512 OFFCURVE",
"250 512 CURVE SMOOTH",
"221 512 OFFCURVE",
"196 487 OFFCURVE",
"196 458 CURVE SMOOTH"
);
}
);
width = 500;
}
);
unicode = 00F7;
},
{
color = 5;
glyphname = equal;
lastChange = "2016-10-12 22:01:32 +0000";
layers = (
{
background = {
paths = (
{
closed = 1;
nodes = (
"450 283 LINE",
"450 338 LINE",
"50 338 LINE",
"50 283 LINE"
);
}
);
};
layerId = "63224BA1-30A4-42F4-A6D1-9160F56B91B0";
paths = (
{
closed = 1;
nodes = (
"450 346 LINE",
"450 401 LINE",
"50 401 LINE",
"50 346 LINE"
);
},
{
closed = 1;
nodes = (
"450 216 LINE",
"450 271 LINE",
"50 271 LINE",
"50 216 LINE"
);
}
);
width = 500;
}
);
unicode = 003D;
},
{
color = 5;
glyphname = notequal;
lastChange = "2016-10-12 22:01:32 +0000";
layers = (
{
background = {
paths = (
{
closed = 1;
nodes = (
"303 532 LINE",
"125 65 LINE",
"178 65 LINE",
"357 532 LINE"
);
}
);
};
components = (
{
name = equal;
}
);
layerId = "63224BA1-30A4-42F4-A6D1-9160F56B91B0";
paths = (
{
closed = 1;
nodes = (
"303 521 LINE",
"137 85 LINE",
"185 85 LINE",
"352 521 LINE"
);
}
);
width = 500;
}
);
unicode = 2260;
},
{
color = 5;
glyphname = greater;
lastChange = "2016-10-12 22:01:32 +0000";
layers = (
{
guideLines = (
{
angle = 90;
position = "{90, 403}";
},
{
angle = 90;
position = "{116, 403}";
}
);
layerId = "63224BA1-30A4-42F4-A6D1-9160F56B91B0";
paths = (
{
closed = 1;
nodes = (
"116 486 LINE",
"90 438 LINE",
"402 271 LINE",
"402 301 LINE",
"90 131 LINE",
"116 84 LINE",
"475 285 LINE"
);
}
);
width = 500;
}
);
unicode = 003E;
},
{
color = 5;
glyphname = greaterequal;
lastChange = "2016-10-12 22:01:32 +0000";
layers = (
{
background = {
paths = (
{
closed = 1;
nodes = (
"60 367 LINE",
"60 312 LINE",
"448 312 LINE",
"448 367 LINE"
);
}
);
};
layerId = "63224BA1-30A4-42F4-A6D1-9160F56B91B0";
paths = (
{
closed = 1;
nodes = (
"89 537 LINE",
"62 489 LINE",
"375 320 LINE",
"375 353 LINE",
"62 183 LINE",
"89 135 LINE",
"448 336 LINE"
);
},
{
closed = 1;
nodes = (
"60 107 LINE",
"60 52 LINE",
"448 52 LINE",
"448 107 LINE"
);
}
);
width = 500;
},
{
associatedMasterId = "63224BA1-30A4-42F4-A6D1-9160F56B91B0";
background = {
paths = (
{
closed = 1;
nodes = (
"89 537 LINE",
"63 489 LINE",
"375 322 LINE",
"375 352 LINE",
"63 182 LINE",
"89 135 LINE",
"448 336 LINE"
);
}
);
};
layerId = "2AD1F860-AAAC-4AD0-A644-1C2088C2EFD4";
name = "Oct 11 16, 19:14";
paths = (
{
closed = 1;
nodes = (
"60 550 LINE",
"60 486 LINE",
"368 326 LINE",
"368 347 LINE",
"60 187 LINE",
"60 122 LINE",
"448 336 LINE"
);
},
{
closed = 1;
nodes = (
"60 117 LINE",
"60 62 LINE",
"448 62 LINE",
"448 117 LINE"
);
}
);
width = 500;
}
);
unicode = 2265;
},
{
color = 5;
glyphname = lessequal;
lastChange = "2016-10-12 22:01:32 +0000";
layers = (
{
background = {
paths = (
{
closed = 1;
nodes = (
"64 112 LINE",
"463 112 LINE",
"463 167 LINE",
"64 167 LINE"
);
}
);
};
components = (
{
name = greaterequal;
transform = "{-1, 0, 0, 1, 500, 0}";
}
);
guideLines = (
{
angle = 90;
position = "{452, 210}";
}
);
layerId = "63224BA1-30A4-42F4-A6D1-9160F56B91B0";
width = 500;
}
);
unicode = 2264;
},
{
color = 5;
glyphname = plusminus;
lastChange = "2016-10-12 22:01:32 +0000";
layers = (
{
background = {
paths = (
{
closed = 1;
nodes = (
"450 346 LINE",
"450 401 LINE",
"50 401 LINE",
"50 346 LINE"
);
},
{
closed = 1;
nodes = (
"450 216 LINE",
"450 271 LINE",
"50 271 LINE",
"50 216 LINE"
);
}
);
};
layerId = "63224BA1-30A4-42F4-A6D1-9160F56B91B0";
paths = (
{
closed = 1;
nodes = (
"220 216 LINE",
"280 216 LINE",
"280 346 LINE",
"450 346 LINE",
"450 401 LINE",
"280 401 LINE",
"280 541 LINE",
"220 541 LINE",
"220 401 LINE",
"50 401 LINE",
"50 346 LINE",
"220 346 LINE"
);
},
{
closed = 1;
nodes = (
"450 116 LINE",
"450 171 LINE",
"50 171 LINE",
"50 116 LINE"
);
}
);
width = 500;
}
);
unicode = 00B1;
},
{
color = 5;
glyphname = asciitilde;
lastChange = "2016-10-12 22:01:32 +0000";
layers = (
{
background = {
components = (
{
name = equal;
}
);
};
guideLines = (
{
position = "{274, 616}";
}
);
layerId = "63224BA1-30A4-42F4-A6D1-9160F56B91B0";
paths = (
{
closed = 1;
nodes = (
"73 281 LINE",
"96 302 OFFCURVE",
"121 316 OFFCURVE",
"156 316 CURVE SMOOTH",
"227 316 OFFCURVE",
"264 257 OFFCURVE",
"337 257 CURVE SMOOTH",
"379 257 OFFCURVE",
"421 276 OFFCURVE",
"450 311 CURVE",
"424 344 LINE",
"401 325 OFFCURVE",
"375 312 OFFCURVE",
"342 312 CURVE SMOOTH",
"272 312 OFFCURVE",
"246 371 OFFCURVE",
"163 371 CURVE SMOOTH",
"117 371 OFFCURVE",
"80 353 OFFCURVE",
"50 318 CURVE"
);
}
);
width = 500;
},
{
associatedMasterId = "63224BA1-30A4-42F4-A6D1-9160F56B91B0";
background = {
paths = (
{
closed = 1;
nodes = (
"80 295 OFFCURVE",
"121 321 OFFCURVE",
"156 321 CURVE SMOOTH",
"227 321 OFFCURVE",
"274 262 OFFCURVE",
"337 262 CURVE SMOOTH",
"383 262 OFFCURVE",
"421 281 OFFCURVE",
"450 316 CURVE",
"450 371 LINE",
"421 338 OFFCURVE",
"389 312 OFFCURVE",
"342 312 CURVE SMOOTH",
"272 312 OFFCURVE",
"237 371 OFFCURVE",
"163 371 CURVE SMOOTH",
"117 371 OFFCURVE",
"80 353 OFFCURVE",
"50 318 CURVE",
"50 262 LINE"
);
}
);
};
guideLines = (
{
position = "{274, 616}";
}
);
layerId = "D8250E41-77FC-4400-8835-1704F96EB829";
name = "Oct 11 16, 19:06";
paths = (
{
closed = 1;
nodes = (
"80 295 OFFCURVE",
"109 321 OFFCURVE",
"156 321 CURVE SMOOTH",
"227 321 OFFCURVE",
"264 262 OFFCURVE",
"337 262 CURVE SMOOTH",
"379 262 OFFCURVE",
"421 281 OFFCURVE",
"450 316 CURVE",
"450 371 LINE",
"421 338 OFFCURVE",
"389 312 OFFCURVE",
"342 312 CURVE SMOOTH",
"272 312 OFFCURVE",
"246 371 OFFCURVE",
"163 371 CURVE SMOOTH",
"117 371 OFFCURVE",
"80 353 OFFCURVE",
"50 318 CURVE",
"50 262 LINE"
);
}
);
width = 500;
}
);
unicode = 007E;
},
{
color = 5;
glyphname = logicalnot;
lastChange = "2016-10-12 22:01:32 +0000";
layers = (
{
layerId = "63224BA1-30A4-42F4-A6D1-9160F56B91B0";
paths = (
{
closed = 1;
nodes = (
"50 338 LINE",
"50 283 LINE",
"382 283 LINE",
"382 160 LINE",
"450 160 LINE",
"450 338 LINE"
);
}
);
width = 500;
}
);
unicode = 00AC;
},
{
color = 5;
glyphname = percent;
lastChange = "2016-10-12 22:01:32 +0000";
layers = (
{
layerId = "63224BA1-30A4-42F4-A6D1-9160F56B91B0";
paths = (
{
closed = 1;
nodes = (
"84 580 OFFCURVE",
"118 623 OFFCURVE",
"167 623 CURVE SMOOTH",
"218 623 OFFCURVE",
"254 579 OFFCURVE",
"254 516 CURVE SMOOTH",
"254 449 OFFCURVE",
"218 403 OFFCURVE",
"167 403 CURVE SMOOTH",
"118 403 OFFCURVE",
"84 450 OFFCURVE",
"84 518 CURVE SMOOTH"
);
},
{
closed = 1;
nodes = (
"25 416 OFFCURVE",
"85 344 OFFCURVE",
"169 343 CURVE SMOOTH",
"253 342 OFFCURVE",
"313 416 OFFCURVE",
"313 518 CURVE SMOOTH",
"313 614 OFFCURVE",
"253 682 OFFCURVE",
"169 682 CURVE SMOOTH",
"85 682 OFFCURVE",
"25 614 OFFCURVE",
"25 518 CURVE SMOOTH"
);
},
{
closed = 1;
nodes = (
"175 -9 LINE",
"603 673 LINE",
"549 702 LINE",
"119 19 LINE"
);
},
{
closed = 1;
nodes = (
"484 237 OFFCURVE",
"518 280 OFFCURVE",
"567 280 CURVE SMOOTH",
"618 280 OFFCURVE",
"654 236 OFFCURVE",
"654 173 CURVE SMOOTH",
"654 106 OFFCURVE",
"618 60 OFFCURVE",
"567 60 CURVE SMOOTH",
"518 60 OFFCURVE",
"484 107 OFFCURVE",
"484 175 CURVE SMOOTH"
);
},
{
closed = 1;
nodes = (
"425 73 OFFCURVE",
"485 1 OFFCURVE",
"569 0 CURVE SMOOTH",
"653 -1 OFFCURVE",
"713 73 OFFCURVE",
"713 175 CURVE SMOOTH",
"713 271 OFFCURVE",
"653 339 OFFCURVE",
"569 339 CURVE SMOOTH",
"485 339 OFFCURVE",
"425 271 OFFCURVE",
"425 175 CURVE SMOOTH"
);
}
);
width = 738;
}
);
unicode = 0025;
},
{
color = 5;
glyphname = perthousand;
lastChange = "2016-10-12 22:01:32 +0000";
layers = (
{
layerId = "63224BA1-30A4-42F4-A6D1-9160F56B91B0";
paths = (
{
closed = 1;
nodes = (
"83 608 OFFCURVE",
"111 643 OFFCURVE",
"150 643 CURVE SMOOTH",
"190 643 OFFCURVE",
"221 607 OFFCURVE",
"221 556 CURVE SMOOTH",
"221 502 OFFCURVE",
"192 464 OFFCURVE",
"150 464 CURVE SMOOTH",
"111 464 OFFCURVE",
"83 502 OFFCURVE",
"83 558 CURVE SMOOTH"
);
},
{
closed = 1;
nodes = (
"28 470 OFFCURVE",
"80 408 OFFCURVE",
"152 407 CURVE SMOOTH",
"224 406 OFFCURVE",
"276 470 OFFCURVE",
"276 558 CURVE SMOOTH",
"276 641 OFFCURVE",
"224 699 OFFCURVE",
"152 699 CURVE SMOOTH",
"80 699 OFFCURVE",
"28 641 OFFCURVE",
"28 558 CURVE SMOOTH"
);
},
{
closed = 1;
nodes = (
"54 241 LINE",
"578 528 LINE",
"551 577 LINE",
"25 291 LINE"
);
},
{
closed = 1;
nodes = (
"163 184 OFFCURVE",
"191 219 OFFCURVE",
"230 219 CURVE SMOOTH",
"272 219 OFFCURVE",
"301 183 OFFCURVE",
"301 132 CURVE SMOOTH",
"301 78 OFFCURVE",
"272 40 OFFCURVE",
"230 40 CURVE SMOOTH",
"191 40 OFFCURVE",
"163 78 OFFCURVE",
"163 134 CURVE SMOOTH"
);
},
{
closed = 1;
nodes = (
"108 46 OFFCURVE",
"160 -16 OFFCURVE",
"232 -17 CURVE SMOOTH",
"304 -18 OFFCURVE",
"356 46 OFFCURVE",
"356 134 CURVE SMOOTH",
"356 217 OFFCURVE",
"304 275 OFFCURVE",
"232 275 CURVE SMOOTH",
"160 275 OFFCURVE",
"108 217 OFFCURVE",
"108 134 CURVE SMOOTH"
);
},
{
closed = 1;
nodes = (
"443 184 OFFCURVE",
"471 219 OFFCURVE",
"510 219 CURVE SMOOTH",
"552 219 OFFCURVE",
"581 183 OFFCURVE",
"581 132 CURVE SMOOTH",
"581 78 OFFCURVE",
"552 40 OFFCURVE",
"510 40 CURVE SMOOTH",
"471 40 OFFCURVE",
"443 78 OFFCURVE",
"443 134 CURVE SMOOTH"
);
},
{
closed = 1;
nodes = (
"388 46 OFFCURVE",
"440 -16 OFFCURVE",
"512 -17 CURVE SMOOTH",
"584 -18 OFFCURVE",
"636 46 OFFCURVE",
"636 134 CURVE SMOOTH",
"636 217 OFFCURVE",
"584 275 OFFCURVE",
"512 275 CURVE SMOOTH",
"440 275 OFFCURVE",
"388 217 OFFCURVE",
"388 134 CURVE SMOOTH"
);
}
);
width = 661;
},
{
associatedMasterId = "63224BA1-30A4-42F4-A6D1-9160F56B91B0";
components = (
{
name = percent;
}
);
layerId = "F4220F0D-85CE-4818-A9F2-AE461E01380A";
name = "Oct 11 16, 19:30";
paths = (
{
closed = 1;
nodes = (
"814 237 OFFCURVE",
"848 280 OFFCURVE",
"897 280 CURVE SMOOTH",
"948 280 OFFCURVE",
"984 236 OFFCURVE",
"984 173 CURVE SMOOTH",
"984 106 OFFCURVE",
"948 60 OFFCURVE",
"897 60 CURVE SMOOTH",
"848 60 OFFCURVE",
"814 107 OFFCURVE",
"814 175 CURVE SMOOTH"
);
},
{
closed = 1;
nodes = (
"755 73 OFFCURVE",
"815 1 OFFCURVE",
"899 0 CURVE SMOOTH",
"983 -1 OFFCURVE",
"1043 73 OFFCURVE",
"1043 175 CURVE SMOOTH",
"1043 271 OFFCURVE",
"983 339 OFFCURVE",
"899 339 CURVE SMOOTH",
"815 339 OFFCURVE",
"755 271 OFFCURVE",
"755 175 CURVE SMOOTH"
);
}
);
width = 1068;
}
);
unicode = 2030;
},
{
color = 5;
glyphname = at;
lastChange = "2016-10-12 22:01:32 +0000";
layers = (
{
layerId = "63224BA1-30A4-42F4-A6D1-9160F56B91B0";
paths = (
{
closed = 1;
nodes = (
"492 278 CURVE SMOOTH",
"492 427 OFFCURVE",
"442 496 OFFCURVE",
"367 496 CURVE SMOOTH",
"274 496 OFFCURVE",
"208 406 OFFCURVE",
"208 278 CURVE SMOOTH",
"208 147 OFFCURVE",
"275 55 OFFCURVE",
"369 55 CURVE SMOOTH",
"435 55 OFFCURVE",
"492 121 OFFCURVE"
);
},
{
closed = 1;
nodes = (
"464 182 OFFCURVE",
"434 116 OFFCURVE",
"367 116 CURVE SMOOTH",
"310 116 OFFCURVE",
"269 182 OFFCURVE",
"269 275 CURVE SMOOTH",
"269 368 OFFCURVE",
"310 434 OFFCURVE",
"367 434 CURVE SMOOTH",
"424 434 OFFCURVE",
"464 368 OFFCURVE",
"464 275 CURVE SMOOTH"
);
},
{
closed = 1;
nodes = (
"467 194 LINE",
"467 101 OFFCURVE",
"508 56 OFFCURVE",
"567 56 CURVE SMOOTH",
"651 56 OFFCURVE",
"709 159 OFFCURVE",
"709 303 CURVE SMOOTH",
"709 534 OFFCURVE",
"588 695 OFFCURVE",
"387 695 CURVE SMOOTH",
"192 695 OFFCURVE",
"34 527 OFFCURVE",
"34 289 CURVE SMOOTH",
"34 34 OFFCURVE",
"187 -146 OFFCURVE",
"403 -146 CURVE SMOOTH",
"446 -146 OFFCURVE",
"512 -134 OFFCURVE",
"562 -116 CURVE",
"535 -58 LINE",
"491 -73 OFFCURVE",
"436 -84 OFFCURVE",
"403 -84 CURVE SMOOTH",
"227 -84 OFFCURVE",
"102 72 OFFCURVE",
"102 292 CURVE SMOOTH",
"102 492 OFFCURVE",
"232 633 OFFCURVE",
"387 633 CURVE SMOOTH",
"548 633 OFFCURVE",
"642 498 OFFCURVE",
"642 307 CURVE SMOOTH",
"642 200 OFFCURVE",
"611 124 OFFCURVE",
"567 124 CURVE SMOOTH",
"543 124 OFFCURVE",
"526 140 OFFCURVE",
"526 177 CURVE SMOOTH",
"526 479 LINE",
"464 479 LINE",
"464 442 LINE"
);
}
);
width = 742;
}
);
leftMetricsKey = o;
rightMetricsKey = o;
unicode = 0040;
},
{
color = 5;
glyphname = ampersand;
lastChange = "2016-10-12 22:01:32 +0000";
layers = (
{
background = {
paths = (
{
closed = 0;
nodes = (
"503 2 LINE",
"174 395 LINE SMOOTH",
"133 444 OFFCURVE",
"123 495 OFFCURVE",
"123 530 CURVE SMOOTH",
"123 610 OFFCURVE",
"177 658 OFFCURVE",
"248 658 CURVE SMOOTH",
"320 658 OFFCURVE",
"366 608 OFFCURVE",
"366 529 CURVE SMOOTH",
"366 447 OFFCURVE",
"317 414 OFFCURVE",
"234 352 CURVE SMOOTH",
"119 266 OFFCURVE",
"71 228 OFFCURVE",
"71 157 CURVE SMOOTH",
"71 55 OFFCURVE",
"169 17 OFFCURVE",
"246 17 CURVE SMOOTH",
"351 17 OFFCURVE",
"439 87 OFFCURVE",
"460 235 CURVE SMOOTH"
);
}
);
};
layerId = "63224BA1-30A4-42F4-A6D1-9160F56B91B0";
paths = (
{
closed = 1;
nodes = (
"346 -17 OFFCURVE",
"450 64 OFFCURVE",
"486 239 CURVE",
"427 247 LINE",
"397 106 OFFCURVE",
"318 45 OFFCURVE",
"228 45 CURVE SMOOTH",
"153 45 OFFCURVE",
"114 87 OFFCURVE",
"114 148 CURVE SMOOTH",
"114 209 OFFCURVE",
"152 266 OFFCURVE",
"224 326 CURVE SMOOTH",
"298 390 OFFCURVE",
"365 455 OFFCURVE",
"365 550 CURVE SMOOTH",
"364 652 OFFCURVE",
"295 688 OFFCURVE",
"220 688 CURVE SMOOTH",
"125 688 OFFCURVE",
"75 629 OFFCURVE",
"75 538 CURVE SMOOTH",
"75 492 OFFCURVE",
"88 446 OFFCURVE",
"146 376 CURVE SMOOTH",
"462 0 LINE",
"542 0 LINE",
"197 414 LINE SMOOTH",
"156 464 OFFCURVE",
"143 495 OFFCURVE",
"143 542 CURVE SMOOTH",
"143 595 OFFCURVE",
"173 626 OFFCURVE",
"221 626 CURVE SMOOTH",
"266 626 OFFCURVE",
"296 599 OFFCURVE",
"296 541 CURVE SMOOTH",
"296 485 OFFCURVE",
"261 442 OFFCURVE",
"185 371 CURVE SMOOTH",
"99 294 OFFCURVE",
"45 239 OFFCURVE",
"45 146 CURVE SMOOTH",
"45 48 OFFCURVE",
"104 -17 OFFCURVE",
"218 -17 CURVE SMOOTH"
);
}
);
width = 532;
},
{
associatedMasterId = "63224BA1-30A4-42F4-A6D1-9160F56B91B0";
background = {
paths = (
{
closed = 0;
nodes = (
"481 2 LINE",
"152 395 LINE SMOOTH",
"111 444 OFFCURVE",
"101 495 OFFCURVE",
"101 530 CURVE SMOOTH",
"101 610 OFFCURVE",
"155 658 OFFCURVE",
"226 658 CURVE SMOOTH",
"298 658 OFFCURVE",
"344 608 OFFCURVE",
"344 529 CURVE SMOOTH",
"344 447 OFFCURVE",
"295 414 OFFCURVE",
"212 352 CURVE SMOOTH",
"97 266 OFFCURVE",
"49 228 OFFCURVE",
"49 157 CURVE SMOOTH",
"49 55 OFFCURVE",
"147 17 OFFCURVE",
"224 17 CURVE SMOOTH",
"329 17 OFFCURVE",
"417 87 OFFCURVE",
"438 235 CURVE SMOOTH"
);
}
);
};
layerId = "8FF1C840-4D68-4045-91BE-E0ABE1CC7B2A";
name = "Oct 11 16, 19:41";
paths = (
{
closed = 1;
nodes = (
"307 57 OFFCURVE",
"196 57 CURVE SMOOTH",
"133 57 OFFCURVE",
"88 92 OFFCURVE",
"88 141 CURVE SMOOTH",
"88 233 OFFCURVE",
"127 278 OFFCURVE",
"237 337 CURVE SMOOTH",
"344 394 OFFCURVE",
"382 468 OFFCURVE",
"383 533 CURVE SMOOTH",
"382 624 OFFCURVE",
"336 693 OFFCURVE",
"232 693 CURVE SMOOTH",
"70 693 OFFCURVE",
"7 527 OFFCURVE",
"121 385 CURVE SMOOTH",
"431 0 LINE",
"522 0 LINE",
"169 428 LINE SMOOTH",
"97 516 OFFCURVE",
"144 626 OFFCURVE",
"227 626 CURVE SMOOTH",
"278 626 OFFCURVE",
"308 594 OFFCURVE",
"308 545 CURVE SMOOTH",
"307 486 OFFCURVE",
"288 433 OFFCURVE",
"206 388 CURVE SMOOTH",
"47 301 OFFCURVE",
"12 209 OFFCURVE",
"12 139 CURVE SMOOTH",
"12 50 OFFCURVE",
"88 -12 OFFCURVE",
"196 -12 CURVE SMOOTH",
"323 -12 OFFCURVE",
"446 96 OFFCURVE",
"473 195 CURVE",
"408 211 LINE",
"380 143 OFFCURVE"
);
}
);
width = 535;
},
{
associatedMasterId = "63224BA1-30A4-42F4-A6D1-9160F56B91B0";
background = {
paths = (
{
closed = 0;
nodes = (
"525 2 LINE",
"196 395 LINE SMOOTH",
"155 444 OFFCURVE",
"145 495 OFFCURVE",
"145 530 CURVE SMOOTH",
"145 610 OFFCURVE",
"199 658 OFFCURVE",
"270 658 CURVE SMOOTH",
"342 658 OFFCURVE",
"388 608 OFFCURVE",
"388 529 CURVE SMOOTH",
"388 447 OFFCURVE",
"339 414 OFFCURVE",
"256 352 CURVE SMOOTH",
"141 266 OFFCURVE",
"93 228 OFFCURVE",
"93 157 CURVE SMOOTH",
"93 55 OFFCURVE",
"191 17 OFFCURVE",
"268 17 CURVE SMOOTH",
"373 17 OFFCURVE",
"461 87 OFFCURVE",
"482 235 CURVE SMOOTH"
);
}
);
};
layerId = "65350CCA-B7FC-4DF9-B235-B68F613BA940";
name = "Oct 11 16, 19:48";
paths = (
{
closed = 1;
nodes = (
"391 -13 OFFCURVE",
"475 68 OFFCURVE",
"513 231 CURVE",
"453 239 LINE",
"421 111 OFFCURVE",
"360 49 OFFCURVE",
"251 49 CURVE SMOOTH",
"165 49 OFFCURVE",
"113 87 OFFCURVE",
"113 150 CURVE SMOOTH",
"113 204 OFFCURVE",
"152 264 OFFCURVE",
"252 330 CURVE SMOOTH",
"330 384 OFFCURVE",
"411 436 OFFCURVE",
"411 545 CURVE SMOOTH",
"411 641 OFFCURVE",
"348 688 OFFCURVE",
"265 688 CURVE SMOOTH",
"161 688 OFFCURVE",
"107 614 OFFCURVE",
"107 529 CURVE SMOOTH",
"107 476 OFFCURVE",
"128 429 OFFCURVE",
"173 376 CURVE SMOOTH",
"489 0 LINE",
"564 0 LINE",
"219 414 LINE SMOOTH",
"190 449 OFFCURVE",
"175 489 OFFCURVE",
"175 530 CURVE SMOOTH",
"175 591 OFFCURVE",
"208 626 OFFCURVE",
"263 626 CURVE SMOOTH",
"319 626 OFFCURVE",
"343 588 OFFCURVE",
"343 540 CURVE SMOOTH",
"343 466 OFFCURVE",
"300 432 OFFCURVE",
"216 372 CURVE SMOOTH",
"105 296 OFFCURVE",
"45 235 OFFCURVE",
"45 146 CURVE SMOOTH",
"45 41 OFFCURVE",
"129 -13 OFFCURVE",
"248 -13 CURVE SMOOTH"
);
}
);
width = 554;
}
);
unicode = 0026;
},
{
color = 5;
glyphname = paragraph;
lastChange = "2016-10-12 22:01:32 +0000";
layers = (
{
layerId = "63224BA1-30A4-42F4-A6D1-9160F56B91B0";
paths = (
{
closed = 1;
nodes = (
"320 619 LINE",
"386 619 LINE",
"386 0 LINE",
"461 0 LINE",
"461 682 LINE",
"272 682 LINE SMOOTH",
"131 682 OFFCURVE",
"32 599 OFFCURVE",
"32 481 CURVE SMOOTH",
"32 364 OFFCURVE",
"120 282 OFFCURVE",
"245 282 CURVE",
"245 0 LINE",
"320 0 LINE"
);
},
{
closed = 1;
nodes = (
"245 346 LINE",
"168 346 OFFCURVE",
"114 402 OFFCURVE",
"114 481 CURVE SMOOTH",
"114 561 OFFCURVE",
"168 617 OFFCURVE",
"245 617 CURVE"
);
}
);
width = 531;
}
);
rightMetricsKey = n;
unicode = 00B6;
},
{
color = 5;
glyphname = section;
lastChange = "2016-10-12 22:01:32 +0000";
layers = (
{
background = {
paths = (
{
closed = 0;
nodes = (
"345 582 LINE",
"310 625 OFFCURVE",
"268 648 OFFCURVE",
"221 648 CURVE SMOOTH",
"160 648 OFFCURVE",
"109 609 OFFCURVE",
"106 546 CURVE SMOOTH",
"103 486 OFFCURVE",
"145 445 OFFCURVE",
"227 425 CURVE SMOOTH",
"312 404 OFFCURVE",
"353 356 OFFCURVE",
"354 302 CURVE SMOOTH",
"355 246 OFFCURVE",
"320 219 OFFCURVE",
"281 203 CURVE SMOOTH"
);
},
{
closed = 0;
nodes = (
"184 447 LINE SMOOTH",
"142 429 OFFCURVE",
"107 403 OFFCURVE",
"107 346 CURVE SMOOTH",
"107 288 OFFCURVE",
"149 237 OFFCURVE",
"241 215 CURVE SMOOTH",
"327 194 OFFCURVE",
"372 150 OFFCURVE",
"370 87 CURVE SMOOTH",
"366 20 OFFCURVE",
"312 -21 OFFCURVE",
"247 -21 CURVE SMOOTH",
"197 -21 OFFCURVE",
"153 3 OFFCURVE",
"116 49 CURVE"
);
},
{
closed = 1;
nodes = (
"324 -41 OFFCURVE",
"389 20 OFFCURVE",
"389 103 CURVE SMOOTH",
"389 177 OFFCURVE",
"334 230 OFFCURVE",
"237 254 CURVE SMOOTH",
"165 272 OFFCURVE",
"126 308 OFFCURVE",
"126 356 CURVE SMOOTH",
"126 399 OFFCURVE",
"136 409 OFFCURVE",
"179 443 CURVE",
"159 486 LINE",
"92 449 OFFCURVE",
"66 422 OFFCURVE",
"66 356 CURVE SMOOTH",
"66 278 OFFCURVE",
"125 219 OFFCURVE",
"223 196 CURVE SMOOTH",
"294 179 OFFCURVE",
"329 147 OFFCURVE",
"329 103 CURVE SMOOTH",
"329 53 OFFCURVE",
"291 19 OFFCURVE",
"236 19 CURVE SMOOTH",
"196 19 OFFCURVE",
"166 32 OFFCURVE",
"125 76 CURVE",
"80 39 LINE",
"137 -18 OFFCURVE",
"173 -41 OFFCURVE",
"236 -41 CURVE SMOOTH"
);
}
);
};
layerId = "63224BA1-30A4-42F4-A6D1-9160F56B91B0";
paths = (
{
closed = 1;
nodes = (
"367 221 OFFCURVE",
"398 258 OFFCURVE",
"398 311 CURVE SMOOTH",
"398 388 OFFCURVE",
"352 428 OFFCURVE",
"246 457 CURVE SMOOTH",
"182 475 OFFCURVE",
"153 505 OFFCURVE",
"153 548 CURVE SMOOTH",
"153 595 OFFCURVE",
"186 616 OFFCURVE",
"232 616 CURVE SMOOTH",
"275 616 OFFCURVE",
"303 598 OFFCURVE",
"327 564 CURVE",
"374 602 LINE",
"334 656 OFFCURVE",
"282 678 OFFCURVE",
"229 678 CURVE SMOOTH",
"146 678 OFFCURVE",
"84 624 OFFCURVE",
"84 547 CURVE SMOOTH",
"84 474 OFFCURVE",
"136 428 OFFCURVE",
"228 400 CURVE SMOOTH",
"305 377 OFFCURVE",
"333 355 OFFCURVE",
"333 310 CURVE SMOOTH",
"333 274 OFFCURVE",
"321 255 OFFCURVE",
"272 224 CURVE",
"297 185 LINE"
);
},
{
closed = 1;
nodes = (
"97 459 OFFCURVE",
"62 400 OFFCURVE",
"62 350 CURVE SMOOTH",
"62 290 OFFCURVE",
"96 239 OFFCURVE",
"205 208 CURVE SMOOTH",
"272 188 OFFCURVE",
"304 166 OFFCURVE",
"304 116 CURVE SMOOTH",
"304 68 OFFCURVE",
"269 47 OFFCURVE",
"216 47 CURVE SMOOTH",
"160 47 OFFCURVE",
"118 65 OFFCURVE",
"97 102 CURVE",
"45 70 LINE",
"89 7 OFFCURVE",
"161 -15 OFFCURVE",
"225 -15 CURVE SMOOTH",
"315 -15 OFFCURVE",
"372 44 OFFCURVE",
"372 116 CURVE SMOOTH",
"372 194 OFFCURVE",
"315 244 OFFCURVE",
"221 269 CURVE SMOOTH",
"152 286 OFFCURVE",
"120 315 OFFCURVE",
"120 362 CURVE SMOOTH",
"120 397 OFFCURVE",
"144 422 OFFCURVE",
"184 435 CURVE",
"173 459 LINE"
);
}
);
width = 438;
},
{
associatedMasterId = "63224BA1-30A4-42F4-A6D1-9160F56B91B0";
background = {
paths = (
{
closed = 0;
nodes = (
"362 582 LINE",
"327 625 OFFCURVE",
"285 648 OFFCURVE",
"238 648 CURVE SMOOTH",
"177 648 OFFCURVE",
"126 609 OFFCURVE",
"123 546 CURVE SMOOTH",
"120 486 OFFCURVE",
"163 445 OFFCURVE",
"244 425 CURVE SMOOTH",
"330 404 OFFCURVE",
"370 356 OFFCURVE",
"371 302 CURVE SMOOTH",
"372 246 OFFCURVE",
"337 219 OFFCURVE",
"298 203 CURVE SMOOTH"
);
},
{
closed = 0;
nodes = (
"201 447 LINE SMOOTH",
"159 429 OFFCURVE",
"124 403 OFFCURVE",
"124 346 CURVE SMOOTH",
"124 288 OFFCURVE",
"166 237 OFFCURVE",
"258 215 CURVE SMOOTH",
"344 194 OFFCURVE",
"390 150 OFFCURVE",
"387 87 CURVE SMOOTH",
"384 20 OFFCURVE",
"329 -21 OFFCURVE",
"264 -21 CURVE SMOOTH",
"214 -21 OFFCURVE",
"170 3 OFFCURVE",
"133 49 CURVE"
);
}
);
};
layerId = "E889CC37-7944-4412-BB75-BB56184DF7C5";
name = "Oct 11 16, 19:57";
paths = (
{
closed = 0;
nodes = (
"201 447 LINE SMOOTH",
"159 429 OFFCURVE",
"124 403 OFFCURVE",
"124 346 CURVE SMOOTH",
"124 288 OFFCURVE",
"166 237 OFFCURVE",
"258 215 CURVE SMOOTH",
"344 194 OFFCURVE",
"390 150 OFFCURVE",
"387 87 CURVE SMOOTH",
"384 20 OFFCURVE",
"329 -21 OFFCURVE",
"264 -21 CURVE SMOOTH",
"214 -21 OFFCURVE",
"170 3 OFFCURVE",
"133 49 CURVE"
);
},
{
closed = 0;
nodes = (
"362 582 LINE",
"327 625 OFFCURVE",
"285 648 OFFCURVE",
"238 648 CURVE SMOOTH",
"177 648 OFFCURVE",
"126 609 OFFCURVE",
"123 546 CURVE SMOOTH",
"120 486 OFFCURVE",
"163 445 OFFCURVE",
"244 425 CURVE SMOOTH",
"330 404 OFFCURVE",
"370 356 OFFCURVE",
"371 302 CURVE SMOOTH",
"372 246 OFFCURVE",
"337 219 OFFCURVE",
"298 203 CURVE SMOOTH"
);
}
);
width = 491;
},
{
associatedMasterId = "63224BA1-30A4-42F4-A6D1-9160F56B91B0";
background = {
paths = (
{
closed = 0;
nodes = (
"353 582 LINE",
"318 625 OFFCURVE",
"276 648 OFFCURVE",
"229 648 CURVE SMOOTH",
"168 648 OFFCURVE",
"117 609 OFFCURVE",
"114 546 CURVE SMOOTH",
"111 486 OFFCURVE",
"153 445 OFFCURVE",
"235 425 CURVE SMOOTH",
"320 404 OFFCURVE",
"361 356 OFFCURVE",
"362 302 CURVE SMOOTH",
"363 246 OFFCURVE",
"328 219 OFFCURVE",
"289 203 CURVE SMOOTH"
);
},
{
closed = 0;
nodes = (
"192 447 LINE SMOOTH",
"150 429 OFFCURVE",
"115 403 OFFCURVE",
"115 346 CURVE SMOOTH",
"115 288 OFFCURVE",
"157 237 OFFCURVE",
"249 215 CURVE SMOOTH",
"335 194 OFFCURVE",
"380 150 OFFCURVE",
"378 87 CURVE SMOOTH",
"374 20 OFFCURVE",
"320 -21 OFFCURVE",
"255 -21 CURVE SMOOTH",
"205 -21 OFFCURVE",
"161 3 OFFCURVE",
"124 49 CURVE"
);
}
);
};
layerId = "78938D17-1DBD-4CE4-8F99-A81F15FCABE4";
name = "Oct 11 16, 19:57";
paths = (
{
closed = 1;
nodes = (
"320 -21 OFFCURVE",
"375 20 OFFCURVE",
"378 87 CURVE SMOOTH",
"381 150 OFFCURVE",
"335 194 OFFCURVE",
"249 215 CURVE SMOOTH",
"157 237 OFFCURVE",
"115 288 OFFCURVE",
"115 346 CURVE SMOOTH",
"115 403 OFFCURVE",
"150 429 OFFCURVE",
"192 447 CURVE SMOOTH",
"124 49 LINE",
"161 3 OFFCURVE",
"205 -21 OFFCURVE",
"255 -21 CURVE SMOOTH"
);
},
{
closed = 1;
nodes = (
"353 582 LINE",
"318 625 OFFCURVE",
"276 648 OFFCURVE",
"229 648 CURVE SMOOTH",
"168 648 OFFCURVE",
"117 609 OFFCURVE",
"114 546 CURVE SMOOTH",
"111 486 OFFCURVE",
"154 445 OFFCURVE",
"235 425 CURVE SMOOTH",
"321 404 OFFCURVE",
"361 356 OFFCURVE",
"362 302 CURVE SMOOTH",
"363 246 OFFCURVE",
"328 219 OFFCURVE",
"289 203 CURVE SMOOTH"
);
}
);
width = 491;
},
{
associatedMasterId = "63224BA1-30A4-42F4-A6D1-9160F56B91B0";
background = {
paths = (
{
closed = 0;
nodes = (
"353 582 LINE",
"318 625 OFFCURVE",
"276 648 OFFCURVE",
"229 648 CURVE SMOOTH",
"168 648 OFFCURVE",
"117 609 OFFCURVE",
"114 546 CURVE SMOOTH",
"111 486 OFFCURVE",
"153 445 OFFCURVE",
"235 425 CURVE SMOOTH",
"320 404 OFFCURVE",
"361 356 OFFCURVE",
"362 302 CURVE SMOOTH",
"363 246 OFFCURVE",
"328 219 OFFCURVE",
"289 203 CURVE SMOOTH"
);
},
{
closed = 0;
nodes = (
"192 447 LINE SMOOTH",
"150 429 OFFCURVE",
"115 403 OFFCURVE",
"115 346 CURVE SMOOTH",
"115 288 OFFCURVE",
"157 237 OFFCURVE",
"249 215 CURVE SMOOTH",
"335 194 OFFCURVE",
"380 150 OFFCURVE",
"378 87 CURVE SMOOTH",
"374 20 OFFCURVE",
"320 -21 OFFCURVE",
"255 -21 CURVE SMOOTH",
"205 -21 OFFCURVE",
"161 3 OFFCURVE",
"124 49 CURVE"
);
}
);
};
layerId = "0ADE5960-428B-4F9D-9FBC-DFE201D92D36";
name = "Oct 11 16, 19:58";
paths = (
{
closed = 1;
nodes = (
"373.164 -21 LINE",
"378 87 LINE SMOOTH",
"382.542 182.391 LINE",
"249 215 LINE SMOOTH",
"115 247.043 LINE",
"115 346 LINE SMOOTH",
"115 414 LINE",
"192 447 LINE SMOOTH",
"124 49 LINE",
"180.304 -21 LINE",
"255 -21 LINE SMOOTH"
);
},
{
closed = 1;
nodes = (
"353 582 LINE",
"299.279 648 LINE",
"229 648 LINE SMOOTH",
"118.857 648 LINE",
"114 546 LINE SMOOTH",
"109.499 455.988 LINE",
"235 425 LINE SMOOTH",
"360.289 394.406 LINE",
"362 302 LINE SMOOTH",
"363.224 233.451 LINE",
"289 203 LINE SMOOTH"
);
}
);
width = 491;
}
);
unicode = 00A7;
},
{
color = 5;
glyphname = copyright;
lastChange = "2016-10-12 22:01:32 +0000";
layers = (
{
background = {
paths = (
{
closed = 1;
nodes = (
"444 208 LINE",
"425 181 OFFCURVE",
"388 162 OFFCURVE",
"355 162 CURVE SMOOTH",
"294 162 OFFCURVE",
"251 212 OFFCURVE",
"251 283 CURVE SMOOTH",
"251 353 OFFCURVE",
"294 403 OFFCURVE",
"355 403 CURVE SMOOTH",
"382 403 OFFCURVE",
"415 384 OFFCURVE",
"435 357 CURVE SMOOTH",
"480 386 LINE",
"451 426 OFFCURVE",
"399 454 OFFCURVE",
"355 454 CURVE SMOOTH",
"262 454 OFFCURVE",
"196 383 OFFCURVE",
"196 283 CURVE SMOOTH",
"196 183 OFFCURVE",
"262 112 OFFCURVE",
"356 112 CURVE SMOOTH",
"404 112 OFFCURVE",
"458 139 OFFCURVE",
"487 178 CURVE"
);
}
);
};
layerId = "63224BA1-30A4-42F4-A6D1-9160F56B91B0";
paths = (
{
closed = 1;
nodes = (
"45 119 OFFCURVE",
"176 -21 OFFCURVE",
"351 -21 CURVE SMOOTH",
"518 -21 OFFCURVE",
"658 111 OFFCURVE",
"658 286 CURVE SMOOTH",
"658 451 OFFCURVE",
"525 593 OFFCURVE",
"351 593 CURVE SMOOTH",
"185 593 OFFCURVE",
"45 460 OFFCURVE",
"45 286 CURVE SMOOTH"
);
},
{
closed = 1;
nodes = (
"91 428 OFFCURVE",
"200 546 OFFCURVE",
"351 546 CURVE SMOOTH",
"493 546 OFFCURVE",
"611 434 OFFCURVE",
"611 286 CURVE SMOOTH",
"611 145 OFFCURVE",
"501 26 OFFCURVE",
"351 26 CURVE SMOOTH",
"208 26 OFFCURVE",
"91 137 OFFCURVE",
"91 286 CURVE SMOOTH"
);
},
{
closed = 1;
nodes = (
"444 208 LINE",
"425 181 OFFCURVE",
"388 162 OFFCURVE",
"355 162 CURVE SMOOTH",
"294 162 OFFCURVE",
"251 212 OFFCURVE",
"251 283 CURVE SMOOTH",
"251 353 OFFCURVE",
"294 403 OFFCURVE",
"355 403 CURVE SMOOTH",
"382 403 OFFCURVE",
"415 384 OFFCURVE",
"435 357 CURVE SMOOTH",
"480 386 LINE",
"451 426 OFFCURVE",
"399 454 OFFCURVE",
"355 454 CURVE SMOOTH",
"262 454 OFFCURVE",
"196 383 OFFCURVE",
"196 283 CURVE SMOOTH",
"196 183 OFFCURVE",
"262 112 OFFCURVE",
"356 112 CURVE SMOOTH",
"404 112 OFFCURVE",
"458 139 OFFCURVE",
"487 178 CURVE"
);
}
);
width = 702;
}
);
unicode = 00A9;
},
{
color = 5;
glyphname = registered;
lastChange = "2016-10-12 22:01:32 +0000";
layers = (
{
layerId = "63224BA1-30A4-42F4-A6D1-9160F56B91B0";
paths = (
{
closed = 1;
nodes = (
"345 262 LINE",
"433 116 LINE",
"495 117 LINE",
"401 276 LINE"
);
},
{
closed = 1;
nodes = (
"366 399 LINE SMOOTH",
"400 399 OFFCURVE",
"416 378 OFFCURVE",
"416 350 CURVE SMOOTH",
"416 323 OFFCURVE",
"402 301 OFFCURVE",
"366 301 CURVE SMOOTH",
"291 301 LINE",
"291 399 LINE"
);
},
{
closed = 1;
nodes = (
"45 119 OFFCURVE",
"176 -21 OFFCURVE",
"351 -21 CURVE SMOOTH",
"518 -21 OFFCURVE",
"658 111 OFFCURVE",
"658 286 CURVE SMOOTH",
"658 451 OFFCURVE",
"525 593 OFFCURVE",
"351 593 CURVE SMOOTH",
"185 593 OFFCURVE",
"45 460 OFFCURVE",
"45 286 CURVE SMOOTH"
);
},
{
closed = 1;
nodes = (
"91 428 OFFCURVE",
"200 546 OFFCURVE",
"351 546 CURVE SMOOTH",
"493 546 OFFCURVE",
"611 434 OFFCURVE",
"611 286 CURVE SMOOTH",
"611 145 OFFCURVE",
"501 26 OFFCURVE",
"351 26 CURVE SMOOTH",
"208 26 OFFCURVE",
"91 137 OFFCURVE",
"91 286 CURVE SMOOTH"
);
},
{
closed = 1;
nodes = (
"430 250 OFFCURVE",
"474 285 OFFCURVE",
"474 350 CURVE SMOOTH",
"474 415 OFFCURVE",
"430 449 OFFCURVE",
"365 449 CURVE SMOOTH",
"236 449 LINE",
"236 117 LINE",
"291 117 LINE",
"291 250 LINE",
"367 250 LINE SMOOTH"
);
}
);
width = 702;
}
);
unicode = 00AE;
},
{
color = 5;
glyphname = trademark;
lastChange = "2016-10-12 22:01:32 +0000";
layers = (
{
guideLines = (
{
position = "{393, 623}";
}
);
layerId = "63224BA1-30A4-42F4-A6D1-9160F56B91B0";
paths = (
{
closed = 1;
nodes = (
"113 681 LINE",
"113 475 LINE",
"162 475 LINE",
"162 681 LINE",
"228 681 LINE",
"228 726 LINE",
"48 726 LINE",
"48 681 LINE"
);
},
{
closed = 1;
nodes = (
"319 475 LINE",
"319 646 LINE",
"312 643 LINE",
"376 475 LINE",
"399 475 LINE",
"463 643 LINE",
"456 646 LINE",
"456 475 LINE",
"506 475 LINE",
"506 726 LINE",
"458 726 LINE",
"373 510 LINE",
"402 510 LINE",
"318 726 LINE",
"270 726 LINE",
"270 475 LINE"
);
}
);
width = 588;
}
);
unicode = 2122;
},
{
color = 5;
glyphname = degree;
lastChange = "2016-10-12 22:01:32 +0000";
layers = (
{
layerId = "63224BA1-30A4-42F4-A6D1-9160F56B91B0";
paths = (
{
closed = 1;
nodes = (
"50 484 OFFCURVE",
"106 429 OFFCURVE",
"184 429 CURVE SMOOTH",
"263 429 OFFCURVE",
"319 484 OFFCURVE",
"319 561 CURVE SMOOTH",
"319 641 OFFCURVE",
"263 697 OFFCURVE",
"184 697 CURVE SMOOTH",
"106 697 OFFCURVE",
"50 641 OFFCURVE",
"50 562 CURVE SMOOTH"
);
},
{
closed = 1;
nodes = (
"104 610 OFFCURVE",
"137 644 OFFCURVE",
"184 644 CURVE SMOOTH",
"231 644 OFFCURVE",
"264 610 OFFCURVE",
"264 562 CURVE SMOOTH",
"264 515 OFFCURVE",
"231 482 OFFCURVE",
"184 482 CURVE SMOOTH",
"137 482 OFFCURVE",
"104 515 OFFCURVE",
"104 562 CURVE SMOOTH"
);
}
);
width = 369;
}
);
unicode = 00B0;
},
{
color = 5;
glyphname = bar;
lastChange = "2016-10-12 22:01:32 +0000";
layers = (
{
layerId = "63224BA1-30A4-42F4-A6D1-9160F56B91B0";
paths = (
{
closed = 1;
nodes = (
"107 -68 LINE",
"107 750 LINE",
"66 750 LINE",
"66 -68 LINE"
);
}
);
width = 173;
}
);
unicode = 007C;
},
{
color = 5;
glyphname = brokenbar;
lastChange = "2016-10-12 22:01:32 +0000";
layers = (
{
layerId = "63224BA1-30A4-42F4-A6D1-9160F56B91B0";
paths = (
{
closed = 1;
nodes = (
"110 389 LINE",
"110 750 LINE",
"69 750 LINE",
"69 389 LINE"
);
},
{
closed = 1;
nodes = (
"110 -68 LINE",
"110 293 LINE",
"69 293 LINE",
"69 -68 LINE"
);
}
);
width = 179;
}
);
unicode = 00A6;
},
{
color = 5;
glyphname = dagger;
lastChange = "2016-10-12 22:01:32 +0000";
layers = (
{
layerId = "63224BA1-30A4-42F4-A6D1-9160F56B91B0";
paths = (
{
closed = 1;
nodes = (
"206 57 LINE",
"261 57 LINE",
"261 413 LINE",
"417 413 LINE",
"417 468 LINE",
"261 468 LINE",
"261 624 LINE",
"206 624 LINE",
"206 468 LINE",
"50 468 LINE",
"50 413 LINE",
"206 413 LINE"
);
}
);
width = 467;
}
);
unicode = 2020;
},
{
color = 5;
glyphname = daggerdbl;
lastChange = "2016-10-12 22:01:32 +0000";
layers = (
{
background = {
paths = (
{
closed = 1;
nodes = (
"417 253 LINE",
"417 308 LINE",
"50 308 LINE",
"50 253 LINE"
);
}
);
};
layerId = "63224BA1-30A4-42F4-A6D1-9160F56B91B0";
paths = (
{
closed = 1;
nodes = (
"206 57 LINE",
"261 57 LINE",
"261 413 LINE",
"417 413 LINE",
"417 468 LINE",
"261 468 LINE",
"261 624 LINE",
"206 624 LINE",
"206 468 LINE",
"50 468 LINE",
"50 413 LINE",
"206 413 LINE"
);
},
{
closed = 1;
nodes = (
"417 193 LINE",
"417 248 LINE",
"50 248 LINE",
"50 193 LINE"
);
}
);
width = 467;
}
);
unicode = 2021;
},
{
color = 5;
glyphname = numero;
lastChange = "2016-10-12 22:01:32 +0000";
layers = (
{
layerId = "63224BA1-30A4-42F4-A6D1-9160F56B91B0";
paths = (
{
closed = 1;
nodes = (
"154 0 LINE",
"154 552 LINE",
"441 0 LINE",
"521 0 LINE",
"521 682 LINE",
"446 682 LINE",
"446 128 LINE",
"159 682 LINE",
"79 682 LINE",
"79 0 LINE"
);
},
{
closed = 1;
nodes = (
"827 387 OFFCURVE",
"887 451 OFFCURVE",
"887 542 CURVE SMOOTH",
"887 632 OFFCURVE",
"827 696 OFFCURVE",
"743 696 CURVE SMOOTH",
"659 696 OFFCURVE",
"599 632 OFFCURVE",
"599 542 CURVE SMOOTH",
"599 451 OFFCURVE",
"659 387 OFFCURVE",
"743 387 CURVE SMOOTH"
);
},
{
closed = 1;
nodes = (
"797 649 OFFCURVE",
"836 605 OFFCURVE",
"836 543 CURVE SMOOTH",
"836 479 OFFCURVE",
"797 434 OFFCURVE",
"743 434 CURVE SMOOTH",
"688 434 OFFCURVE",
"649 478 OFFCURVE",
"649 541 CURVE SMOOTH",
"649 604 OFFCURVE",
"687 649 OFFCURVE",
"741 649 CURVE SMOOTH"
);
},
{
closed = 1;
nodes = (
"867 336 LINE",
"619 336 LINE",
"619 285 LINE",
"867 285 LINE"
);
}
);
width = 937;
}
);
leftMetricsKey = N;
unicode = 2116;
},
{
color = 5;
glyphname = asciicircum;
lastChange = "2016-10-12 22:01:32 +0000";
layers = (
{
background = {
paths = (
{
closed = 1;
nodes = (
"63 411 LINE",
"120 370 LINE",
"247 541 LINE",
"407 328 LINE",
"462 369 LINE",
"246 656 LINE"
);
}
);
};
layerId = "63224BA1-30A4-42F4-A6D1-9160F56B91B0";
paths = (
{
closed = 1;
nodes = (
"35 369 LINE",
"77 333 LINE",
"264 577 LINE",
"236 577 LINE",
"422 333 LINE",
"466 369 LINE",
"251 656 LINE"
);
}
);
width = 500;
}
);
unicode = 005E;
},
{
color = 5;
glyphname = dieresiscomb;
lastChange = "2016-10-12 22:01:32 +0000";
layers = (
{
anchors = (
{
name = _top;
position = "{202, 468}";
},
{
name = top;
position = "{202, 667}";
}
);
layerId = "63224BA1-30A4-42F4-A6D1-9160F56B91B0";
paths = (
{
closed = 1;
nodes = (
"245 583 OFFCURVE",
"269 559 OFFCURVE",
"300 559 CURVE SMOOTH",
"329 559 OFFCURVE",
"354 584 OFFCURVE",
"354 613 CURVE SMOOTH",
"354 644 OFFCURVE",
"329 667 OFFCURVE",
"300 667 CURVE SMOOTH",
"269 667 OFFCURVE",
"245 643 OFFCURVE",
"245 614 CURVE SMOOTH"
);
},
{
closed = 1;
nodes = (
"50 583 OFFCURVE",
"73 559 OFFCURVE",
"104 559 CURVE SMOOTH",
"133 559 OFFCURVE",
"159 584 OFFCURVE",
"159 613 CURVE SMOOTH",
"159 644 OFFCURVE",
"133 667 OFFCURVE",
"104 667 CURVE SMOOTH",
"73 667 OFFCURVE",
"50 643 OFFCURVE",
"50 614 CURVE SMOOTH"
);
}
);
width = 404;
}
);
unicode = 0308;
},
{
color = 5;
glyphname = dotaccentcomb;
lastChange = "2016-10-12 22:01:32 +0000";
layers = (
{
anchors = (
{
name = _top;
position = "{104, 468}";
},
{
name = top;
position = "{104, 597}";
}
);
layerId = "63224BA1-30A4-42F4-A6D1-9160F56B91B0";
paths = (
{
closed = 1;
nodes = (
"50 583 OFFCURVE",
"73 559 OFFCURVE",
"104 559 CURVE SMOOTH",
"133 559 OFFCURVE",
"158 584 OFFCURVE",
"158 613 CURVE SMOOTH",
"158 644 OFFCURVE",
"133 667 OFFCURVE",
"104 667 CURVE SMOOTH",
"73 667 OFFCURVE",
"50 643 OFFCURVE",
"50 614 CURVE SMOOTH"
);
}
);
width = 208;
}
);
unicode = 0307;
},
{
color = 5;
glyphname = gravecomb;
lastChange = "2016-10-12 22:01:32 +0000";
layers = (
{
anchors = (
{
name = _top;
position = "{175, 468}";
},
{
name = top;
position = "{160, 682}";
}
);
background = {
paths = (
{
closed = 1;
nodes = (
"84 682 LINE",
"50 624 LINE",
"250 537 LINE",
"270 571 LINE"
);
}
);
};
layerId = "63224BA1-30A4-42F4-A6D1-9160F56B91B0";
paths = (
{
closed = 1;
nodes = (
"84 682 LINE",
"50 624 LINE",
"250 537 LINE",
"270 571 LINE"
);
}
);
width = 350;
}
);
unicode = 0300;
},
{
color = 5;
glyphname = acutecomb;
lastChange = "2016-10-12 22:01:32 +0000";
layers = (
{
anchors = (
{
name = _top;
position = "{115, 468}";
},
{
name = top;
position = "{145, 682}";
}
);
layerId = "63224BA1-30A4-42F4-A6D1-9160F56B91B0";
paths = (
{
closed = 1;
nodes = (
"70 537 LINE",
"270 624 LINE",
"236 682 LINE",
"50 571 LINE"
);
}
);
width = 290;
}
);
unicode = 0301;
},
{
color = 5;
glyphname = hungarumlautcomb;
lastChange = "2016-10-12 22:01:32 +0000";
layers = (
{
anchors = (
{
name = _top;
position = "{148, 468}";
},
{
name = top;
position = "{227, 737}";
}
);
background = {
components = (
{
name = acutecomb;
}
);
};
layerId = "63224BA1-30A4-42F4-A6D1-9160F56B91B0";
paths = (
{
closed = 1;
nodes = (
"220 560 LINE",
"354 699 LINE",
"306 747 LINE",
"192 587 LINE"
);
},
{
closed = 1;
nodes = (
"78 560 LINE",
"212 699 LINE",
"164 747 LINE",
"50 587 LINE"
);
}
);
width = 492;
}
);
unicode = 030B;
},
{
color = 5;
glyphname = caroncomb.alt;
lastChange = "2016-10-12 22:01:32 +0000";
layers = (
{
anchors = (
{
name = _topright;
position = "{47, 468}";
}
);
layerId = "63224BA1-30A4-42F4-A6D1-9160F56B91B0";
paths = (
{
closed = 1;
nodes = (
"86 646 OFFCURVE",
"96 595 OFFCURVE",
"38 529 CURVE",
"60 506 LINE",
"118 546 OFFCURVE",
"157 619 OFFCURVE",
"157 671 CURVE SMOOTH",
"157 709 OFFCURVE",
"144 737 OFFCURVE",
"101 737 CURVE SMOOTH",
"71 737 OFFCURVE",
"56 715 OFFCURVE",
"70 682 CURVE SMOOTH"
);
}
);
width = 204;
}
);
},
{
color = 5;
glyphname = circumflexcomb;
lastChange = "2016-10-12 22:01:32 +0000";
layers = (
{
anchors = (
{
name = _top;
position = "{186, 468}";
},
{
name = top;
position = "{186, 725}";
}
);
layerId = "63224BA1-30A4-42F4-A6D1-9160F56B91B0";
paths = (
{
closed = 1;
nodes = (
"185 644 LINE",
"302 567 LINE",
"321 601 LINE",
"185 725 LINE",
"50 601 LINE",
"69 567 LINE"
);
}
);
width = 371;
}
);
unicode = 0302;
},
{
color = 5;
glyphname = caroncomb;
lastChange = "2016-10-12 22:01:32 +0000";
layers = (
{
anchors = (
{
name = _top;
position = "{186, 468}";
},
{
name = top;
position = "{186, 705}";
}
);
layerId = "63224BA1-30A4-42F4-A6D1-9160F56B91B0";
paths = (
{
closed = 1;
nodes = (
"185 628 LINE",
"69 705 LINE",
"50 671 LINE",
"185 547 LINE",
"321 671 LINE",
"302 705 LINE"
);
}
);
width = 371;
}
);
unicode = 030C;
},
{
color = 5;
glyphname = brevecomb;
lastChange = "2016-10-12 22:01:32 +0000";
layers = (
{
anchors = (
{
name = _top;
position = "{186, 468}";
},
{
name = top;
position = "{186, 698}";
}
);
guideLines = (
{
angle = 90;
position = "{186, 668}";
}
);
layerId = "63224BA1-30A4-42F4-A6D1-9160F56B91B0";
paths = (
{
closed = 1;
nodes = (
"275 645 OFFCURVE",
"240 621 OFFCURVE",
"186 621 CURVE SMOOTH",
"132 621 OFFCURVE",
"97 645 OFFCURVE",
"91 698 CURVE",
"50 698 LINE",
"52 603 OFFCURVE",
"109 560 OFFCURVE",
"186 560 CURVE SMOOTH",
"263 560 OFFCURVE",
"320 603 OFFCURVE",
"322 698 CURVE",
"281 698 LINE"
);
}
);
width = 371;
}
);
unicode = 0306;
},
{
color = 5;
glyphname = ringcomb;
lastChange = "2016-10-12 22:01:32 +0000";
layers = (
{
anchors = (
{
name = _top;
position = "{150, 468}";
},
{
name = top;
position = "{150, 759}";
}
);
layerId = "63224BA1-30A4-42F4-A6D1-9160F56B91B0";
paths = (
{
closed = 1;
nodes = (
"100 687 OFFCURVE",
"122 709 OFFCURVE",
"150 709 CURVE SMOOTH",
"177 709 OFFCURVE",
"199 687 OFFCURVE",
"199 659 CURVE SMOOTH",
"199 632 OFFCURVE",
"177 609 OFFCURVE",
"150 609 CURVE SMOOTH",
"122 609 OFFCURVE",
"100 632 OFFCURVE",
"100 660 CURVE SMOOTH"
);
},
{
closed = 1;
nodes = (
"50 604 OFFCURVE",
"94 560 OFFCURVE",
"149 560 CURVE SMOOTH",
"204 560 OFFCURVE",
"249 604 OFFCURVE",
"249 659 CURVE SMOOTH",
"249 714 OFFCURVE",
"204 759 OFFCURVE",
"149 759 CURVE SMOOTH",
"94 759 OFFCURVE",
"50 714 OFFCURVE",
"50 659 CURVE SMOOTH"
);
}
);
width = 299;
}
);
unicode = 030A;
},
{
color = 5;
glyphname = tildecomb;
lastChange = "2016-10-12 22:01:32 +0000";
layers = (
{
anchors = (
{
name = _top;
position = "{222, 468}";
},
{
name = top;
position = "{222, 684}";
}
);
layerId = "63224BA1-30A4-42F4-A6D1-9160F56B91B0";
paths = (
{
closed = 1;
nodes = (
"246 618 OFFCURVE",
"219 684 OFFCURVE",
"158 684 CURVE SMOOTH",
"95 684 OFFCURVE",
"56 613 OFFCURVE",
"50 554 CURVE",
"95 554 LINE",
"102 596 OFFCURVE",
"117 618 OFFCURVE",
"153 618 CURVE SMOOTH",
"213 618 OFFCURVE",
"223 554 OFFCURVE",
"287 554 CURVE SMOOTH",
"354 554 OFFCURVE",
"387 623 OFFCURVE",
"393 684 CURVE",
"347 684 LINE",
"345 648 OFFCURVE",
"326 618 OFFCURVE",
"297 618 CURVE SMOOTH"
);
}
);
width = 443;
}
);
unicode = 0303;
},
{
color = 5;
glyphname = macroncomb;
lastChange = "2016-10-12 22:01:32 +0000";
layers = (
{
anchors = (
{
name = _top;
position = "{184, 468}";
},
{
name = top;
position = "{184, 631}";
}
);
layerId = "63224BA1-30A4-42F4-A6D1-9160F56B91B0";
paths = (
{
closed = 1;
nodes = (
"50 586 LINE",
"317 586 LINE",
"317 631 LINE",
"50 631 LINE"
);
}
);
width = 367;
}
);
unicode = 0304;
},
{
color = 5;
glyphname = verticallineabovecomb;
lastChange = "2016-10-12 22:01:32 +0000";
layers = (
{
anchors = (
{
name = _top;
position = "{70, 468}";
},
{
name = top;
position = "{70, 764}";
}
);
layerId = "63224BA1-30A4-42F4-A6D1-9160F56B91B0";
paths = (
{
closed = 1;
nodes = (
"50 764 LINE",
"50 567 LINE",
"90 567 LINE",
"90 764 LINE"
);
}
);
width = 140;
}
);
unicode = 030D;
},
{
color = 5;
glyphname = cedillacomb;
lastChange = "2016-10-12 22:01:32 +0000";
layers = (
{
anchors = (
{
name = _bottom;
position = "{153, 0}";
},
{
name = bottom;
position = "{153, -200}";
}
);
layerId = "63224BA1-30A4-42F4-A6D1-9160F56B91B0";
paths = (
{
closed = 1;
nodes = (
"82 -103 LINE",
"176 -103 OFFCURVE",
"190 -111 OFFCURVE",
"190 -131 CURVE SMOOTH",
"190 -144 OFFCURVE",
"175 -154 OFFCURVE",
"145 -161 CURVE SMOOTH",
"115 -169 OFFCURVE",
"83 -173 OFFCURVE",
"50 -173 CURVE",
"50 -200 LINE",
"187 -200 OFFCURVE",
"255 -175 OFFCURVE",
"255 -125 CURVE SMOOTH",
"255 -97 OFFCURVE",
"220 -68 OFFCURVE",
"148 -68 CURVE",
"181 0 LINE",
"130 0 LINE"
);
}
);
width = 305;
}
);
unicode = 0327;
},
{
color = 5;
glyphname = ogonekcomb;
lastChange = "2016-10-12 22:01:32 +0000";
layers = (
{
anchors = (
{
name = _ogonek;
position = "{182, 0}";
}
);
layerId = "63224BA1-30A4-42F4-A6D1-9160F56B91B0";
paths = (
{
closed = 1;
nodes = (
"80 -77 OFFCURVE",
"130 -24 OFFCURVE",
"182 0 CURVE",
"182 14 LINE",
"83 -4 OFFCURVE",
"7 -79 OFFCURVE",
"34 -160 CURVE SMOOTH",
"48 -201 OFFCURVE",
"81 -223 OFFCURVE",
"123 -223 CURVE SMOOTH",
"151 -223 OFFCURVE",
"183 -213 OFFCURVE",
"216 -195 CURVE",
"204 -173 LINE",
"188 -181 OFFCURVE",
"173 -185 OFFCURVE",
"160 -185 CURVE SMOOTH",
"135 -185 OFFCURVE",
"116 -172 OFFCURVE",
"107 -148 CURVE SMOOTH"
);
}
);
width = 311;
}
);
unicode = 0328;
},
{
color = 5;
glyphname = lowlinecomb;
lastChange = "2016-10-12 22:01:32 +0000";
layers = (
{
anchors = (
{
name = _bottom;
position = "{234, 0}";
},
{
name = bottom;
position = "{234, -139}";
}
);
layerId = "63224BA1-30A4-42F4-A6D1-9160F56B91B0";
paths = (
{
closed = 1;
nodes = (
"50 -139 LINE",
"417 -139 LINE",
"417 -94 LINE",
"50 -94 LINE"
);
}
);
width = 467;
}
);
unicode = 0332;
},
{
color = 5;
glyphname = strokeshortcomb;
lastChange = "2016-10-12 22:01:32 +0000";
layers = (
{
anchors = (
{
name = _center;
position = "{181, 269}";
}
);
layerId = "63224BA1-30A4-42F4-A6D1-9160F56B91B0";
paths = (
{
closed = 1;
nodes = (
"50 245 LINE",
"312 245 LINE",
"312 293 LINE",
"50 293 LINE"
);
}
);
width = 362;
}
);
unicode = 0335;
},
{
color = 5;
glyphname = strokelongcomb;
lastChange = "2016-10-12 22:01:32 +0000";
layers = (
{
anchors = (
{
name = _center;
position = "{299, 269}";
}
);
layerId = "63224BA1-30A4-42F4-A6D1-9160F56B91B0";
paths = (
{
closed = 1;
nodes = (
"50 245 LINE",
"547 245 LINE",
"547 293 LINE",
"50 293 LINE"
);
}
);
width = 597;
}
);
unicode = 0336;
},
{
color = 5;
glyphname = slashshortcomb;
lastChange = "2016-10-12 22:01:32 +0000";
layers = (
{
anchors = (
{
name = _center;
position = "{181, 400}";
}
);
layerId = "63224BA1-30A4-42F4-A6D1-9160F56B91B0";
paths = (
{
closed = 1;
nodes = (
"73 300 LINE",
"311 467 LINE",
"284 508 LINE",
"46 341 LINE"
);
}
);
width = 361;
}
);
unicode = 0337;
},
{
color = 5;
glyphname = slashlongcomb;
lastChange = "2016-10-12 22:01:32 +0000";
layers = (
{
layerId = "63224BA1-30A4-42F4-A6D1-9160F56B91B0";
paths = (
{
closed = 1;
nodes = (
"610 682 LINE",
"50 0 LINE",
"112 0 LINE",
"673 682 LINE"
);
}
);
width = 723;
}
);
unicode = 0338;
},
{
color = 5;
glyphname = doublemacroncomb;
lastChange = "2016-10-12 22:01:32 +0000";
layers = (
{
layerId = "63224BA1-30A4-42F4-A6D1-9160F56B91B0";
paths = (
{
closed = 1;
nodes = (
"50 586 LINE",
"825 586 LINE",
"825 631 LINE",
"50 631 LINE"
);
}
);
width = 875;
}
);
unicode = 035E;
},
{
color = 5;
glyphname = doublemacronbelowcomb;
lastChange = "2016-10-12 22:01:32 +0000";
layers = (
{
layerId = "63224BA1-30A4-42F4-A6D1-9160F56B91B0";
paths = (
{
closed = 1;
nodes = (
"50 -139 LINE",
"825 -139 LINE",
"825 -94 LINE",
"50 -94 LINE"
);
}
);
width = 875;
}
);
unicode = 035F;
},
{
color = 5;
glyphname = acutemacroncomb;
lastChange = "2016-10-12 22:01:32 +0000";
layers = (
{
layerId = "63224BA1-30A4-42F4-A6D1-9160F56B91B0";
paths = (
{
closed = 1;
nodes = (
"50 575 LINE",
"111 546 LINE",
"186 706 LINE",
"432 706 LINE",
"432 751 LINE",
"165 751 LINE"
);
}
);
width = 482;
}
);
unicode = 1DC7;
},
